Cosmetique-Bold.sfdir
StartChar: exclam
Encoding: 33 33 144
Width: 320
Flags: W
LayerCount: 2
Fore
SplineSet
160 159 m 0,0,1
 195 159 195 159 220 135 c 128,-1,2
 245 111 245 111 245 75 c 256,3,4
 245 39 245 39 220 14 c 128,-1,5
 195 -11 195 -11 160 -11 c 256,6,7
 125 -11 125 -11 99.5 13.5 c 128,-1,8
 74 38 74 38 74 74 c 0,9,10
 74 109 74 109 99 134 c 128,-1,11
 124 159 124 159 160 159 c 0,0,1
81 589 m 1,12,13
 81 628 81 628 102 655.5 c 128,-1,14
 123 683 123 683 161 683 c 0,15,16
 197 683 197 683 218.5 663.5 c 128,-1,17
 240 644 240 644 240 610 c 0,18,19
 240 573 240 573 234 534 c 128,-1,20
 228 495 228 495 220 452 c 2,21,-1
 199 333 l 2,22,23
 187 266 187 266 182 213 c 1,24,-1
 139 213 l 1,25,26
 110 401 110 401 81 589 c 1,12,13
EndSplineSet
EndChar
StartChar: quotedbl
Encoding: 34 34 140
Width: 325
Flags: W
HStem: 422 268<38 130 195 287>
VStem: 38 92<422 690> 195 92<422 690>
LayerCount: 2
Fore
SplineSet
130 690 m 1
 130 422 l 1
 38 422 l 1
 38 690 l 1
 130 690 l 1
287 690 m 1
 287 422 l 1
 195 422 l 1
 195 690 l 1
 287 690 l 1
EndSplineSet
EndChar
StartChar: numbersign
Encoding: 35 35 3
Width: 755
Flags: HW
LayerCount: 2
Fore
SplineSet
446 702 m 1
 376 503 l 1
 493 503 l 1
 563 702 l 1
 670 702 l 1
 599 503 l 1
 734 503 l 1
 699 406 l 1
 564 406 l 1
 523 291 l 1
 663 291 l 1
 629 195 l 1
 489 195 l 1
 418 -4 l 1
 312 -4 l 1
 382 195 l 1
 265 195 l 1
 195 -4 l 1
 88 -4 l 1
 159 195 l 1
 22 195 l 1
 57 291 l 1
 194 291 l 1
 235 406 l 1
 92 406 l 1
 126 503 l 1
 270 503 l 1
 340 702 l 1
 446 702 l 1
298 290 m 1
 419 290 l 1
 460 406 l 1
 339 406 l 1
 298 290 l 1
EndSplineSet
EndChar
StartChar: dollar
Encoding: 36 36 5
Width: 539
Flags: W
LayerCount: 2
Fore
SplineSet
31 57 m 1,0,1
 55 119 55 119 75 183 c 1,2,-1
 92 183 l 1,3,4
 108 128 108 128 145.5 92.5 c 128,-1,5
 183 57 183 57 238 57 c 1,6,-1
 238 263 l 1,7,8
 121 295 121 295 78 341.5 c 128,-1,9
 35 388 35 388 35 449 c 0,10,11
 35 531 35 531 93.5 581.5 c 128,-1,12
 152 632 152 632 238 640 c 1,13,14
 238 683 238 683 232 727 c 1,15,16
 237 726 237 726 248 724.5 c 128,-1,17
 259 723 259 723 267 722 c 1,18,19
 275 723 275 723 282.5 723.5 c 128,-1,20
 290 724 290 724 300 727 c 1,21,22
 297 708 297 708 296 687.5 c 128,-1,23
 295 667 295 667 295 642 c 1,24,25
 362 634 362 634 399.5 625 c 128,-1,26
 437 616 437 616 476 593 c 1,27,28
 450 537 450 537 432 479 c 1,29,-1
 410 479 l 1,30,31
 387 568 387 568 294 588 c 1,32,-1
 294 399 l 1,33,34
 415 368 415 368 458 320.5 c 128,-1,35
 501 273 501 273 501 208 c 0,36,37
 501 121 501 121 442.5 66 c 128,-1,38
 384 11 384 11 294 0 c 1,39,-1
 293 -45 l 2,40,41
 293 -61 293 -61 294 -70 c 128,-1,42
 295 -79 295 -79 298 -98 c 1,43,-1
 266 -96 l 1,44,-1
 234 -98 l 1,45,46
 236 -81 236 -81 236.5 -50 c 128,-1,47
 237 -19 237 -19 238 0 c 1,48,49
 125 0 125 0 31 57 c 1,0,1
238 588 m 1,50,51
 200 588 200 588 175 560 c 128,-1,52
 150 532 150 532 150 494 c 0,53,54
 150 464 150 464 176.5 443 c 128,-1,55
 203 422 203 422 238 415 c 1,56,-1
 238 588 l 1,50,51
384 153 m 256,57,58
 384 193 384 193 359 215.5 c 128,-1,59
 334 238 334 238 291 250 c 1,60,-1
 291 56 l 1,61,62
 332 64 332 64 358 88.5 c 128,-1,63
 384 113 384 113 384 153 c 256,57,58
EndSplineSet
EndChar
StartChar: percent
Encoding: 37 37 6
Width: 808
Flags: W
LayerCount: 2
Fore
SplineSet
191 655 m 0,0,1
 266 655 266 655 313 608 c 128,-1,2
 360 561 360 561 360 484 c 0,3,4
 360 405 360 405 313.5 357.5 c 128,-1,5
 267 310 267 310 186 310 c 0,6,7
 111 310 111 310 65.5 358.5 c 128,-1,8
 20 407 20 407 20 482 c 0,9,10
 20 559 20 559 67 607 c 128,-1,11
 114 655 114 655 191 655 c 0,0,1
598 731 m 1,12,-1
 660 731 l 1,13,-1
 196 -91 l 1,14,-1
 133 -91 l 1,15,-1
 598 731 l 1,12,-1
612 333 m 0,16,17
 688 333 688 333 734.5 288.5 c 128,-1,18
 781 244 781 244 781 166 c 0,19,20
 781 84 781 84 736.5 36.5 c 128,-1,21
 692 -11 692 -11 609 -11 c 0,22,23
 535 -11 535 -11 488 37 c 128,-1,24
 441 85 441 85 441 160 c 0,25,26
 441 240 441 240 486.5 286.5 c 128,-1,27
 532 333 532 333 612 333 c 0,16,17
141 404 m 1,28,29
 141 383 141 383 154 363.5 c 128,-1,30
 167 344 167 344 188 344 c 0,31,32
 202 344 202 344 214 352.5 c 128,-1,33
 226 361 226 361 232.5 378 c 128,-1,34
 239 395 239 395 241.5 422.5 c 128,-1,35
 244 450 244 450 244 482 c 0,36,37
 244 502 244 502 243 521 c 128,-1,38
 242 540 242 540 239 562 c 128,-1,39
 236 584 236 584 224.5 602 c 128,-1,40
 213 620 213 620 190 620 c 0,41,42
 160 620 160 620 147 591 c 1,43,44
 140 566 140 566 137.5 542 c 128,-1,45
 135 518 135 518 135 482 c 0,46,47
 135 443 135 443 141 404 c 1,28,29
561 81 m 1,48,49
 561 60 561 60 574.5 41 c 128,-1,50
 588 22 588 22 610 22 c 0,51,52
 629 22 629 22 644.5 42.5 c 128,-1,53
 660 63 660 63 660 82 c 1,54,55
 664 117 664 117 664 160 c 0,56,57
 664 179 664 179 664 198 c 1,58,59
 661 225 661 225 659 243.5 c 128,-1,60
 657 262 657 262 645.5 280 c 128,-1,61
 634 298 634 298 611 298 c 0,62,63
 596 298 596 298 585 291 c 128,-1,64
 574 284 574 284 570 270 c 1,65,66
 562 250 562 250 559 224.5 c 128,-1,67
 556 199 556 199 556 174 c 2,68,-1
 556 160 l 2,69,70
 556 145 556 145 556.5 132 c 128,-1,71
 557 119 557 119 561 81 c 1,48,49
EndSplineSet
EndChar
StartChar: ampersand
Encoding: 38 38 6
Width: 701
Flags: HW
LayerCount: 2
Fore
SplineSet
228 -13 m 0
 175.333333333 -13 130.166666667 2 92.5 32 c 128
 54.8333333333 62 36 103 36 155 c 0
 36 203 51.6666666667 244.666666667 83 280 c 128
 114.333333333 315.333333333 154 342.666666667 202 362 c 1
 184 383.333333333 168.666666667 408.833333333 156 438.5 c 128
 143.333333333 468.166666667 137 495.666666667 137 521 c 0
 137 569 155.333333333 606 192 632 c 128
 228.666666667 658 272 671 322 671 c 0
 365.333333333 671 403.166666667 660.833333333 435.5 640.5 c 128
 467.833333333 620.166666667 484 589.333333333 484 548 c 0
 484 512.666666667 471.833333333 481.666666667 447.5 455 c 128
 423.166666667 428.333333333 392.666666667 406.666666667 356 390 c 1
 403.333333333 328 455 269 511 213 c 1
 531 238.333333333 549.5 268.5 566.5 303.5 c 128
 583.5 338.5 597.666666667 373.666666667 609 409 c 1
 616.333333333 395 624.666666667 382.833333333 634 372.5 c 128
 643.333333333 362.166666667 656.333333333 349.333333333 673 334 c 1
 651 297.333333333 631 266.833333333 613 242.5 c 128
 595 218.166666667 573.333333333 193.333333333 548 168 c 1
 572 140 595 113.666666667 617 89 c 128
 639 64.3333333333 661 41 683 19 c 1
 683 1 l 1
 653.666666667 3.66666666667 632.5 5.16666666667 619.5 5.5 c 128
 606.5 5.83333333333 596.333333333 6 589 6 c 0
 570.333333333 6 555.666666667 5.66666666667 545 5 c 128
 534.333333333 4.33333333333 518.333333333 3 497 1 c 1
 441 66 l 1
 409 41.3333333333 374.833333333 22 338.5 8 c 128
 302.166666667 -6 265.333333333 -13 228 -13 c 0
167 205 m 0
 167 171 179.666666667 141 205 115 c 128
 230.333333333 89 260 76 294 76 c 0
 314 76 332.333333333 79 349 85 c 128
 365.666666667 91 384.333333333 100 405 112 c 1
 360.333333333 164 326.5 204.166666667 303.5 232.5 c 128
 280.5 260.833333333 258.666666667 289.666666667 238 319 c 1
 216 303.666666667 198.666666667 287 186 269 c 128
 173.333333333 251 167 229.666666667 167 205 c 0
394 547 m 0
 394 567.666666667 388.166666667 584.833333333 376.5 598.5 c 128
 364.833333333 612.166666667 348.333333333 619 327 619 c 0
 318.333333333 619 310 617.666666667 302 615 c 1
 290 613 280.5 605.666666667 273.5 593 c 128
 266.5 580.333333333 263 567.333333333 263 554 c 0
 263 540 267.5 522.666666667 276.5 502 c 128
 285.5 481.333333333 301 457.333333333 323 430 c 1
 344.333333333 444.666666667 361.5 461.833333333 374.5 481.5 c 128
 387.5 501.166666667 394 523 394 547 c 0
EndSplineSet
EndChar
StartChar: quotesingle
Encoding: 39 39 8
Width: 270
Flags: W
LayerCount: 2
Fore
SplineSet
52 381 m 1,0,-1
 110 611 l 1,1,2
 115 640 115 640 133 661.5 c 128,-1,3
 151 683 151 683 177 683 c 0,4,5
 205 683 205 683 224 665 c 128,-1,6
 243 647 243 647 243 620 c 0,7,8
 243 596 243 596 227 574 c 2,9,-1
 81 369 l 1,10,-1
 52 381 l 1,0,-1
EndSplineSet
EndChar
StartChar: parenleft
Encoding: 40 40 9
Width: 323
Flags: W
LayerCount: 2
Fore
SplineSet
182 345 m 1,0,-1
 180 273 l 1,1,-1
 182 200 l 1,2,3
 182 116 182 116 209.5 39 c 128,-1,4
 237 -38 237 -38 290 -114 c 1,5,-1
 257 -145 l 1,6,7
 163 -58 163 -58 114.5 41.5 c 128,-1,8
 66 141 66 141 66 263 c 0,9,10
 66 390 66 390 114.5 492 c 128,-1,11
 163 594 163 594 259 683 c 1,12,-1
 291 652 l 1,13,14
 238 582 238 582 210 505 c 128,-1,15
 182 428 182 428 182 345 c 1,0,-1
EndSplineSet
EndChar
StartChar: parenright
Encoding: 41 41 10
Width: 323
Flags: W
LayerCount: 2
Fore
SplineSet
164 264 m 0,0,1
 164 375 164 375 138.5 472.5 c 128,-1,2
 113 570 113 570 55 652 c 1,3,-1
 87 683 l 1,4,5
 182 595 182 595 229 497.5 c 128,-1,6
 276 400 276 400 276 275 c 0,7,8
 276 145 276 145 229 45.5 c 128,-1,9
 182 -54 182 -54 83 -145 c 1,10,-1
 52 -114 l 1,11,12
 113 -35 113 -35 138.5 58.5 c 128,-1,13
 164 152 164 152 164 264 c 0,0,1
EndSplineSet
EndChar
StartChar: asterisk
Encoding: 42 42 11
Width: 492
Flags: W
LayerCount: 2
Fore
SplineSet
112 375 m 1,0,1
 101 396 101 396 93 411.5 c 128,-1,2
 85 427 85 427 66 457 c 1,3,4
 101 468 101 468 135 479 c 128,-1,5
 169 490 169 490 205 503 c 1,6,7
 175 516 175 516 138 528.5 c 128,-1,8
 101 541 101 541 66 551 c 1,9,10
 91 588 91 588 112 633 c 1,11,-1
 224 540 l 1,12,-1
 216 582 l 1,13,-1
 199 683 l 1,14,-1
 245 682 l 1,15,-1
 293 683 l 1,16,-1
 266 537 l 1,17,-1
 379 633 l 1,18,19
 399 592 399 592 424 551 c 1,20,21
 360 531 360 531 287 503 c 1,22,23
 318 490 318 490 353.5 478.5 c 128,-1,24
 389 467 389 467 424 457 c 1,25,26
 414 441 414 441 402 419 c 128,-1,27
 390 397 390 397 379 375 c 1,28,-1
 267 468 l 1,29,30
 275 418 275 418 281 380.5 c 128,-1,31
 287 343 287 343 292 319 c 1,32,-1
 244 321 l 1,33,-1
 198 319 l 1,34,-1
 224 468 l 1,35,-1
 112 375 l 1,0,1
EndSplineSet
EndChar
StartChar: plus
Encoding: 43 43 9
Width: 819
Flags: W
HStem: 0 21G<361 458> 245 96<122 361 458 697>
VStem: 361 97<0 245 341 585>
LayerCount: 2
Fore
SplineSet
458 585 m 1
 458 341 l 1
 697 341 l 1
 697 245 l 1
 458 245 l 1
 458 0 l 1
 361 0 l 1
 361 245 l 1
 122 245 l 1
 122 341 l 1
 361 341 l 1
 361 585 l 1
 458 585 l 1
EndSplineSet
EndChar
StartChar: comma
Encoding: 44 44 13
Width: 270
Flags: W
LayerCount: 2
Fore
SplineSet
79 87 m 2,0,1
 86 121 86 121 105.5 146 c 128,-1,2
 125 171 125 171 157 171 c 0,3,4
 187 171 187 171 208.5 149.5 c 128,-1,5
 230 128 230 128 230 98 c 0,6,7
 230 85 230 85 225.5 73 c 128,-1,8
 221 61 221 61 212 46 c 1,9,-1
 45 -183 l 1,10,-1
 18 -172 l 1,11,-1
 79 87 l 2,0,1
EndSplineSet
EndChar
StartChar: hyphen
Encoding: 45 45 14
Width: 322
Flags: W
LayerCount: 2
Fore
SplineSet
48 241 m 0,0,1
 48 254 48 254 45.5 276.5 c 128,-1,2
 43 299 43 299 43 304 c 1,3,-1
 279 304 l 1,4,-1
 274 240 l 1,5,-1
 279 178 l 1,6,-1
 43 178 l 1,7,8
 43 191 43 191 45.5 213.5 c 128,-1,9
 48 236 48 236 48 241 c 0,0,1
EndSplineSet
EndChar
StartChar: period
Encoding: 46 46 15
Width: 270
Flags: W
LayerCount: 2
Fore
SplineSet
135 159 m 0,0,1
 166 159 166 159 193 134 c 128,-1,2
 220 109 220 109 220 75 c 0,3,4
 220 44 220 44 194.5 16.5 c 128,-1,5
 169 -11 169 -11 135 -11 c 0,6,7
 99 -11 99 -11 74 13 c 128,-1,8
 49 37 49 37 49 74 c 0,9,10
 49 109 49 109 74 134 c 128,-1,11
 99 159 99 159 135 159 c 0,0,1
EndSplineSet
EndChar
StartChar: slash
Encoding: 47 47 13
Width: 276
Flags: W
HStem: 717 20G<237.527 302>
VStem: -24 326
LayerCount: 2
Fore
SplineSet
244 737 m 1
 302 737 l 1
 34 -91 l 1
 -24 -91 l 1
 244 737 l 1
EndSplineSet
EndChar
StartChar: zero
Encoding: 48 48 14
Width: 539
Flags: W
HStem: -14 54<220.018 316.105> 599 56<217.438 315.439>
VStem: 25 162<143.396 480.211> 347 164<151.487 495.326>
LayerCount: 2
Fore
SplineSet
265 -14 m 0
 173 -14 110 15.6666666667 76 75 c 0
 42 134.333333333 25 214 25 314 c 256
 25 414 43 495.833333333 79 559.5 c 0
 115 623.166666667 179.333333333 655 272 655 c 0
 366 655 429.333333333 625 462 565 c 0
 494.666666667 505 511 423 511 319 c 0
 511 219.666666667 493.333333333 139.333333333 458 78 c 0
 422.666666667 16.6666666667 358.333333333 -14 265 -14 c 0
187 322 m 0
 187 290.666666667 187.333333333 262.666666667 188 238 c 0
 188.666666667 213.333333333 190.666666667 185.166666667 194 153.5 c 0
 197.333333333 121.833333333 203.833333333 95 213.5 73 c 0
 223.166666667 51 242 40 270 40 c 0
 296.666666667 40 315.666666667 52.5 327 77.5 c 0
 338.333333333 102.5 344 129.666666667 344 159 c 1
 344.666666667 175 345.666666667 191 347 207 c 1
 348.333333333 244.333333333 349 285.333333333 349 330 c 0
 349 370.666666667 348.333333333 402.333333333 347 425 c 0
 345.666666667 447.666666667 344.666666667 465.666666667 344 479 c 1
 344 509 338.166666667 536.5 326.5 561.5 c 0
 314.833333333 586.5 295.666666667 599 269 599 c 0
 233.666666667 599 211.666666667 583 203 551 c 0
 194.333333333 519 190 479 190 431 c 0
 190 413 189.5 390.5 188.5 363.5 c 0
 187.5 336.5 187 322.666666667 187 322 c 0
EndSplineSet
EndChar
StartChar: one
Encoding: 49 49 15
Width: 539
Flags: W
HStem: 0 21G<190 190.667 276 362> 480 21G<67.9841 95.3333> 657 20G<296.667 359>
VStem: 194.5 160.5<5.82324 538>
LayerCount: 2
Fore
SplineSet
199 444 m 0
 199 454 198.333333333 469.333333333 197 490 c 0
 195.666666667 510.666666667 195 526.666666667 195 538 c 1
 172.333333333 528 154.833333333 519.833333333 142.5 513.5 c 0
 130.166666667 507.166666667 109.666666667 496 81 480 c 1
 40 543 l 1
 153.333333333 588.333333333 253.333333333 633 340 677 c 1
 359 668 l 1
 355 326 l 1
 355 334 l 1
 355 146 l 1
 355 155 l 2
 355 137 356.166666667 109.833333333 358.5 73.5 c 0
 360.833333333 37.1666666667 362 12.6666666667 362 0 c 1
 276 4 l 2
 266 4 249.5 3.33333333333 226.5 2 c 0
 203.5 0.666666666667 191.333333333 0 190 0 c 1
 190 61.3333333333 191.5 147.666666667 194.5 259 c 0
 197.5 370.333333333 199 432 199 444 c 0
EndSplineSet
EndChar
StartChar: two
Encoding: 50 50 16
Width: 539
Flags: HW
LayerCount: 2
Fore
SplineSet
24 54 m 1
 81.3333333333 98.6666666667 130.333333333 140.5 171 179.5 c 128
 211.666666667 218.5 246 262.333333333 274 311 c 128
 302 359.666666667 316 412.666666667 316 470 c 0
 316 504 310.166666667 532.833333333 298.5 556.5 c 128
 286.833333333 580.166666667 265.666666667 592 235 592 c 0
 199.666666667 592 174.5 578.833333333 159.5 552.5 c 128
 144.5 526.166666667 132.333333333 490 123 444 c 1
 112 444 l 1
 89.3333333333 480 62.6666666667 510.333333333 32 535 c 1
 61.3333333333 573.666666667 96.1666666667 603.5 136.5 624.5 c 128
 176.833333333 645.5 221 656 269 656 c 0
 330.333333333 656 381.666666667 640.666666667 423 610 c 128
 464.333333333 579.333333333 485 534 485 474 c 0
 485 421.333333333 472.166666667 378.5 446.5 345.5 c 128
 420.833333333 312.5 345 244.333333333 219 141 c 1
 310 140 l 1
 399 141 l 1
 509 145 l 1
 501 119.666666667 497 94 497 68 c 0
 497 54.6666666667 498.666666667 41.3333333333 502 28 c 128
 507 8 507 8 509 0 c 1
 472.333333333 0 426.333333333 0.833333333333 371 2.5 c 128
 315.666666667 4.16666666667 283.333333333 5 274 5 c 0
 236.666666667 5 189 4.16666666667 131 2.5 c 128
 73 0.833333333333 40 0 32 0 c 1
 24 54 l 1
EndSplineSet
EndChar
StartChar: three
Encoding: 51 51 20
Width: 539
Flags: W
LayerCount: 2
Fore
SplineSet
263 654 m 0,0,1
 345 654 345 654 404 615 c 128,-1,2
 463 576 463 576 463 498 c 0,3,4
 463 441 463 441 427.5 407 c 128,-1,5
 392 373 392 373 329 350 c 1,6,-1
 329 343 l 1,7,8
 400 334 400 334 445 295.5 c 128,-1,9
 490 257 490 257 490 188 c 0,10,11
 490 88 490 88 413 36.5 c 128,-1,12
 336 -15 336 -15 230 -15 c 0,13,14
 112 -15 112 -15 22 42 c 1,15,16
 49 87 49 87 65.5 116.5 c 128,-1,17
 82 146 82 146 99 180 c 1,18,-1
 111 180 l 1,19,20
 111 121 111 121 133.5 79 c 128,-1,21
 156 37 156 37 211 37 c 0,22,23
 265 37 265 37 292 79 c 128,-1,24
 319 121 319 121 319 177 c 0,25,26
 319 236 319 236 287 271 c 128,-1,27
 255 306 255 306 196 306 c 1,28,-1
 167 305 l 1,29,-1
 167 364 l 1,30,-1
 194 363 l 1,31,32
 249 363 249 363 282.5 395.5 c 128,-1,33
 316 428 316 428 316 483 c 0,34,35
 316 532 316 532 294 566 c 128,-1,36
 272 600 272 600 226 600 c 0,37,38
 176 600 176 600 154 559 c 128,-1,39
 132 518 132 518 132 464 c 1,40,-1
 123 457 l 1,41,42
 105 479 105 479 87.5 497.5 c 128,-1,43
 70 516 70 516 31 553 c 1,44,45
 68 605 68 605 129.5 629.5 c 128,-1,46
 191 654 191 654 263 654 c 0,0,1
EndSplineSet
EndChar
StartChar: four
Encoding: 52 52 18
Width: 539
Flags: W
HStem: 0 21G<278.333 279 429.667 434> 158 108<102 284 428 504.75>
VStem: 284 144<5.45508 158 266 539.594>
LayerCount: 2
Fore
SplineSet
510 275 m 1
 505 215 l 1
 505 201.666666667 505.666666667 189.5 507 178.5 c 0
 508.333333333 167.5 509.333333333 158.666666667 510 152 c 1
 482 156 454 158 426 158 c 1
 426 126 l 2
 426 102.666666667 426.666666667 80.6666666667 428 60 c 0
 429.333333333 39.3333333333 432 19.3333333333 436 0 c 1
 423.333333333 0 407.666666667 0.833333333333 389 2.5 c 0
 370.333333333 4.16666666667 360 5 358 5 c 0
 346.666666667 5 331.333333333 4.16666666667 312 2.5 c 0
 292.666666667 0.833333333333 281 0 277 0 c 1
 279.666666667 21.3333333333 281.666666667 46.5 283 75.5 c 0
 284.333333333 104.5 285 132 285 158 c 1
 223 159 l 2
 200.333333333 159 166.666666667 157.833333333 122 155.5 c 0
 77.3333333333 153.166666667 47 152 31 152 c 1
 32 213 l 1
 31 273 l 1
 64.3333333333 320.333333333 95.5 365.666666667 124.5 409 c 0
 153.5 452.333333333 180.333333333 493.166666667 205 531.5 c 0
 229.666666667 569.833333333 255.666666667 610.666666667 283 654 c 1
 306.333333333 651.333333333 332.333333333 650 361 650 c 0
 379 650 379 650 398 650 c 1
 415.333333333 652 428 653.333333333 436 654 c 1
 436 622.666666667 434.666666667 577.333333333 432 518 c 0
 429.333333333 458.666666667 428 414 428 384 c 2
 428 266 l 1
 438.666666667 266 452.666666667 267.166666667 470 269.5 c 0
 487.333333333 271.833333333 500.666666667 273.666666667 510 275 c 1
284 266 m 1
 284 541 l 1
 102 266 l 1
 284 266 l 1
EndSplineSet
EndChar
StartChar: five
Encoding: 53 53 22
Width: 539
Flags: W
LayerCount: 2
Fore
SplineSet
204 43 m 256,0,1
 259 43 259 43 285.5 85 c 128,-1,2
 312 127 312 127 312 186 c 0,3,4
 312 240 312 240 291 282 c 128,-1,5
 270 324 270 324 221 324 c 0,6,7
 171 324 171 324 132 280 c 1,8,-1
 85 305 l 1,9,10
 91 337 91 337 92.5 378.5 c 128,-1,11
 94 420 94 420 94 437 c 0,12,13
 94 493 94 493 90.5 539.5 c 128,-1,14
 87 586 87 586 78 632 c 1,15,-1
 85 639 l 1,16,17
 125 639 125 639 193 635.5 c 128,-1,18
 261 632 261 632 279 632 c 0,19,20
 374 632 374 632 457 639 c 1,21,-1
 454 571 l 1,22,23
 454 532 454 532 458 501 c 1,24,25
 417 501 417 501 344.5 505.5 c 128,-1,26
 272 510 272 510 263 510 c 2,27,-1
 162 508 l 1,28,29
 153 437 153 437 153 361 c 1,30,31
 217 392 217 392 287 392 c 0,32,33
 369 392 369 392 425.5 344 c 128,-1,34
 482 296 482 296 482 215 c 0,35,36
 482 100 482 100 402.5 42.5 c 128,-1,37
 323 -15 323 -15 202 -15 c 0,38,39
 160 -15 160 -15 112.5 -5.5 c 128,-1,40
 65 4 65 4 33 23 c 1,41,42
 53 61 53 61 67.5 96 c 128,-1,43
 82 131 82 131 93 171 c 1,44,-1
 108 171 l 1,45,46
 108 114 108 114 128.5 78.5 c 128,-1,47
 149 43 149 43 204 43 c 256,0,1
EndSplineSet
EndChar
StartChar: six
Encoding: 54 54 23
Width: 539
Flags: W
LayerCount: 2
Fore
SplineSet
334 393 m 0,0,1
 415 393 415 393 465.5 342.5 c 128,-1,2
 516 292 516 292 516 211 c 0,3,4
 516 108 516 108 453 47 c 128,-1,5
 390 -14 390 -14 287 -14 c 0,6,7
 163 -14 163 -14 96 60.5 c 128,-1,8
 29 135 29 135 29 261 c 0,9,10
 29 425 29 425 115.5 540.5 c 128,-1,11
 202 656 202 656 361 656 c 0,12,13
 392 656 392 656 419.5 650.5 c 128,-1,14
 447 645 447 645 483 633 c 1,15,16
 478 609 478 609 474 585 c 128,-1,17
 470 561 470 561 470 539 c 1,18,-1
 464 538 l 1,19,20
 441 565 441 565 417.5 579.5 c 128,-1,21
 394 594 394 594 362 594 c 0,22,23
 276 594 276 594 238 516 c 128,-1,24
 200 438 200 438 200 342 c 1,25,26
 223 368 223 368 259 380.5 c 128,-1,27
 295 393 295 393 334 393 c 0,0,1
277 323 m 256,28,29
 230 323 230 323 216 283 c 128,-1,30
 202 243 202 243 202 185 c 0,31,32
 202 125 202 125 215.5 81 c 128,-1,33
 229 37 229 37 276 37 c 0,34,35
 324 37 324 37 338.5 79.5 c 128,-1,36
 353 122 353 122 353 184 c 0,37,38
 353 243 353 243 338.5 283 c 128,-1,39
 324 323 324 323 277 323 c 256,28,29
EndSplineSet
EndChar
StartChar: seven
Encoding: 55 55 24
Width: 539
Flags: W
LayerCount: 2
Fore
SplineSet
240 247 m 1,0,-1
 395 496 l 1,1,2
 368 496 368 496 316 499 c 128,-1,3
 264 502 264 502 237 502 c 0,4,5
 196 502 196 502 159.5 500 c 128,-1,6
 123 498 123 498 71 496 c 1,7,8
 75 529 75 529 75.5 543.5 c 128,-1,9
 76 558 76 558 76 567 c 0,10,11
 76 582 76 582 73.5 608 c 128,-1,12
 71 634 71 634 71 639 c 1,13,-1
 289 636 l 1,14,-1
 534 639 l 1,15,-1
 547 612 l 1,16,17
 354 326 354 326 225 0 c 1,18,-1
 156 1 l 1,19,-1
 76 0 l 1,20,-1
 69 13 l 1,21,22
 128 86 128 86 165 135 c 128,-1,23
 202 184 202 184 240 247 c 1,0,-1
EndSplineSet
EndChar
StartChar: eight
Encoding: 56 56 25
Width: 539
Flags: W
LayerCount: 2
Fore
SplineSet
369 355 m 1,0,1
 432 340 432 340 472 297 c 128,-1,2
 512 254 512 254 512 192 c 0,3,4
 512 93 512 93 438 39 c 128,-1,5
 364 -15 364 -15 260 -15 c 0,6,7
 166 -15 166 -15 95.5 36.5 c 128,-1,8
 25 88 25 88 25 179 c 0,9,10
 25 246 25 246 64.5 293 c 128,-1,11
 104 340 104 340 170 355 c 1,12,-1
 170 362 l 1,13,14
 119 372 119 372 85.5 409.5 c 128,-1,15
 52 447 52 447 52 497 c 0,16,17
 52 578 52 578 120 616 c 128,-1,18
 188 654 188 654 276 654 c 0,19,20
 360 654 360 654 422 617.5 c 128,-1,21
 484 581 484 581 484 502 c 0,22,23
 484 448 484 448 453.5 413.5 c 128,-1,24
 423 379 423 379 369 362 c 1,25,-1
 369 355 l 1,0,1
270 380 m 0,26,27
 312 380 312 380 329.5 412.5 c 128,-1,28
 347 445 347 445 347 493 c 0,29,30
 347 539 347 539 330.5 570.5 c 128,-1,31
 314 602 314 602 272 602 c 0,32,33
 229 602 229 602 210 570 c 128,-1,34
 191 538 191 538 191 492 c 0,35,36
 191 448 191 448 210.5 414 c 128,-1,37
 230 380 230 380 270 380 c 0,26,27
267 40 m 0,38,39
 317 40 317 40 335 85 c 128,-1,40
 353 130 353 130 353 187 c 0,41,42
 353 242 353 242 336 285.5 c 128,-1,43
 319 329 319 329 274 329 c 0,44,45
 227 329 227 329 206 283 c 128,-1,46
 185 237 185 237 185 185 c 0,47,48
 185 126 185 126 201.5 83 c 128,-1,49
 218 40 218 40 267 40 c 0,38,39
EndSplineSet
EndChar
StartChar: nine
Encoding: 57 57 23
Width: 539
Flags: W
HStem: -15 61<107.872 250.975> 247 70<175.667 301.134> 603 53<208.88 308.48>
VStem: 22 163<343.288 536.202> 335 173<222.971 505.67>
LayerCount: 2
Fore
SplineSet
203 247 m 0
 148.333333333 247 104.5 264.166666667 71.5 298.5 c 0
 38.5 332.833333333 22 377.666666667 22 433 c 0
 22 501.666666667 44 556 88 596 c 0
 132 636 189 656 259 656 c 0
 342.333333333 656 404.666666667 629.833333333 446 577.5 c 0
 487.333333333 525.166666667 508 456.333333333 508 371 c 0
 508 263.666666667 478.833333333 172.5 420.5 97.5 c 0
 362.166666667 22.5 280.666666667 -15 176 -15 c 0
 152 -15 131.5 -13 114.5 -9 c 0
 97.5 -5 77.3333333333 0.333333333333 54 7 c 1
 58 23 61.1666666667 38.6666666667 63.5 54 c 0
 65.8333333333 69.3333333333 67 85 67 101 c 1
 74 103 l 1
 86 85 100.666666667 71 118 61 c 0
 135.333333333 51 154.666666667 46 176 46 c 0
 233.333333333 46 274.5 72 299.5 124 c 0
 324.5 176 337 234 337 298 c 1
 321.666666667 280 302.333333333 267 279 259 c 0
 255.666666667 251 230.333333333 247 203 247 c 0
259 317 m 0
 290.333333333 317 310.833333333 330.333333333 320.5 357 c 0
 330.166666667 383.666666667 335 416 335 454 c 0
 335 494.666666667 330.333333333 529.666666667 321 559 c 0
 311.666666667 588.333333333 291.333333333 603 260 603 c 0
 228 603 207.5 589 198.5 561 c 0
 189.5 533 185 497.666666667 185 455 c 0
 185 417.666666667 189.833333333 385.333333333 199.5 358 c 0
 209.166666667 330.666666667 229 317 259 317 c 0
EndSplineSet
EndChar
StartChar: colon
Encoding: 58 58 24
Width: 322
Flags: W
HStem: -11 170<104.164 217.458> 300 171<104.164 216.055>
VStem: 76 171<18.7754 129.225 329.767 440.046>
LayerCount: 2
Fore
SplineSet
161 159 m 256
 184.333333333 159 204.5 150.5 221.5 133.5 c 0
 238.5 116.5 247 96.6666666667 247 74 c 0
 247 50.6666666667 238.333333333 30.6666666667 221 14 c 0
 203.666666667 -2.66666666667 183.666666667 -11 161 -11 c 0
 137.666666667 -11 117.666666667 -3 101 13 c 0
 84.3333333333 29 76 49.3333333333 76 74 c 0
 76 97.3333333333 84.3333333333 117.333333333 101 134 c 0
 117.666666667 150.666666667 137.666666667 159 161 159 c 256
161 471 m 0
 183.666666667 471 203.666666667 462.333333333 221 445 c 0
 238.333333333 427.666666667 247 407.333333333 247 384 c 0
 247 361.333333333 238.333333333 341.666666667 221 325 c 0
 203.666666667 308.333333333 183.666666667 300 161 300 c 0
 137.666666667 300 117.666666667 308 101 324 c 0
 84.3333333333 340 76 360.333333333 76 385 c 0
 76 409 84.3333333333 429.333333333 101 446 c 0
 117.666666667 462.666666667 137.666666667 471 161 471 c 0
EndSplineSet
EndChar
StartChar: semicolon
Encoding: 59 59 28
Width: 322
Flags: W
LayerCount: 2
Fore
SplineSet
163 471 m 256,0,1
 198 471 198 471 224 446 c 128,-1,2
 250 421 250 421 250 385 c 0,3,4
 250 350 250 350 225 325 c 128,-1,5
 200 300 200 300 164 300 c 256,6,7
 128 300 128 300 103 324 c 128,-1,8
 78 348 78 348 78 385 c 0,9,10
 78 421 78 421 103 446 c 128,-1,11
 128 471 128 471 163 471 c 256,0,1
97 87 m 2,12,13
 105 123 105 123 124.5 147 c 128,-1,14
 144 171 144 171 176 171 c 0,15,16
 205 171 205 171 226 150 c 128,-1,17
 247 129 247 129 247 99 c 0,18,19
 247 84 247 84 243 72.5 c 128,-1,20
 239 61 239 61 230 46 c 1,21,-1
 64 -183 l 1,22,-1
 37 -172 l 1,23,-1
 97 87 l 2,12,13
EndSplineSet
EndChar
StartChar: less
Encoding: 60 60 29
Width: 819
Flags: W
LayerCount: 2
Fore
SplineSet
691 468 m 1,0,-1
 262 293 l 1,1,-1
 691 118 l 1,2,-1
 691 13 l 1,3,-1
 126 245 l 1,4,-1
 126 340 l 1,5,-1
 691 573 l 1,6,-1
 691 468 l 1,0,-1
EndSplineSet
EndChar
StartChar: equal
Encoding: 61 61 30
Width: 819
Flags: W
LayerCount: 2
Fore
SplineSet
697 443 m 1,0,-1
 697 349 l 1,1,-1
 122 349 l 1,2,-1
 122 443 l 1,3,-1
 697 443 l 1,0,-1
697 237 m 1,4,-1
 697 141 l 1,5,-1
 122 141 l 1,6,-1
 122 237 l 1,7,-1
 697 237 l 1,4,-1
EndSplineSet
EndChar
StartChar: greater
Encoding: 62 62 28
Width: 819
Flags: W
LayerCount: 2
Fore
SplineSet
692 340 m 1
 692 245 l 1
 126 13 l 1
 126 118 l 1
 556 293 l 1
 126 468 l 1
 126 573 l 1
 692 340 l 1
EndSplineSet
EndChar
StartChar: question
Encoding: 63 63 32
Width: 430
Flags: W
LayerCount: 2
Fore
SplineSet
213 159 m 0,0,1
 245 159 245 159 271.5 134.5 c 128,-1,2
 298 110 298 110 298 75 c 0,3,4
 298 44 298 44 272.5 16.5 c 128,-1,5
 247 -11 247 -11 213 -11 c 0,6,7
 177 -11 177 -11 151.5 13.5 c 128,-1,8
 126 38 126 38 126 74 c 0,9,10
 126 105 126 105 152 132 c 128,-1,11
 178 159 178 159 213 159 c 0,0,1
312 208 m 1,12,13
 296 202 296 202 272 200 c 128,-1,14
 248 198 248 198 244 198 c 0,15,16
 188 198 188 198 145 237 c 128,-1,17
 102 276 102 276 102 331 c 0,18,19
 102 382 102 382 171.5 446.5 c 128,-1,20
 241 511 241 511 241 560 c 0,21,22
 241 585 241 585 223.5 603.5 c 128,-1,23
 206 622 206 622 182 622 c 0,24,25
 152 622 152 622 126 604 c 128,-1,26
 100 586 100 586 86 558 c 1,27,-1
 73 560 l 1,28,29
 73 607 73 607 67 642 c 1,30,31
 131 683 131 683 212 683 c 0,32,33
 285 683 285 683 336.5 641 c 128,-1,34
 388 599 388 599 388 526 c 0,35,36
 388 464 388 464 309 399 c 128,-1,37
 230 334 230 334 230 293 c 0,38,39
 230 272 230 272 243.5 261.5 c 128,-1,40
 257 251 257 251 278 251 c 0,41,42
 290 251 290 251 303 254 c 128,-1,43
 316 257 316 257 323 258 c 1,44,-1
 312 208 l 1,12,13
EndSplineSet
EndChar
StartChar: at
Encoding: 64 64 33
Width: 983
Flags: W
LayerCount: 2
Fore
SplineSet
419 52 m 0,0,1
 343 52 343 52 302 95 c 128,-1,2
 261 138 261 138 261 215 c 0,3,4
 261 315 261 315 328 399.5 c 128,-1,5
 395 484 395 484 493 484 c 0,6,7
 529 484 529 484 556 468.5 c 128,-1,8
 583 453 583 453 608 422 c 1,9,-1
 632 470 l 1,10,-1
 719 470 l 1,11,-1
 647 183 l 1,12,-1
 644 165 l 1,13,14
 644 148 644 148 657.5 139 c 128,-1,15
 671 130 671 130 690 130 c 0,16,17
 761 130 761 130 806.5 208.5 c 128,-1,18
 852 287 852 287 852 363 c 0,19,20
 852 481 852 481 763.5 556 c 128,-1,21
 675 631 675 631 556 631 c 0,22,23
 379 631 379 631 255.5 529.5 c 128,-1,24
 132 428 132 428 132 254 c 0,25,26
 132 101 132 101 236 14.5 c 128,-1,27
 340 -72 340 -72 497 -72 c 0,28,29
 571 -72 571 -72 647.5 -48 c 128,-1,30
 724 -24 724 -24 787 18 c 1,31,-1
 824 -37 l 1,32,33
 681 -147 681 -147 497 -147 c 0,34,35
 310 -147 310 -147 176.5 -39.5 c 128,-1,36
 43 68 43 68 43 251 c 0,37,38
 43 447 43 447 189 579 c 128,-1,39
 335 711 335 711 533 711 c 0,40,41
 695 711 695 711 817.5 616.5 c 128,-1,42
 940 522 940 522 940 364 c 0,43,44
 940 245 940 245 861 148.5 c 128,-1,45
 782 52 782 52 663 52 c 2,46,-1
 645 52 l 2,47,48
 610 52 610 52 590 65 c 128,-1,49
 570 78 570 78 560 130 c 1,50,51
 533 92 533 92 498.5 72 c 128,-1,52
 464 52 464 52 419 52 c 0,0,1
500 416 m 0,53,54
 433 416 433 416 398.5 351 c 128,-1,55
 364 286 364 286 364 212 c 0,56,57
 364 177 364 177 384 149.5 c 128,-1,58
 404 122 404 122 437 122 c 0,59,60
 482 122 482 122 513.5 153.5 c 128,-1,61
 545 185 545 185 557 232 c 2,62,-1
 583 336 l 1,63,64
 580 371 580 371 557.5 393.5 c 128,-1,65
 535 416 535 416 500 416 c 0,53,54
EndSplineSet
EndChar
StartChar: A
Encoding: 65 65 31
Width: 597
Flags: HW
AnchorPoint: "tails" 516 3 basechar 0
AnchorPoint: "circum" 303 690 basechar 0
AnchorPoint: "above" 303 742 basechar 0
LayerCount: 2
Fore
SplineSet
79 232 m 2
 95 269.333333333 115.166666667 319.166666667 139.5 381.5 c 128
 163.833333333 443.833333333 184.166666667 497 200.5 541 c 128
 216.833333333 585 234.333333333 632.333333333 253 683 c 1
 303 680 l 1
 353 683 l 1
 398.333333333 556.333333333 442 436.666666667 484 324 c 128
 526 211.333333333 568.666666667 103.333333333 612 0 c 1
 516 3 l 1
 418 0 l 1
 397 66 l 1
 358 187 l 1
 334.666666667 187 311 187.333333333 287 188 c 128
 263 188.666666667 239.333333333 189.333333333 216 190 c 1
 146 187 l 1
 126.666666667 127 105 64.6666666667 81 0 c 1
 16 3 l 1
 -21 0 l 1
 79 232 l 2
255 265 m 1
 334 267 l 1
 322.666666667 304.333333333 311.333333333 338 300 368 c 128
 288.666666667 398 274 434.333333333 256 477 c 1
 227.333333333 408.333333333 200.333333333 338.333333333 175 267 c 1
 255 265 l 1
EndSplineSet
EndChar
StartChar: B
Encoding: 66 66 32
Width: 587
Flags: HW
LayerCount: 2
Fore
SplineSet
78 150 m 2
 79 335 l 2
 79 402.333333333 78.1666666667 462.166666667 76.5 514.5 c 128
 74.8333333333 566.833333333 71.3333333333 619 66 671 c 1
 181 669 l 1
 301 671 l 1
 369.666666667 671 426.833333333 659.666666667 472.5 637 c 128
 518.166666667 614.333333333 541 572.333333333 541 511 c 0
 541 468.333333333 527 434.5 499 409.5 c 128
 471 384.5 435 369.333333333 391 364 c 1
 391 355 l 1
 436.333333333 355 475.333333333 340.666666667 508 312 c 128
 540.666666667 283.333333333 557 246 557 200 c 0
 557 133.333333333 534.333333333 83.3333333333 489 50 c 128
 443.666666667 16.6666666667 386 0 316 0 c 1
 181 3 l 2
 162.333333333 3 138.666666667 2.5 110 1.5 c 128
 81.3333333333 0.5 66.6666666667 0 66 0 c 1
 68.6666666667 24.6666666667 71.3333333333 49.8333333333 74 75.5 c 128
 76.6666666667 101.166666667 78 126 78 150 c 2
374 503 m 0
 374 534.333333333 364.666666667 559.666666667 346 579 c 128
 327.333333333 598.333333333 302.333333333 608 271 608 c 1
 243 605 l 1
 239 569.666666667 237 533 237 495 c 2
 237 389 l 1
 277 389 309.833333333 398.333333333 335.5 417 c 128
 361.166666667 435.666666667 374 464.333333333 374 503 c 0
275 63 m 1
 308.333333333 63 334.666666667 75 354 99 c 128
 373.333333333 123 383 152 383 186 c 0
 383 224.666666667 371.833333333 256.833333333 349.5 282.5 c 128
 327.166666667 308.166666667 297.333333333 321 260 321 c 1
 239 320 l 1
 239 199 l 1
 242 66 l 1
 275 63 l 1
EndSplineSet
EndChar
StartChar: C
Encoding: 67 67 35
Width: 648
Flags: HW
LayerCount: 2
Fore
SplineSet
423 616 m 0
 353 616 299.166666667 589.166666667 261.5 535.5 c 128
 223.833333333 481.833333333 205 418.333333333 205 345 c 0
 205 269.666666667 223.333333333 203.166666667 260 145.5 c 128
 296.666666667 87.8333333333 350.666666667 59 422 59 c 0
 461.333333333 59 498.333333333 65.5 533 78.5 c 128
 567.666666667 91.5 595.333333333 112 616 140 c 1
 632 133 l 1
 627.333333333 117.666666667 623.333333333 102.333333333 620 87 c 128
 616.666666667 71.6666666667 613 53.6666666667 609 33 c 1
 580.333333333 17 547.833333333 5.33333333333 511.5 -2 c 128
 475.166666667 -9.33333333333 438 -13 400 -13 c 0
 290 -13 201 17.5 133 78.5 c 128
 65 139.5 31 224.666666667 31 334 c 0
 31 442.666666667 66.5 528 137.5 590 c 128
 208.5 652 299.333333333 683 410 683 c 0
 450 683 486.833333333 679 520.5 671 c 128
 554.166666667 663 594.666666667 649.666666667 642 631 c 1
 636 613.666666667 629.833333333 593.666666667 623.5 571 c 128
 617.166666667 548.333333333 612.333333333 528.333333333 609 511 c 1
 595 511 l 1
 581.666666667 545 559.5 571 528.5 589 c 128
 497.5 607 462.333333333 616 423 616 c 0
EndSplineSet
EndChar
StartChar: D
Encoding: 68 68 37
Width: 743
Flags: W
LayerCount: 2
Fore
SplineSet
75 159 m 2,0,-1
 76 335 l 2,1,2
 76 468 76 468 73.5 534.5 c 128,-1,3
 71 601 71 601 64 671 c 1,4,-1
 156 668 l 1,5,-1
 204 669 l 1,6,-1
 319 671 l 2,7,8
 352 671 352 671 384 670 c 128,-1,9
 416 669 416 669 449 668 c 1,10,11
 579 656 579 656 645.5 573.5 c 128,-1,12
 712 491 712 491 712 357 c 0,13,14
 712 159 712 159 600.5 79 c 128,-1,15
 489 -1 489 -1 282 -1 c 1,16,-1
 146 1 l 1,17,-1
 64 -1 l 1,18,19
 68 43 68 43 71.5 85.5 c 128,-1,20
 75 128 75 128 75 159 c 2,0,-1
300 66 m 0,21,22
 419 66 419 66 476 140.5 c 128,-1,23
 533 215 533 215 533 338 c 0,24,25
 533 471 533 471 479 537.5 c 128,-1,26
 425 604 425 604 295 604 c 1,27,-1
 242 602 l 1,28,-1
 239 435 l 1,29,-1
 241 73 l 1,30,31
 255 70 255 70 270 68 c 128,-1,32
 285 66 285 66 300 66 c 0,21,22
EndSplineSet
EndChar
StartChar: E
Encoding: 69 69 35
Width: 506
Flags: HW
AnchorPoint: "circum" 293 742 basechar 0
AnchorPoint: "above" 293 742 basechar 0
LayerCount: 2
Fore
SplineSet
78 160 m 2
 79 335 l 2
 79 409.666666667 78.1666666667 468.5 76.5 511.5 c 128
 74.8333333333 554.5 71.3333333333 607.666666667 66 671 c 1
 258 667 l 2
 281.333333333 667 320.5 667.666666667 375.5 669 c 128
 430.5 670.333333333 460.333333333 671 465 671 c 1
 463.666666667 663.666666667 462.666666667 656.833333333 462 650.5 c 128
 461.333333333 644.166666667 461 636.666666667 461 628 c 0
 461 620.666666667 461.166666667 615 461.5 611 c 128
 461.833333333 607 463 597.666666667 465 583 c 1
 447 583 419.666666667 584.333333333 383 587 c 128
 346.333333333 589.666666667 318.666666667 591 300 591 c 2
 245 590 l 1
 242 393 l 1
 458 401 l 1
 456.666666667 393.666666667 455.666666667 386.666666667 455 380 c 128
 454.333333333 373.333333333 454 365.333333333 454 356 c 2
 457 310 l 1
 427.666666667 310 386.166666667 311.5 332.5 314.5 c 128
 278.833333333 317.5 248.666666667 319 242 319 c 1
 242 213 l 2
 242 197.666666667 242.666666667 172.166666667 244 136.5 c 128
 245.333333333 100.833333333 246 82.3333333333 246 81 c 1
 318 81 389.666666667 85 461 93 c 1
 458 46 l 1
 461 0 l 1
 424.333333333 0 375.166666667 0.833333333333 313.5 2.5 c 128
 251.833333333 4.16666666667 214.666666667 5 202 5 c 0
 181.333333333 5 155 4.16666666667 123 2.5 c 128
 91 0.833333333333 72 0 66 0 c 1
 68.6666666667 26 71.3333333333 53.5 74 82.5 c 128
 76.6666666667 111.5 78 137.333333333 78 160 c 2
EndSplineSet
EndChar
StartChar: F
Encoding: 70 70 39
Width: 494
Flags: W
LayerCount: 2
Fore
SplineSet
79 335 m 0,0,1
 79 447 79 447 76.5 511.5 c 128,-1,2
 74 576 74 576 66 671 c 1,3,-1
 258 667 l 2,4,5
 293 667 293 667 375.5 669 c 128,-1,6
 458 671 458 671 465 671 c 1,7,-1
 460 628 l 1,8,9
 460 608 460 608 465 583 c 1,10,11
 438 583 438 583 379 587 c 128,-1,12
 320 591 320 591 301 591 c 2,13,-1
 246 590 l 1,14,15
 246 560 246 560 244 477.5 c 128,-1,16
 242 395 242 395 242 393 c 1,17,-1
 457 401 l 1,18,-1
 454 356 l 1,19,-1
 457 310 l 1,20,21
 414 310 414 310 334 314.5 c 128,-1,22
 254 319 254 319 243 319 c 1,23,-1
 243 170 l 2,24,25
 243 108 243 108 244.5 76.5 c 128,-1,26
 246 45 246 45 252 0 c 1,27,-1
 159 2 l 1,28,-1
 66 0 l 1,29,30
 74 74 74 74 76.5 151 c 128,-1,31
 79 228 79 228 79 335 c 0,0,1
EndSplineSet
EndChar
StartChar: G
Encoding: 71 71 40
Width: 731
Flags: W
LayerCount: 2
Fore
SplineSet
398 -11 m 0,0,1
 234 -11 234 -11 132.5 79.5 c 128,-1,2
 31 170 31 170 31 332 c 0,3,4
 31 499 31 499 140.5 593 c 128,-1,5
 250 687 250 687 420 687 c 0,6,7
 489 687 489 687 550 671.5 c 128,-1,8
 611 656 611 656 669 623 c 1,9,10
 645 565 645 565 633 502 c 1,11,-1
 621 502 l 1,12,13
 590 556 590 556 540 587.5 c 128,-1,14
 490 619 490 619 429 619 c 0,15,16
 340 619 340 619 281.5 554 c 128,-1,17
 223 489 223 489 216.5 437.5 c 128,-1,18
 210 386 210 386 208.5 369.5 c 128,-1,19
 207 353 207 353 207 338 c 0,20,21
 207 307 207 307 209 291 c 128,-1,22
 211 275 211 275 212 270 c 0,23,24
 224 180 224 180 281 120 c 128,-1,25
 338 60 338 60 426 60 c 0,26,27
 470 60 470 60 514 72 c 1,28,29
 514 196 514 196 504 310 c 1,30,31
 554 305 554 305 594 305 c 0,32,33
 639 305 639 305 683 311 c 1,34,35
 683 285 683 285 679 233 c 128,-1,36
 675 181 675 181 675 154 c 0,37,38
 675 133 675 133 677 85 c 128,-1,39
 679 37 679 37 679 34 c 1,40,41
 605 12 605 12 537.5 0.5 c 128,-1,42
 470 -11 470 -11 398 -11 c 0,0,1
EndSplineSet
EndChar
StartChar: H
Encoding: 72 72 38
Width: 755
Flags: W
HStem: 0 21G<66 71 244.667 248.333 505.333 506 683.667 687.333> 320 86<242 512> 651 20G<67.1538 70 245 248.667 506.667 509.333 686 687.667>
VStem: 66 177.5<5.05469 320> 76 166<5.05469 320 406 629.4> 512 165<5.78418 320 406 661.684>
AnchorPoint: "above" 384 742 basechar 0
AnchorPoint: "circum" 384 742 basechar 0
LayerCount: 2
Fore
SplineSet
76 205 m 2xec
 77 332 l 2
 77 367.333333333 76.1666666667 413 74.5 469 c 0
 72.8333333333 525 72 557.666666667 72 567 c 2
 66 671 l 1xf4
 74 671 89.1666666667 669.833333333 111.5 667.5 c 0
 133.833333333 665.166666667 150.333333333 664 161 664 c 0
 175.666666667 664 191.666666667 665 209 667 c 0
 226.333333333 669 240 670.333333333 250 671 c 1
 247.333333333 649 245.333333333 624 244 596 c 0
 242.666666667 568 242 540.333333333 242 513 c 2
 242 406 l 1
 372 403 l 1
 512 406 l 1
 512 513 l 2
 512 571 509.333333333 623.666666667 504 671 c 1
 514.666666667 671 531.166666667 669.833333333 553.5 667.5 c 0
 575.833333333 665.166666667 590.666666667 664 598 664 c 0
 608.666666667 664 624.666666667 665.166666667 646 667.5 c 0
 667.333333333 669.833333333 682 671 690 671 c 1
 685.333333333 621.666666667 682 566.666666667 680 506 c 0
 678 445.333333333 677 387.333333333 677 332 c 0
 677 258 677.833333333 199.666666667 679.5 157 c 0
 681.166666667 114.333333333 684.666666667 62 690 0 c 1
 677.333333333 0 659.833333333 0.833333333333 637.5 2.5 c 0
 615.166666667 4.16666666667 602 5 598 5 c 0
 586 5 568.333333333 4.16666666667 545 2.5 c 0
 521.666666667 0.833333333333 508 0 504 0 c 1
 506.666666667 17.3333333333 508.666666667 40.6666666667 510 70 c 0
 511.333333333 99.3333333333 512 124.333333333 512 145 c 2
 512 320 l 1
 496 320 469.5 320.666666667 432.5 322 c 0
 395.5 323.333333333 375.333333333 324 372 324 c 2
 242 320 l 1
 242 145 l 2xec
 242 106.333333333 242.5 79.3333333333 243.5 64 c 0
 244.5 48.6666666667 246.666666667 27.3333333333 250 0 c 1
 239.333333333 0 223.333333333 0.666666666667 202 2 c 0
 180.666666667 3.33333333333 165.333333333 4 156 4 c 0
 146 4 131 3.33333333333 111 2 c 0
 91 0.666666666667 76 0 66 0 c 1xf4
 66 19.3333333333 67.6666666667 54.5 71 105.5 c 0
 74.3333333333 156.5 76 189.666666667 76 205 c 2xec
EndSplineSet
EndChar
StartChar: I
Encoding: 73 73 41
Width: 322
Flags: HW
LayerCount: 2
Fore
SplineSet
80 290 m 0
 80 389.333333333 79.1666666667 464.5 77.5 515.5 c 128
 75.8333333333 566.5 72.6666666667 618.333333333 68 671 c 1
 82.6666666667 669.666666667 98.8333333333 668.166666667 116.5 666.5 c 128
 134.166666667 664.833333333 148.333333333 664 159 664 c 0
 171 664 188.166666667 665.166666667 210.5 667.5 c 128
 232.833333333 669.833333333 247.333333333 671 254 671 c 1
 249.333333333 617 246.166666667 565.333333333 244.5 516 c 128
 242.833333333 466.666666667 242 406.333333333 242 335 c 0
 242 268.333333333 242.833333333 209.833333333 244.5 159.5 c 128
 246.166666667 109.166666667 249.333333333 56 254 0 c 1
 242.666666667 0 223.333333333 0.666666666667 196 2 c 128
 168.666666667 3.33333333333 154.666666667 4 154 4 c 2
 68 0 l 1
 72 42.6666666667 75 90.6666666667 77 144 c 128
 79 197.333333333 80 246 80 290 c 0
EndSplineSet
EndChar
StartChar: J
Encoding: 74 74 43
Width: 322
Flags: W
LayerCount: 2
Fore
SplineSet
154 667 m 2,0,1
 171 667 171 667 211.5 669 c 128,-1,2
 252 671 252 671 257 671 c 1,3,4
 257 617 257 617 251.5 489.5 c 128,-1,5
 246 362 246 362 246 324 c 0,6,7
 246 296 246 296 248 226.5 c 128,-1,8
 250 157 250 157 250 154 c 2,9,-1
 249 76 l 1,10,11
 249 -26 249 -26 179.5 -92.5 c 128,-1,12
 110 -159 110 -159 7 -159 c 1,13,-1
 -18 -156 l 1,14,-1
 -27 -103 l 1,15,-1
 9 -104 l 1,16,17
 54 -104 54 -104 69 -68 c 128,-1,18
 84 -32 84 -32 84 21 c 2,19,-1
 85 158 l 2,20,21
 85 254 85 254 79 446 c 128,-1,22
 73 638 73 638 73 671 c 1,23,-1
 154 667 l 2,0,1
EndSplineSet
EndChar
StartChar: K
Encoding: 75 75 44
Width: 616
Flags: W
LayerCount: 2
Fore
SplineSet
240 516 m 2,0,-1
 240 371 l 1,1,-1
 410 567 l 2,2,3
 446 609 446 609 457.5 623.5 c 128,-1,4
 469 638 469 638 491 671 c 1,5,-1
 553 667 l 2,6,7
 565 667 565 667 589 669 c 128,-1,8
 613 671 613 671 627 671 c 1,9,10
 569 613 569 613 495.5 537.5 c 128,-1,11
 422 462 422 462 363 399 c 1,12,-1
 449 272 l 1,13,14
 543 129 543 129 643 0 c 1,15,-1
 543 4 l 2,16,17
 524 4 524 4 478.5 2 c 128,-1,18
 433 0 433 0 429 0 c 1,19,20
 393 71 393 71 349.5 137 c 128,-1,21
 306 203 306 203 241 291 c 1,22,-1
 241 139 l 2,23,24
 241 68 241 68 250 0 c 1,25,26
 234 0 234 0 194.5 2 c 128,-1,27
 155 4 155 4 153 4 c 2,28,-1
 65 0 l 1,29,30
 65 50 65 50 71.5 170 c 128,-1,31
 78 290 78 290 78 332 c 0,32,33
 78 371 78 371 75 449 c 128,-1,34
 72 527 72 527 72 567 c 1,35,-1
 65 671 l 1,36,37
 82 671 82 671 113.5 667.5 c 128,-1,38
 145 664 145 664 158 664 c 0,39,40
 182 664 182 664 203.5 666 c 128,-1,41
 225 668 225 668 247 671 c 1,42,43
 247 653 247 653 243.5 598.5 c 128,-1,44
 240 544 240 544 240 516 c 2,0,-1
EndSplineSet
EndChar
StartChar: L
Encoding: 76 76 42
Width: 468
Flags: W
HStem: 2.5 78.5<244.231 457.656> 651 20G<68.6667 156 156 249.667>
VStem: 76.5 166.5<81.9076 665.092>
AnchorPoint: "above" 156 742 basechar 0
AnchorPoint: "circum" 156 742 basechar 0
LayerCount: 2
Fore
SplineSet
79 335 m 0
 79 409.666666667 78.1666666667 468.5 76.5 511.5 c 0
 74.8333333333 554.5 71.3333333333 607.666666667 66 671 c 1
 156 668 l 1
 253 671 l 1
 246.333333333 599.666666667 243 524.333333333 243 445 c 2
 243 213 l 2
 243 179 243 179 243 144.5 c 0
 243 121.5 244 100.333333333 246 81 c 1
 318 81 389.666666667 85 461 93 c 1
 458 46 l 1
 461 0 l 1
 424.333333333 0 375.166666667 0.833333333333 313.5 2.5 c 0
 251.833333333 4.16666666667 214.666666667 5 202 5 c 0
 181.333333333 5 155 4.16666666667 123 2.5 c 0
 91 0.833333333333 72 0 66 0 c 1
 71.3333333333 49.3333333333 74.8333333333 99.6666666667 76.5 151 c 0
 78.1666666667 202.333333333 79 263.666666667 79 335 c 0
EndSplineSet
EndChar
StartChar: M
Encoding: 77 77 43
Width: 876
Flags: HW
AnchorPoint: "above" 438 742 basechar 0
AnchorPoint: "circum" 438 742 basechar 0
LayerCount: 2
Fore
SplineSet
76 335 m 2
 121 671 l 1
 131.666666667 669.666666667 142 668.666666667 152 668 c 128
 162 667.333333333 174 667 188 667 c 0
 196 667 207.666666667 667.666666667 223 669 c 128
 238.333333333 670.333333333 250 671 258 671 c 1
 282.666666667 603 302.666666667 549.666666667 318 511 c 128
 333.333333333 472.333333333 348.166666667 436.166666667 362.5 402.5 c 128
 376.833333333 368.833333333 402 310.666666667 438 228 c 1
 561 497 l 1
 587.666666667 553.666666667 610 611.666666667 628 671 c 1
 635.333333333 671 646.666666667 670.333333333 662 669 c 128
 677.333333333 667.666666667 688.666666667 667 696 667 c 0
 715.333333333 667 730 667.666666667 740 669 c 128
 750 670.333333333 757.666666667 671 763 671 c 1
 796 341 l 2
 802 283.666666667 808.166666667 227.833333333 814.5 173.5 c 128
 820.833333333 119.166666667 829 61.3333333333 839 0 c 1
 827 0 810.333333333 0.833333333333 789 2.5 c 128
 767.666666667 4.16666666667 754.666666667 5 750 5 c 0
 737.333333333 5 720.166666667 4.16666666667 698.5 2.5 c 128
 676.833333333 0.833333333333 663.666666667 0 659 0 c 1
 659 68.6666666667 654.333333333 138.666666667 645 210 c 1
 623 444 l 1
 593 378.666666667 561 306.833333333 527 228.5 c 128
 493 150.166666667 460.666666667 74 430 0 c 1
 397 1 l 1
 360 0 l 1
 343.333333333 42 321.5 94.5 294.5 157.5 c 128
 267.5 220.5 245.5 270.5 228.5 307.5 c 128
 211.5 344.5 192 387.333333333 170 436 c 1
 141 165 l 2
 138.333333333 138.333333333 135.833333333 109.5 133.5 78.5 c 128
 131.166666667 47.5 130 21.3333333333 130 0 c 1
 122.666666667 0 111.5 0.833333333333 96.5 2.5 c 128
 81.5 4.16666666667 73.3333333333 5 72 5 c 0
 61.3333333333 5 51.8333333333 4.33333333333 43.5 3 c 128
 35.1666666667 1.66666666667 28.3333333333 0.666666666667 23 0 c 1
 45 124 62.6666666667 235.666666667 76 335 c 2
EndSplineSet
EndChar
StartChar: N
Encoding: 78 78 47
Width: 727
Flags: W
LayerCount: 2
Fore
SplineSet
73 320 m 0,0,1
 73 377 73 377 70.5 465 c 128,-1,2
 68 553 68 553 68 567 c 2,3,-1
 65 671 l 1,4,-1
 128 667 l 1,5,-1
 194 671 l 1,6,7
 285 557 285 557 379 447 c 128,-1,8
 473 337 473 337 570 234 c 1,9,-1
 570 419 l 2,10,11
 570 462 570 462 566.5 550 c 128,-1,12
 563 638 563 638 563 671 c 1,13,14
 584 669 584 669 594 668 c 128,-1,15
 604 667 604 667 615 667 c 0,16,17
 631 667 631 667 641 668 c 128,-1,18
 651 669 651 669 670 672 c 1,19,20
 665 640 665 640 662 603.5 c 128,-1,21
 659 567 659 567 659 531 c 0,22,23
 659 432 659 432 658 332 c 128,-1,24
 657 232 657 232 656 133 c 0,25,26
 656 106 656 106 657.5 77 c 128,-1,27
 659 48 659 48 663 0 c 1,28,29
 649 2 649 2 631 3.5 c 128,-1,30
 613 5 613 5 604 5 c 0,31,32
 585 5 585 5 572.5 3.5 c 128,-1,33
 560 2 560 2 545 0 c 1,34,35
 455 109 455 109 357 222.5 c 128,-1,36
 259 336 259 336 159 445 c 1,37,-1
 159 174 l 1,38,-1
 164 0 l 1,39,40
 154 1 154 1 140.5 3 c 128,-1,41
 127 5 127 5 115 5 c 0,42,43
 97 5 97 5 86 3.5 c 128,-1,44
 75 2 75 2 62 0 c 1,45,46
 68 76 68 76 70.5 150 c 128,-1,47
 73 224 73 224 73 320 c 0,0,1
EndSplineSet
EndChar
StartChar: P
Encoding: 80 80 46
Width: 577
Flags: W
HStem: 0 21G<67.6667 68.3333 244.667 249.333> 280 70<242 335.875> 602 69<242 346.359>
VStem: 78 164<7.35388 280 350 600> 386 165<398.255 560.48>
AnchorPoint: "above" 280 742 basechar 0
AnchorPoint: "circum" 280 742 basechar 0
LayerCount: 2
Fore
SplineSet
242 145 m 2
 242 119.666666667 242.333333333 102.5 243 93.5 c 0
 243.666666667 84.5 246.666666667 53.3333333333 252 0 c 1
 237.333333333 0 219 0.833333333333 197 2.5 c 0
 175 4.16666666667 162.333333333 5 159 5 c 0
 144.333333333 5 126 4.16666666667 104 2.5 c 0
 82 0.833333333333 69.3333333333 0 66 0 c 1
 70.6666666667 54 73.8333333333 105 75.5 153 c 0
 77.1666666667 201 78 260.666666667 78 332 c 0
 78 374 76 437 72 521 c 0
 68 605 66 654.666666667 66 670 c 1
 76 670 92.8333333333 669.333333333 116.5 668 c 0
 140.166666667 666.666666667 153 666 155 666 c 2
 285 671 l 1
 321 672 l 1
 390.333333333 672 446 658.333333333 488 631 c 0
 530 603.666666667 551 557 551 491 c 0
 551 435 533.5 388.166666667 498.5 350.5 c 0
 463.5 312.833333333 428.333333333 292 393 288 c 0
 357.666666667 284 328.666666667 281.666666667 306 281 c 0
 283.333333333 280.333333333 262 280 242 280 c 1
 242 145 l 2
386 482 m 0
 386 516.666666667 377.166666667 545.333333333 359.5 568 c 0
 341.833333333 590.666666667 316 602 282 602 c 1
 242 600 l 1
 240 499 l 1
 240 350 l 1
 288.666666667 350 325.166666667 360.333333333 349.5 381 c 0
 373.833333333 401.666666667 386 435.333333333 386 482 c 0
EndSplineSet
EndChar
StartChar: Q
Encoding: 81 81 50
Width: 813
Flags: W
LayerCount: 2
Fore
SplineSet
29 329 m 0,0,1
 29 496 29 496 137 589.5 c 128,-1,2
 245 683 245 683 416 683 c 0,3,4
 579 683 579 683 680.5 597 c 128,-1,5
 782 511 782 511 782 350 c 0,6,7
 782 226 782 226 723 133.5 c 128,-1,8
 664 41 664 41 547 8 c 1,9,-1
 636 -52 l 1,10,11
 705 -93 705 -93 791 -131 c 1,12,-1
 791 -144 l 1,13,14
 759 -156 759 -156 724 -173.5 c 128,-1,15
 689 -191 689 -191 653 -212 c 1,16,17
 594 -163 594 -163 531 -115.5 c 128,-1,18
 468 -68 468 -68 384 -9 c 1,19,20
 222 -9 222 -9 125.5 79.5 c 128,-1,21
 29 168 29 168 29 329 c 0,0,1
405 52 m 0,22,23
 509 52 509 52 557 139.5 c 128,-1,24
 605 227 605 227 605 340 c 0,25,26
 605 449 605 449 557 534 c 128,-1,27
 509 619 509 619 408 619 c 0,28,29
 304 619 304 619 255.5 533.5 c 128,-1,30
 207 448 207 448 207 335 c 0,31,32
 207 225 207 225 255 138.5 c 128,-1,33
 303 52 303 52 405 52 c 0,22,23
EndSplineSet
EndChar
StartChar: R
Encoding: 82 82 50
Width: 602
Flags: HW
LayerCount: 2
Fore
SplineSet
77 287 m 0
 77 329 74.6666666667 392.666666667 70 478 c 128
 65.3333333333 563.333333333 63 627.666666667 63 671 c 1
 132 668 l 2
 144 668 171 669.166666667 213 671.5 c 128
 255 673.833333333 285 675 303 675 c 0
 401.666666667 675 468.666666667 659.833333333 504 629.5 c 128
 539.333333333 599.166666667 557 556.666666667 557 502 c 0
 557 456.666666667 542.833333333 418.5 514.5 387.5 c 128
 486.166666667 356.5 449.333333333 339 404 335 c 1
 436 279.666666667 469.833333333 224.5 505.5 169.5 c 128
 541.166666667 114.5 579.333333333 58 620 0 c 1
 543 4 l 1
 417 0 l 1
 394.333333333 48 368.333333333 96.5 339 145.5 c 128
 309.666666667 194.5 274 251 232 315 c 1
 232 186 l 2
 232 136 232.5 101.5 233.5 82.5 c 128
 234.5 63.5 236.666666667 36 240 0 c 1
 227.333333333 0 210.5 0.833333333333 189.5 2.5 c 128
 168.5 4.16666666667 156.333333333 5 153 5 c 0
 140.333333333 5 123.166666667 4.16666666667 101.5 2.5 c 128
 79.8333333333 0.833333333333 67 0 63 0 c 1
 63 31.3333333333 65.3333333333 79 70 143 c 128
 74.6666666667 207 77 255 77 287 c 0
392 496 m 0
 392 530 382.833333333 557.666666667 364.5 579 c 128
 346.166666667 600.333333333 320.333333333 611 287 611 c 2
 234 612 l 1
 231 501 l 1
 231 364 l 1
 280.333333333 364 319.5 374.166666667 348.5 394.5 c 128
 377.5 414.833333333 392 448.666666667 392 496 c 0
EndSplineSet
EndChar
StartChar: S
Encoding: 83 83 49
Width: 534
Flags: W
HStem: -13 67<148.242 308.537> 617 66<206.134 359.325>
VStem: 42 132<448 570.522> 356 141<115.547 242>
AnchorPoint: "above" 283 742 basechar 0
AnchorPoint: "circum" 283 742 basechar 0
LayerCount: 2
Fore
SplineSet
71 181 m 1
 86 181 l 1
 100 136.333333333 117.333333333 104 138 84 c 0
 158.666666667 64 191 54 235 54 c 0
 265 54 292.666666667 63.1666666667 318 81.5 c 0
 343.333333333 99.8333333333 356 123.333333333 356 152 c 0
 356 192 329.833333333 225.5 277.5 252.5 c 0
 225.166666667 279.5 174 306 124 332 c 1
 69.3333333333 369.333333333 42 418 42 478 c 0
 42 544 67.1666666667 594.666666667 117.5 630 c 0
 167.833333333 665.333333333 227.666666667 683 297 683 c 0
 357.666666667 683 416.333333333 669.333333333 473 642 c 1
 464.333333333 621.333333333 456.833333333 600.666666667 450.5 580 c 0
 444.166666667 559.333333333 438.333333333 537 433 513 c 1
 422 513 l 1
 410.666666667 545 393 570.333333333 369 589 c 0
 345 607.666666667 316.666666667 617 284 617 c 0
 254 617 228.166666667 609.833333333 206.5 595.5 c 0
 184.833333333 581.166666667 174 560 174 532 c 0
 174 497.333333333 200.833333333 466.166666667 254.5 438.5 c 0
 308.166666667 410.833333333 361 384 413 358 c 1
 469 319.333333333 497 271 497 213 c 0
 497 139.666666667 468.833333333 83.6666666667 412.5 45 c 0
 356.166666667 6.33333333333 289.333333333 -13 212 -13 c 0
 181.333333333 -13 152 -10.6666666667 124 -6 c 0
 96 -1.33333333333 68 7 40 19 c 1
 44.6666666667 39 49.1666666667 60.6666666667 53.5 84 c 0
 57.8333333333 107.333333333 63.6666666667 139.666666667 71 181 c 1
EndSplineSet
EndChar
StartChar: T
Encoding: 84 84 50
Width: 539
Flags: W
HStem: 0 21G<176 185.667 357 362> 589 78.5<11.3735 184 355 526.438>
VStem: 182 177<4.0625 305.715> 188 165.5<5.32361 589>
AnchorPoint: "above" 269 742 basechar 0
AnchorPoint: "circum" 269 742 basechar 0
LayerCount: 2
Fore
SplineSet
355 589 m 1xd0
 355 575.666666667 354.333333333 553 353 521 c 0
 351.666666667 489 351 472 351 470 c 0
 351 410.666666667 351.833333333 356.666666667 353.5 308 c 0xd0
 355.166666667 259.333333333 357 205.166666667 359 145.5 c 0
 361 85.8333333333 362 37.3333333333 362 0 c 1
 352 0 336.666666667 0.666666666667 316 2 c 0
 295.333333333 3.33333333333 280 4 270 4 c 0
 258.666666667 4 245 3.5 229 2.5 c 0
 213 1.5 195.333333333 0.666666666667 176 0 c 1
 176 42.6666666667 178 106.666666667 182 192 c 0xe0
 186 277.333333333 188 327.666666667 188 343 c 0
 188 370.333333333 187.333333333 417 186 483 c 0
 184.666666667 549 184 584.333333333 184 589 c 1
 152 589 128.833333333 588.5 114.5 587.5 c 0
 100.166666667 586.5 64 583 6 577 c 1
 9 628 l 1
 6 671 l 1
 36 671 81.8333333333 669.833333333 143.5 667.5 c 0
 205.166666667 665.166666667 247 664 269 664 c 0
 303.666666667 664 351.666666667 665.166666667 413 667.5 c 0
 474.333333333 669.833333333 514 671 532 671 c 1
 529 627 l 1
 532 577 l 1
 472.666666667 585 413.666666667 589 355 589 c 1xd0
EndSplineSet
EndChar
StartChar: U
Encoding: 85 85 51
Width: 719
Flags: HW
LayerCount: 2
Fore
SplineSet
152 667 m 0
 162 667 177.333333333 667.666666667 198 669 c 128
 218.666666667 670.333333333 234 671 244 671 c 1
 239.333333333 620.333333333 236 560.166666667 234 490.5 c 128
 232 420.833333333 231 358.333333333 231 303 c 0
 231 217 243.5 158.166666667 268.5 126.5 c 128
 293.5 94.8333333333 329 79 375 79 c 0
 418.333333333 79 456.166666667 91.3333333333 488.5 116 c 128
 520.833333333 140.666666667 539.333333333 168.833333333 544 200.5 c 128
 548.666666667 232.166666667 551.666666667 266 553 302 c 128
 554.333333333 338 555 368.666666667 555 394 c 0
 555 496.666666667 551 589 543 671 c 1
 585 667 l 1
 655 671 l 1
 655 647 653.333333333 607.833333333 650 553.5 c 128
 646.666666667 499.166666667 645 462.333333333 645 443 c 2
 647 346 l 2
 647 337.333333333 646.666666667 324.5 646 307.5 c 128
 645.333333333 290.5 645 278 645 270 c 0
 645 176.666666667 620.5 106.5 571.5 59.5 c 128
 522.5 12.5 450.666666667 -11 356 -11 c 0
 274 -11 206.166666667 6 152.5 40 c 128
 98.8333333333 74 72 129.333333333 72 206 c 0
 72 252.666666667 69.8333333333 332 65.5 444 c 128
 61.1666666667 556 59 631.666666667 59 671 c 1
 69 671 86.5 670.333333333 111.5 669 c 128
 136.5 667.666666667 150 667 152 667 c 0
EndSplineSet
EndChar
StartChar: V
Encoding: 86 86 52
Width: 589
Flags: HW
LayerCount: 2
Fore
SplineSet
184 166 m 1
 -14 671 l 1
 -2.66666666667 671 16.6666666667 670.333333333 44 669 c 128
 71.3333333333 667.666666667 85.6666666667 667 87 667 c 2
 178 671 l 1
 189.333333333 627 201.666666667 587.666666667 215 553 c 2
 343 213 l 1
 466 555 l 2
 473.333333333 575 479.833333333 594.5 485.5 613.5 c 128
 491.166666667 632.5 495.666666667 651.666666667 499 671 c 1
 552 667 l 2
 559.333333333 667 570.333333333 667.666666667 585 669 c 128
 599.666666667 670.333333333 610.333333333 671 617 671 c 1
 590.333333333 617 565.333333333 563 542 509 c 1
 408 167 l 1
 386 115 367.333333333 59.3333333333 352 0 c 1
 340 1.33333333333 329.666666667 2.5 321 3.5 c 128
 312.333333333 4.5 304.666666667 5 298 5 c 0
 290 5 279.166666667 4.16666666667 265.5 2.5 c 128
 251.833333333 0.833333333333 244 0 242 0 c 1
 235.333333333 22.6666666667 227.666666667 46 219 70 c 128
 210.333333333 94 198.666666667 126 184 166 c 1
EndSplineSet
EndChar
StartChar: W
Encoding: 87 87 56
Width: 955
Flags: W
LayerCount: 2
Fore
SplineSet
-6 671 m 1,0,1
 10 671 10 671 48.5 669 c 128,-1,2
 87 667 87 667 90 667 c 0,3,4
 106 667 106 667 137 669 c 128,-1,5
 168 671 168 671 184 671 c 1,6,7
 200 597 200 597 216.5 530.5 c 128,-1,8
 233 464 233 464 257.5 374 c 128,-1,9
 282 284 282 284 302 215 c 1,10,11
 328 290 328 290 363.5 394.5 c 128,-1,12
 399 499 399 499 415 546.5 c 128,-1,13
 431 594 431 594 456 671 c 1,14,-1
 512 667 l 2,15,16
 523 667 523 667 545 669 c 128,-1,17
 567 671 567 671 578 671 c 1,18,19
 602 581 602 581 618.5 525 c 128,-1,20
 635 469 635 469 657.5 401 c 128,-1,21
 680 333 680 333 719 214 c 1,22,23
 788 435 788 435 840 671 c 1,24,-1
 899 667 l 1,25,26
 922 667 922 667 935 669 c 128,-1,27
 948 671 948 671 954 671 c 1,28,-1
 886 463 l 1,29,-1
 734 0 l 1,30,31
 708 3 708 3 700.5 3.5 c 128,-1,32
 693 4 693 4 675 4 c 0,33,34
 651 4 651 4 637 2 c 128,-1,35
 623 0 623 0 616 0 c 1,36,37
 599 58 599 58 571 144 c 128,-1,38
 543 230 543 230 533 262 c 2,39,-1
 470 449 l 1,40,41
 428 343 428 343 391.5 234.5 c 128,-1,42
 355 126 355 126 318 0 c 1,43,44
 305 0 305 0 283.5 2.5 c 128,-1,45
 262 5 262 5 259 5 c 0,46,47
 238 5 238 5 222 3 c 128,-1,48
 206 1 206 1 196 0 c 1,49,50
 160 138 160 138 133 231 c 128,-1,51
 106 324 106 324 77.5 415 c 128,-1,52
 49 506 49 506 -6 671 c 1,0,1
EndSplineSet
EndChar
StartChar: Y
Encoding: 89 89 58
Width: 538
Flags: W
LayerCount: 2
Fore
SplineSet
97 468 m 2,0,1
 88 484 88 484 47.5 556 c 128,-1,2
 7 628 7 628 -22 671 c 1,3,-1
 66 667 l 2,4,5
 86 667 86 667 132.5 669 c 128,-1,6
 179 671 179 671 184 671 c 1,7,8
 219 594 219 594 248.5 533.5 c 128,-1,9
 278 473 278 473 318 399 c 1,10,11
 354 458 354 458 389 526 c 128,-1,12
 424 594 424 594 458 671 c 1,13,-1
 512 667 l 2,14,15
 522 667 522 667 542 669 c 128,-1,16
 562 671 562 671 573 671 c 1,17,18
 514 585 514 585 463 496.5 c 128,-1,19
 412 408 412 408 358 303 c 1,20,-1
 361 103 l 1,21,-1
 365 0 l 1,22,-1
 298 4 l 1,23,-1
 184 0 l 1,24,25
 184 36 184 36 188.5 99.5 c 128,-1,26
 193 163 193 163 193 171 c 2,27,-1
 192 290 l 1,28,-1
 97 468 l 2,0,1
EndSplineSet
EndChar
StartChar: Z
Encoding: 90 90 59
Width: 598
Flags: W
LayerCount: 2
Fore
SplineSet
18 39 m 1,0,1
 59 103 59 103 134.5 224.5 c 128,-1,2
 210 346 210 346 255.5 419.5 c 128,-1,3
 301 493 301 493 357 585 c 1,4,-1
 212 585 l 2,5,6
 134 585 134 585 71 577 c 1,7,-1
 76 614 l 1,8,9
 76 644 76 644 71 671 c 1,10,-1
 320 667 l 2,11,12
 367 667 367 667 473.5 669 c 128,-1,13
 580 671 580 671 587 671 c 1,14,-1
 587 650 l 1,15,16
 501 515 501 515 413 372.5 c 128,-1,17
 325 230 325 230 239 85 c 1,18,-1
 408 85 l 2,19,20
 471 85 471 85 508.5 87.5 c 128,-1,21
 546 90 546 90 599 98 c 1,22,23
 595 69 595 69 595 31 c 1,24,-1
 596 0 l 1,25,26
 548 0 548 0 436.5 2 c 128,-1,27
 325 4 325 4 319 4 c 0,28,29
 267 4 267 4 146.5 2 c 128,-1,30
 26 0 26 0 18 0 c 1,31,-1
 18 39 l 1,0,1
EndSplineSet
EndChar
StartChar: bracketleft
Encoding: 91 91 60
Width: 327
Flags: W
LayerCount: 2
Fore
SplineSet
295 636 m 1,0,-1
 299 614 l 1,1,-1
 188 616 l 1,2,-1
 185 390 l 1,3,4
 185 312 185 312 188.5 153 c 128,-1,5
 192 -6 192 -6 192 -62 c 1,6,-1
 236 -63 l 1,7,-1
 299 -61 l 1,8,-1
 295 -83 l 1,9,10
 295 -102 295 -102 299 -117 c 1,11,-1
 186 -113 l 1,12,-1
 75 -118 l 1,13,14
 75 -36 75 -36 79.5 111.5 c 128,-1,15
 84 259 84 259 84 276 c 0,16,17
 84 358 84 358 79.5 506.5 c 128,-1,18
 75 655 75 655 75 672 c 1,19,20
 100 672 100 672 140 669.5 c 128,-1,21
 180 667 180 667 186 667 c 0,22,23
 205 667 205 667 250.5 669 c 128,-1,24
 296 671 296 671 299 671 c 1,25,26
 295 656 295 656 295 636 c 1,0,-1
EndSplineSet
EndChar
StartChar: backslash
Encoding: 92 92 58
Width: 276
Flags: W
HStem: 717 20G<-23 41.4976>
VStem: -23 327
LayerCount: 2
Fore
SplineSet
-23 737 m 1
 35 737 l 1
 304 -91 l 1
 244 -91 l 1
 -23 737 l 1
EndSplineSet
EndChar
StartChar: bracketright
Encoding: 93 93 59
Width: 327
Flags: W
HStem: -113 50<55 164> 616 51<58 162>
VStem: 164 114<-63 144 408 616> 167 104<-43.1429 596.571>
LayerCount: 2
Fore
SplineSet
58 -93 m 1xe0
 55 -61 l 1
 164 -63 l 1xe0
 164 -27.6666666667 165 25.6666666667 167 97 c 0xd0
 169 168.333333333 170 221.666666667 170 257 c 0
 170 296.333333333 168.666666667 356 166 436 c 0
 163.333333333 516 162 576 162 616 c 1
 118 616 l 1
 55 615 l 1
 58 637 l 1
 58 645 58 645 58 654 c 1
 56.6666666667 662 55.6666666667 667.666666667 55 671 c 1
 166 667 l 1
 278 672 l 1xe0
 271 408 l 1
 269 259 l 1
 271 144 l 1xd0
 278 -118 l 1
 166 -113 l 1
 150.666666667 -113 129.666666667 -113.833333333 103 -115.5 c 0
 76.3333333333 -117.166666667 60.3333333333 -118 55 -118 c 1
 58 -93 l 1xe0
EndSplineSet
EndChar
StartChar: asciicircum
Encoding: 94 94 63
Width: 315
Flags: W
LayerCount: 2
Fore
SplineSet
107 722 m 1,0,-1
 195 722 l 1,1,-1
 306 544 l 1,2,-1
 257 544 l 1,3,-1
 152 632 l 1,4,-1
 45 544 l 1,5,-1
 -2 544 l 1,6,-1
 107 722 l 1,0,-1
EndSplineSet
EndChar
StartChar: underscore
Encoding: 95 95 61
Width: 492
Flags: HW
LayerCount: 2
Fore
SplineSet
492 -133 m 1
 492 -232 l 1
 0 -232 l 1
 0 -133 l 1
 492 -133 l 1
EndSplineSet
EndChar
StartChar: grave
Encoding: 96 96 65
Width: 270
Flags: W
LayerCount: 2
Fore
SplineSet
182 442 m 2,0,1
 174 410 174 410 157 389.5 c 128,-1,2
 140 369 140 369 111 369 c 0,3,4
 86 369 86 369 67 387 c 128,-1,5
 48 405 48 405 48 431 c 256,6,7
 48 457 48 457 64 479 c 2,8,-1
 211 683 l 1,9,-1
 239 672 l 1,10,-1
 182 442 l 2,0,1
EndSplineSet
EndChar
StartChar: a
Encoding: 97 97 66
Width: 508
Flags: W
LayerCount: 2
Fore
SplineSet
171 -11 m 0,0,1
 111 -11 111 -11 72.5 25.5 c 128,-1,2
 34 62 34 62 34 122 c 0,3,4
 34 217 34 217 154 254 c 128,-1,5
 274 291 274 291 290 304 c 1,6,7
 295 312 295 312 295 317 c 0,8,9
 295 363 295 363 269 390 c 128,-1,10
 243 417 243 417 197 417 c 0,11,12
 167 417 167 417 142 404.5 c 128,-1,13
 117 392 117 392 101 367 c 1,14,-1
 97 367 l 1,15,-1
 82 422 l 1,16,17
 157 492 157 492 262 492 c 0,18,19
 345 492 345 492 391 450 c 128,-1,20
 437 408 437 408 437 326 c 2,21,-1
 435 155 l 2,22,23
 435 138 435 138 435 122.5 c 128,-1,24
 435 107 435 107 437 86 c 1,25,26
 444 55 444 55 473 55 c 0,27,28
 479 55 479 55 488 57.5 c 128,-1,29
 497 60 497 60 506 64 c 1,30,-1
 510 29 l 1,31,32
 464 -8 464 -8 406 -8 c 0,33,34
 372 -8 372 -8 345 5.5 c 128,-1,35
 318 19 318 19 303 46 c 1,36,37
 279 17 279 17 244.5 3 c 128,-1,38
 210 -11 210 -11 171 -11 c 0,0,1
173 143 m 0,39,40
 173 114 173 114 188 92 c 128,-1,41
 203 70 203 70 231 70 c 0,42,43
 263 70 263 70 278 94.5 c 128,-1,44
 293 119 293 119 293 153 c 2,45,-1
 293 253 l 1,46,47
 240 243 240 243 206.5 217.5 c 128,-1,48
 173 192 173 192 173 143 c 0,39,40
EndSplineSet
EndChar
StartChar: b
Encoding: 98 98 67
Width: 594
Flags: W
LayerCount: 2
Fore
SplineSet
64 466 m 0,0,1
 64 513 64 513 60.5 608 c 128,-1,2
 57 703 57 703 57 737 c 1,3,4
 76 735 76 735 98.5 733 c 128,-1,5
 121 731 121 731 139 731 c 256,6,7
 157 731 157 731 179.5 733 c 128,-1,8
 202 735 202 735 221 737 c 1,9,-1
 215 521 l 1,10,-1
 215 416 l 1,11,12
 244 454 244 454 280 473 c 128,-1,13
 316 492 316 492 364 492 c 0,14,15
 459 492 459 492 507.5 418.5 c 128,-1,16
 556 345 556 345 556 245 c 0,17,18
 556 138 556 138 500.5 63.5 c 128,-1,19
 445 -11 445 -11 339 -11 c 0,20,21
 288 -11 288 -11 245 11 c 128,-1,22
 202 33 202 33 171 75 c 1,23,24
 155 63 155 63 146 54 c 128,-1,25
 137 45 137 45 98 1 c 1,26,-1
 57 1 l 1,27,28
 57 95 57 95 60.5 257.5 c 128,-1,29
 64 420 64 420 64 466 c 0,0,1
310 422 m 0,30,31
 250 422 250 422 230 369 c 128,-1,32
 210 316 210 316 210 244 c 256,33,34
 210 172 210 172 228.5 117 c 128,-1,35
 247 62 247 62 306 62 c 0,36,37
 363 62 363 62 381 115 c 128,-1,38
 399 168 399 168 399 239 c 0,39,40
 399 313 399 313 382.5 367.5 c 128,-1,41
 366 422 366 422 310 422 c 0,30,31
EndSplineSet
EndChar
StartChar: c
Encoding: 99 99 68
Width: 475
Flags: W
LayerCount: 2
Fore
SplineSet
304 432 m 0,0,1
 248 432 248 432 220.5 382 c 128,-1,2
 193 332 193 332 193 271 c 0,3,4
 193 192 193 192 226 127.5 c 128,-1,5
 259 63 259 63 331 63 c 0,6,7
 359 63 359 63 388.5 71.5 c 128,-1,8
 418 80 418 80 438 97 c 1,9,-1
 445 91 l 1,10,-1
 424 15 l 1,11,12
 395 2 395 2 361.5 -4.5 c 128,-1,13
 328 -11 328 -11 292 -11 c 0,14,15
 177 -11 177 -11 101.5 55 c 128,-1,16
 26 121 26 121 26 234 c 0,17,18
 26 349 26 349 101.5 420.5 c 128,-1,19
 177 492 177 492 293 492 c 0,20,21
 371 492 371 492 449 460 c 1,22,23
 445 447 445 447 437.5 411 c 128,-1,24
 430 375 430 375 423 333 c 1,25,-1
 405 333 l 1,26,27
 397 376 397 376 371.5 404 c 128,-1,28
 346 432 346 432 304 432 c 0,0,1
EndSplineSet
EndChar
StartChar: d
Encoding: 100 100 66
Width: 594
Flags: HW
AnchorPoint: "circum" 455 798 basechar 0
AnchorPoint: "above" 455 798 basechar 0
LayerCount: 2
Fore
SplineSet
230 -11 m 0
 162 -11 113.166666667 13 83.5 61 c 128
 53.8333333333 109 39 169.333333333 39 242 c 0
 39 312.666666667 55.8333333333 372 89.5 420 c 128
 123.166666667 468 174 492 242 492 c 0
 297.333333333 492 342.666666667 468 378 420 c 1
 378 531 l 1
 373 737 l 1
 390.333333333 735 405.666666667 733.333333333 419 732 c 128
 432.333333333 730.666666667 444 730 454 730 c 0
 465.333333333 730 477 730.5 489 731.5 c 128
 501 732.5 516.666666667 734.333333333 536 737 c 1
 536 717.666666667 535 688 533 648 c 128
 531 608 530 578 530 558 c 0
 530 487.333333333 530.5 398.166666667 531.5 290.5 c 128
 532.5 182.833333333 533 128.333333333 533 127 c 2
 536 0 l 1
 525.333333333 0 510 0.833333333333 490 2.5 c 128
 470 4.16666666667 458 5 454 5 c 0
 443.333333333 5 428.5 4.16666666667 409.5 2.5 c 128
 390.5 0.833333333333 379 0 375 0 c 1
 376.333333333 8 377.333333333 17.5 378 28.5 c 128
 378.666666667 39.5 379 50.3333333333 379 61 c 1
 356.333333333 35.6666666667 333.666666667 17.3333333333 311 6 c 128
 288.333333333 -5.33333333333 261.333333333 -11 230 -11 c 0
286 423 m 0
 266 423 249.5 417.166666667 236.5 405.5 c 128
 223.5 393.833333333 214.166666667 378.666666667 208.5 360 c 128
 202.833333333 341.333333333 199 319.666666667 197 295 c 128
 195 270.333333333 194 248 194 228 c 0
 194 185.333333333 200.333333333 147.333333333 213 114 c 128
 225.666666667 80.6666666667 250 64 286 64 c 0
 322.666666667 64 347.833333333 82.8333333333 361.5 120.5 c 128
 375.166666667 158.166666667 382 199.333333333 382 244 c 0
 382 290.666666667 375.666666667 332.166666667 363 368.5 c 128
 350.333333333 404.833333333 324.666666667 423 286 423 c 0
EndSplineSet
EndChar
StartChar: e
Encoding: 101 101 67
Width: 525
Flags: W
HStem: -11 79<268.462 415.262> 239 57<194 346> 448 44<222.926 320.484>
VStem: 31 163<147.828 239 296 352.773> 346 148<296 383.75>
AnchorPoint: "circum" 273 552 basechar 0
AnchorPoint: "above" 273 552 basechar 0
LayerCount: 2
Fore
SplineSet
349 68 m 0
 371.666666667 68 391.333333333 71.6666666667 408 79 c 0
 424.666666667 86.3333333333 443.333333333 98.6666666667 464 116 c 1
 477 111 l 1
 469.666666667 87.6666666667 464.5 70.8333333333 461.5 60.5 c 0
 458.5 50.1666666667 455.666666667 39.6666666667 453 29 c 1
 428.333333333 15 402.833333333 4.83333333333 376.5 -1.5 c 0
 350.166666667 -7.83333333333 321.666666667 -11 291 -11 c 0
 212.333333333 -11 149.333333333 11.3333333333 102 56 c 0
 54.6666666667 100.666666667 31 162.666666667 31 242 c 0
 31 315.333333333 54 375.333333333 100 422 c 0
 146 468.666666667 205.666666667 492 279 492 c 0
 349 492 402.333333333 472.666666667 439 434 c 0
 475.666666667 395.333333333 494 340.666666667 494 270 c 1
 493 239 l 1
 194 239 l 1
 194 190.333333333 207.833333333 149.666666667 235.5 117 c 0
 263.166666667 84.3333333333 301 68 349 68 c 0
346 296 m 1
 347 320 l 1
 347 353.333333333 341.666666667 383 331 409 c 0
 320.333333333 435 301 448 273 448 c 0
 243.666666667 448 223 434.5 211 407.5 c 0
 199 380.5 193 350 193 316 c 1
 194 296 l 1
 346 296 l 1
EndSplineSet
EndChar
StartChar: f
Encoding: 102 102 68
Width: 306
Flags: HW
LayerCount: 2
Fore
SplineSet
275 737 m 0
 290.333333333 737 302.666666667 736 312 734 c 1
 322 730.666666667 329.333333333 728.333333333 334 727 c 1
 330.666666667 716.333333333 325.833333333 698.166666667 319.5 672.5 c 128
 313.166666667 646.833333333 307.333333333 621 302 595 c 1
 297 595 l 1
 283.666666667 606.333333333 271.666666667 614.833333333 261 620.5 c 128
 250.333333333 626.166666667 238 629 224 629 c 0
 186.666666667 629 168 614.333333333 168 585 c 0
 168 566.333333333 174.166666667 546.5 186.5 525.5 c 128
 198.833333333 504.5 209 487.333333333 217 474 c 1
 229 474 l 2
 238.333333333 474 247.333333333 474.166666667 256 474.5 c 128
 264.666666667 474.833333333 282.333333333 476.333333333 309 479 c 1
 307 482 l 1
 307 462 l 2
 307 454 307.166666667 445.833333333 307.5 437.5 c 128
 307.833333333 429.166666667 308.333333333 421.666666667 309 415 c 1
 258 420 l 1
 221 419 l 1
 221 197 l 2
 221 161.666666667 221.5 136 222.5 120 c 128
 223.5 104 227 64 233 0 c 1
 221.666666667 0 206.166666667 0.833333333333 186.5 2.5 c 128
 166.833333333 4.16666666667 155 5 151 5 c 0
 139.666666667 5 124 4.16666666667 104 2.5 c 128
 84 0.833333333333 71.6666666667 0 67 0 c 1
 70.3333333333 24.6666666667 72.6666666667 55.3333333333 74 92 c 128
 75.3333333333 128.666666667 76 163.666666667 76 197 c 2
 76 419 l 1
 41 421 l 1
 6 419 l 1
 7 448 l 1
 6 479 l 1
 16 477 26.5 475.666666667 37.5 475 c 128
 48.5 474.333333333 61.3333333333 474 76 474 c 1
 76 534.666666667 94.8333333333 593.666666667 132.5 651 c 128
 170.166666667 708.333333333 217.666666667 737 275 737 c 0
EndSplineSet
EndChar
StartChar: g
Encoding: 103 103 69
Width: 504
Flags: W
HStem: -269 57<170.788 336.47> 179 40<195.749 287.889> 424 51<419 515> 449 43<201.325 292.211>
VStem: 17 105<-167.349 -56.2693> 33 145<256.243 409.033> 55 115<71 150.333> 311 148<259.772 409.016> 389 123<-143.902 -45.6522>
AnchorPoint: "circum" 248 532 basechar 0
AnchorPoint: "above" 248 532 basechar 0
LayerCount: 2
Fore
SplineSet
154 196 m 1xe2
 120 199.333333333 91.3333333333 213.666666667 68 239 c 0
 44.6666666667 264.333333333 33 294.333333333 33 329 c 0
 33 380.333333333 53 420.333333333 93 449 c 0
 133 477.666666667 179.666666667 492 233 492 c 1xd4
 276 490 l 1
 385 478 l 1
 437 475 l 1
 453.666666667 475 468.166666667 475.666666667 480.5 477 c 0
 492.833333333 478.333333333 504.333333333 479.333333333 515 480 c 1
 515 421 l 1
 419 424 l 1
 433 415.333333333 443.166666667 404.333333333 449.5 391 c 0
 455.833333333 377.666666667 459 362 459 344 c 0
 459 284.666666667 436.166666667 242.333333333 390.5 217 c 0
 344.833333333 191.666666667 289.333333333 179 224 179 c 0
 210 179 197.5 176.333333333 186.5 171 c 0
 175.5 165.666666667 170 156.666666667 170 144 c 0xe3
 170 120.666666667 206 107 278 103 c 0
 350 99 407 89.5 449 74.5 c 0
 491 59.5 512 18.3333333333 512 -49 c 0
 512 -121 483.333333333 -175.666666667 426 -213 c 0
 368.666666667 -250.333333333 302 -269 226 -269 c 0
 171.333333333 -269 122.833333333 -257.666666667 80.5 -235 c 0
 38.1666666667 -212.333333333 17 -176 17 -126 c 0xe880
 17 -94.6666666667 26.8333333333 -68.1666666667 46.5 -46.5 c 0
 66.1666666667 -24.8333333333 92 -11 124 -5 c 1
 124 0 l 1
 104 4 87.5 13.5 74.5 28.5 c 0
 61.5 43.5 55 61 55 81 c 0
 55 105.666666667 65 127.166666667 85 145.5 c 0
 105 163.833333333 128 175.666666667 154 181 c 1
 154 196 l 1xe2
122 -103 m 0xc880
 122 -137.666666667 134.666666667 -164.5 160 -183.5 c 0
 185.333333333 -202.5 216.333333333 -212 253 -212 c 256
 289.666666667 -212 321.5 -202.333333333 348.5 -183 c 0
 375.5 -163.666666667 389 -136 389 -100 c 0
 389 -84.6666666667 385.166666667 -70.6666666667 377.5 -58 c 0
 369.833333333 -45.3333333333 357.5 -35.5 340.5 -28.5 c 0
 323.5 -21.5 302.166666667 -16.5 276.5 -13.5 c 0
 250.833333333 -10.5 223.333333333 -9 194 -9 c 2
 173 -9 l 1
 139 -29 122 -60.3333333333 122 -103 c 0xc880
240 219 m 0
 268.666666667 219 287.666666667 230.333333333 297 253 c 0
 306.333333333 275.666666667 311 304.333333333 311 339 c 0
 311 369.666666667 306.666666667 395.666666667 298 417 c 0
 289.333333333 438.333333333 272 449 246 449 c 256
 220 449 202.166666667 437.666666667 192.5 415 c 0
 182.833333333 392.333333333 178 365.666666667 178 335 c 0xd5
 178 301.666666667 181.666666667 274 189 252 c 0
 196.333333333 230 213.333333333 219 240 219 c 0
EndSplineSet
EndChar
StartChar: h
Encoding: 104 104 70
Width: 582
Flags: HW
AnchorPoint: "circum" 142 798 basechar 0
AnchorPoint: "above" 142 798 basechar 0
LayerCount: 2
Fore
SplineSet
367 492 m 0
 411.666666667 492 448.166666667 478.5 476.5 451.5 c 128
 504.833333333 424.5 519 388.666666667 519 344 c 1
 520 291 l 1
 518 178 l 1
 518 130.666666667 518.5 97.6666666667 519.5 79 c 128
 520.5 60.3333333333 522.666666667 34 526 0 c 1
 516.666666667 0 501.333333333 0.666666666667 480 2 c 128
 458.666666667 3.33333333333 447.333333333 4 446 4 c 0
 436.666666667 4 420.833333333 3.33333333333 398.5 2 c 128
 376.166666667 0.666666666667 364 0 362 0 c 1
 365.333333333 35.3333333333 367.5 70.8333333333 368.5 106.5 c 128
 369.5 142.166666667 370 186.666666667 370 240 c 1
 367 307 l 1
 364.333333333 334.333333333 358 356.166666667 348 372.5 c 128
 338 388.833333333 321 397 297 397 c 0
 281.666666667 397 268.333333333 393 257 385 c 128
 245.666666667 377 237.5 366.333333333 232.5 353 c 128
 227.5 339.666666667 223.666666667 324.833333333 221 308.5 c 128
 218.333333333 292.166666667 217 269 217 239 c 0
 217 213 218 173.333333333 220 120 c 128
 222 66.6666666667 223 26.6666666667 223 0 c 1
 211.666666667 0 196.333333333 0.833333333333 177 2.5 c 128
 157.666666667 4.16666666667 145.666666667 5 141 5 c 0
 129.666666667 5 114 4.16666666667 94 2.5 c 128
 74 0.833333333333 62 0 58 0 c 1
 58 40.6666666667 59.3333333333 102 62 184 c 128
 64.6666666667 266 66 328 66 370 c 0
 66 410.666666667 64.6666666667 472 62 554 c 128
 59.3333333333 636 58 697 58 737 c 1
 131 733 l 1
 143 733 l 2
 173 733 199.666666667 734.333333333 223 737 c 1
 223 714.333333333 222.166666667 685.166666667 220.5 649.5 c 128
 218.833333333 613.833333333 218 593 218 587 c 2
 218 420 l 1
 255.333333333 468 305 492 367 492 c 0
EndSplineSet
EndChar
StartChar: i
Encoding: 105 105 73
Width: 285
Flags: HW
LayerCount: 2
Fore
SplineSet
142 730 m 256
 163.333333333 730 182 722 198 706 c 128
 214 690 222 671.333333333 222 650 c 256
 222 628.666666667 214.166666667 610.166666667 198.5 594.5 c 128
 182.833333333 578.833333333 164 571 142 571 c 0
 120.666666667 571 102 578.666666667 86 594 c 128
 70 609.333333333 62 628 62 650 c 0
 62 671.333333333 70 690 86 706 c 128
 102 722 120.666666667 730 142 730 c 256
66 92 m 2
 66 391 l 1
 58 480 l 1
 72 478.666666667 86.5 477.333333333 101.5 476 c 128
 116.5 474.666666667 130 474 142 474 c 0
 154.666666667 474 168.333333333 474.666666667 183 476 c 128
 205 478 205 478 227 480 c 1
 218 393 l 1
 217 230 l 2
 217 176 217.5 134.333333333 218.5 105 c 128
 219.5 75.6666666667 222 40.6666666667 226 0 c 1
 141 3 l 1
 59 0 l 1
 61 16 62.6666666667 31.5 64 46.5 c 128
 65.3333333333 61.5 66 76.6666666667 66 92 c 2
EndSplineSet
EndChar
StartChar: j
Encoding: 106 106 74
Width: 285
Flags: HW
LayerCount: 2
Fore
SplineSet
141 475 m 0
 150.333333333 475 159.666666667 475.166666667 169 475.5 c 128
 178.333333333 475.833333333 195.666666667 477.333333333 221 480 c 1
 220 353 l 2
 220 295 220.833333333 221.166666667 222.5 131.5 c 128
 224.166666667 41.8333333333 225 -9.66666666667 225 -23 c 0
 225 -101.666666667 202 -160.833333333 156 -200.5 c 128
 110 -240.166666667 46 -260 -36 -260 c 1
 -45 -220 l 1
 -4.33333333333 -220 24.3333333333 -204.5 41 -173.5 c 128
 57.6666666667 -142.5 66 -104.333333333 66 -59 c 2
 68 184 l 2
 68 216 66.6666666667 265 64 331 c 128
 61.3333333333 397 60 446.666666667 60 480 c 1
 88.6666666667 476.666666667 115.666666667 475 141 475 c 0
139 730 m 256
 160.333333333 730 179 722 195 706 c 128
 211 690 219 671.333333333 219 650 c 256
 219 628.666666667 211.166666667 610.166666667 195.5 594.5 c 128
 179.833333333 578.833333333 161 571 139 571 c 0
 117.666666667 571 99 578.666666667 83 594 c 128
 67 609.333333333 59 628 59 650 c 0
 59 671.333333333 67 690 83 706 c 128
 99 722 117.666666667 730 139 730 c 256
EndSplineSet
EndChar
StartChar: k
Encoding: 107 107 73
Width: 544
Flags: W
HStem: 3 730<67.4592 212.349> 460 20G<377.667 397 465 515> 717 20G<58 69 208 221>
VStem: 62.5 150.5<5.18994 237 280 732.556>
AnchorPoint: "above" 140 798 basechar 0
AnchorPoint: "circum" 140 798 basechar 0
LayerCount: 2
Fore
SplineSet
67 396 m 0x90
 67 443.333333333 65.5 509.833333333 62.5 595.5 c 0
 59.5 681.166666667 58 728.333333333 58 737 c 1x30
 80 734.333333333 105 733 133 733 c 0x90
 165.666666667 733 195 734.333333333 221 737 c 1
 221 706.333333333 219.666666667 655.666666667 217 585 c 0
 214.333333333 514.333333333 213 464 213 434 c 2
 213 280 l 1
 247.666666667 307.333333333 278.666666667 336.666666667 306 368 c 0
 333.333333333 399.333333333 362.333333333 436.666666667 393 480 c 1
 401 480 413 479.666666667 429 479 c 0
 445 478.333333333 457 478 465 478 c 2
 511 480 l 1x70
 515 473 l 1
 453 415 l 1
 343 306 l 1
 375.666666667 248 414.333333333 183 459 111 c 2
 528 0 l 1
 515.333333333 0 498.166666667 0.833333333333 476.5 2.5 c 0
 454.833333333 4.16666666667 442 5 438 5 c 0
 424.666666667 5 407.666666667 4.16666666667 387 2.5 c 0
 366.333333333 0.833333333333 354.333333333 0 351 0 c 1
 329 40 304.833333333 82 278.5 126 c 0
 252.166666667 170 230.333333333 207 213 237 c 1
 213 210.333333333 213.666666667 165.333333333 215 102 c 0
 216.333333333 38.6666666667 217 4.66666666667 217 0 c 1
 138 3 l 1
 58 0 l 1
 58 54.6666666667 59.5 131.5 62.5 230.5 c 0
 65.5 329.5 67 384.666666667 67 396 c 0x90
EndSplineSet
EndChar
StartChar: l
Encoding: 108 108 77
Width: 293
Flags: W
LayerCount: 2
Fore
SplineSet
71 361 m 0,0,1
 71 417 71 417 68.5 505 c 128,-1,2
 66 593 66 593 66 607 c 2,3,-1
 62 737 l 1,4,5
 90 734 90 734 111 732 c 128,-1,6
 132 730 132 730 145 730 c 0,7,8
 167 730 167 730 190.5 733 c 128,-1,9
 214 736 214 736 227 737 c 1,10,11
 227 659 227 659 222.5 518 c 128,-1,12
 218 377 218 377 218 361 c 2,13,-1
 221 130 l 1,14,-1
 227 0 l 1,15,16
 222 1 222 1 189.5 4 c 128,-1,17
 157 7 157 7 145 7 c 0,18,19
 122 7 122 7 100 4.5 c 128,-1,20
 78 2 78 2 62 0 c 1,21,22
 62 75 62 75 66.5 210.5 c 128,-1,23
 71 346 71 346 71 361 c 0,0,1
EndSplineSet
EndChar
StartChar: m
Encoding: 109 109 78
Width: 876
Flags: W
LayerCount: 2
Fore
SplineSet
66 237 m 0,0,1
 66 284 66 284 62 372.5 c 128,-1,2
 58 461 58 461 58 480 c 1,3,-1
 133 477 l 1,4,-1
 211 480 l 1,5,-1
 211 411 l 1,6,7
 241 446 241 446 283 469 c 128,-1,8
 325 492 325 492 369 492 c 0,9,10
 418 492 418 492 453 470.5 c 128,-1,11
 488 449 488 449 505 403 c 1,12,13
 529 447 529 447 571 469.5 c 128,-1,14
 613 492 613 492 665 492 c 0,15,16
 730 492 730 492 771 450 c 128,-1,17
 812 408 812 408 812 344 c 2,18,-1
 811 239 l 2,19,20
 811 198 811 198 814.5 114 c 128,-1,21
 818 30 818 30 818 0 c 1,22,23
 805 0 805 0 772 2 c 128,-1,24
 739 4 739 4 735 4 c 0,25,26
 721 4 721 4 688.5 2 c 128,-1,27
 656 0 656 0 653 0 c 1,28,29
 653 37 653 37 656.5 112 c 128,-1,30
 660 187 660 187 660 215 c 2,31,-1
 660 278 l 2,32,33
 660 330 660 330 646.5 364.5 c 128,-1,34
 633 399 633 399 590 399 c 0,35,36
 562 399 562 399 544.5 380.5 c 128,-1,37
 527 362 527 362 519 332 c 1,38,39
 515 307 515 307 513.5 274.5 c 128,-1,40
 512 242 512 242 512 230 c 0,41,42
 512 191 512 191 515.5 110.5 c 128,-1,43
 519 30 519 30 519 0 c 1,44,45
 501 0 501 0 473 2.5 c 128,-1,46
 445 5 445 5 439 5 c 0,47,48
 422 5 422 5 393 2.5 c 128,-1,49
 364 0 364 0 358 0 c 1,50,51
 358 37 358 37 361.5 112 c 128,-1,52
 365 187 365 187 365 215 c 2,53,-1
 364 278 l 2,54,55
 364 329 364 329 351 364 c 128,-1,56
 338 399 338 399 295 399 c 0,57,58
 267 399 267 399 249.5 380.5 c 128,-1,59
 232 362 232 362 224 332 c 1,60,61
 220 307 220 307 218.5 274.5 c 128,-1,62
 217 242 217 242 217 230 c 0,63,64
 217 191 217 191 220.5 110.5 c 128,-1,65
 224 30 224 30 224 0 c 1,66,67
 205 0 205 0 175.5 2.5 c 128,-1,68
 146 5 146 5 141 5 c 0,69,70
 123 5 123 5 93 2.5 c 128,-1,71
 63 0 63 0 58 0 c 1,72,73
 58 39 58 39 62 118 c 128,-1,74
 66 197 66 197 66 237 c 0,0,1
EndSplineSet
EndChar
StartChar: n
Encoding: 110 110 79
Width: 582
Flags: W
LayerCount: 2
Fore
SplineSet
66 244 m 0,0,1
 66 282 66 282 62 368.5 c 128,-1,2
 58 455 58 455 58 480 c 1,3,4
 91 477 91 477 99.5 476.5 c 128,-1,5
 108 476 108 476 130 476 c 0,6,7
 155 476 155 476 180 476 c 1,8,9
 201 479 201 479 211 480 c 1,10,-1
 211 409 l 1,11,12
 240 444 240 444 282 467 c 128,-1,13
 324 490 324 490 367 490 c 0,14,15
 433 490 433 490 476 449 c 128,-1,16
 519 408 519 408 519 342 c 2,17,-1
 518 237 l 2,18,19
 518 207 518 207 521.5 124.5 c 128,-1,20
 525 42 525 42 525 0 c 1,21,22
 512 0 512 0 486 2 c 128,-1,23
 460 4 460 4 446 4 c 256,24,25
 432 4 432 4 398.5 2 c 128,-1,26
 365 0 365 0 362 0 c 1,27,28
 362 42 362 42 365.5 126 c 128,-1,29
 369 210 369 210 369 240 c 2,30,-1
 369 258 l 2,31,32
 369 283 369 283 366 307 c 1,33,34
 366 343 366 343 348.5 370 c 128,-1,35
 331 397 331 397 297 397 c 0,36,37
 274 397 274 397 256.5 384.5 c 128,-1,38
 239 372 239 372 230 350.5 c 128,-1,39
 221 329 221 329 218.5 302 c 128,-1,40
 216 275 216 275 216 238 c 0,41,42
 216 190 216 190 219.5 107 c 128,-1,43
 223 24 223 24 223 0 c 1,44,45
 206 0 206 0 176.5 2.5 c 128,-1,46
 147 5 147 5 141 5 c 0,47,48
 123 5 123 5 93 2.5 c 128,-1,49
 63 0 63 0 58 0 c 1,50,51
 58 47 58 47 62 135.5 c 128,-1,52
 66 224 66 224 66 244 c 0,0,1
EndSplineSet
EndChar
StartChar: p
Encoding: 112 112 78
Width: 594
Flags: W
HStem: -277 21G<59 65.3333 214.667 221.558> -271 746<67.0273 212.981> -11 68<269.998 361.191> 415 77<276.391 364.652> 460 20G<59.6202 73.3333 208.333 219.333>
VStem: 66 151<-276.023 -273 -271 61 96.1418 374.039 418 474.58> 401 155<111.349 357.696>
AnchorPoint: "circum" 319 532 basechar 0
AnchorPoint: "above" 319 532 basechar 0
LayerCount: 2
Fore
SplineSet
361 492 m 0x16
 425.666666667 492 474.333333333 466 507 414 c 0
 539.666666667 362 556 301.333333333 556 232 c 0
 556 163.333333333 539 105.666666667 505 59 c 0
 471 12.3333333333 420.666666667 -11 354 -11 c 0
 296 -11 250.333333333 13 217 61 c 1
 217 -51 l 1
 222 -277 l 1xb6
 207.333333333 -275.666666667 193.166666667 -274.333333333 179.5 -273 c 0
 165.833333333 -271.666666667 153 -271 141 -271 c 256x46
 129 -271 115.5 -271.666666667 100.5 -273 c 0
 85.5 -274.333333333 71.6666666667 -275.666666667 59 -277 c 1
 59 -256.333333333 60.1666666667 -224.5 62.5 -181.5 c 0
 64.8333333333 -138.5 66 -109.666666667 66 -95 c 2
 63 351 l 1
 59 480 l 1x8e
 87.6666666667 476.666666667 115 475 141 475 c 0x46
 151 475 160.5 475.166666667 169.5 475.5 c 0
 178.5 475.833333333 195.666666667 477.333333333 221 480 c 1x0e
 217.666666667 456.666666667 216 436 216 418 c 1
 236 442 257.666666667 460.333333333 281 473 c 0
 304.333333333 485.666666667 331 492 361 492 c 0x16
310 57 m 0
 320.666666667 57 330.666666667 58.8333333333 340 62.5 c 0
 349.333333333 66.1666666667 359.666666667 74.8333333333 371 88.5 c 0
 382.333333333 102.166666667 390.166666667 121.833333333 394.5 147.5 c 0
 398.833333333 173.166666667 401 205 401 243 c 0
 401 288.333333333 395 328.333333333 383 363 c 0
 371 397.666666667 346.666666667 415 310 415 c 0
 271.333333333 415 245.666666667 397.166666667 233 361.5 c 0
 220.333333333 325.833333333 214 284 214 236 c 0
 214 187.333333333 220.166666667 145.333333333 232.5 110 c 0
 244.833333333 74.6666666667 270.666666667 57 310 57 c 0
EndSplineSet
EndChar
StartChar: q
Encoding: 113 113 82
Width: 594
Flags: W
LayerCount: 2
Fore
SplineSet
239 -11 m 0,0,1
 138 -11 138 -11 87.5 58.5 c 128,-1,2
 37 128 37 128 37 233 c 256,3,4
 37 338 37 338 85 415 c 128,-1,5
 133 492 133 492 233 492 c 0,6,7
 322 492 322 492 377 418 c 1,8,-1
 377 436 l 2,9,10
 377 455 377 455 372 480 c 1,11,12
 410 476 410 476 423 475.5 c 128,-1,13
 436 475 436 475 452 475 c 0,14,15
 487 475 487 475 534 480 c 1,16,17
 534 404 534 404 532 299.5 c 128,-1,18
 530 195 530 195 528 90.5 c 128,-1,19
 526 -14 526 -14 526 -90 c 0,20,21
 526 -119 526 -119 530 -178 c 128,-1,22
 534 -237 534 -237 534 -268 c 1,23,24
 518 -264 518 -264 495.5 -262 c 128,-1,25
 473 -260 473 -260 453 -260 c 0,26,27
 419 -260 419 -260 406 -261.5 c 128,-1,28
 393 -263 393 -263 371 -268 c 1,29,-1
 377 -42 l 1,30,-1
 377 61 l 1,31,32
 348 25 348 25 315.5 7 c 128,-1,33
 283 -11 283 -11 239 -11 c 0,0,1
279 58 m 0,34,35
 327 58 327 58 350 97 c 128,-1,36
 373 136 373 136 378 188 c 1,37,-1
 379 216 l 2,38,39
 379 238 379 238 379 253 c 128,-1,40
 379 268 379 268 378 283 c 1,41,42
 378 332 378 332 354.5 373.5 c 128,-1,43
 331 415 331 415 284 415 c 0,44,45
 227 415 227 415 209.5 362 c 128,-1,46
 192 309 192 309 192 236 c 0,47,48
 192 165 192 165 208 111.5 c 128,-1,49
 224 58 224 58 279 58 c 0,34,35
EndSplineSet
EndChar
StartChar: r
Encoding: 114 114 83
Width: 375
Flags: W
LayerCount: 2
Fore
SplineSet
66 235 m 256,0,1
 66 275 66 275 62 357 c 128,-1,2
 58 439 58 439 58 480 c 1,3,-1
 131 476 l 2,4,5
 145 476 145 476 177.5 478 c 128,-1,6
 210 480 210 480 214 480 c 1,7,8
 207 454 207 454 204.5 426.5 c 128,-1,9
 202 399 202 399 202 363 c 1,10,-1
 208 363 l 1,11,12
 225 419 225 419 258 455.5 c 128,-1,13
 291 492 291 492 342 492 c 1,14,-1
 364 490 l 1,15,16
 359 453 359 453 357 410.5 c 128,-1,17
 355 368 355 368 355 329 c 1,18,19
 340 337 340 337 323 343.5 c 128,-1,20
 306 350 306 350 293 350 c 0,21,22
 248 350 248 350 231.5 316.5 c 128,-1,23
 215 283 215 283 215 233 c 0,24,25
 215 150 215 150 216.5 106 c 128,-1,26
 218 62 218 62 224 0 c 1,27,28
 208 0 208 0 178.5 2.5 c 128,-1,29
 149 5 149 5 141 5 c 0,30,31
 124 5 124 5 94 2.5 c 128,-1,32
 64 0 64 0 58 0 c 1,33,34
 58 39 58 39 62 117 c 128,-1,35
 66 195 66 195 66 235 c 256,0,1
EndSplineSet
EndChar
StartChar: s
Encoding: 115 115 81
Width: 420
Flags: HWO
AnchorPoint: "circum" 228 552 basechar 0
AnchorPoint: "above" 228 552 basechar 0
LayerCount: 2
Fore
SplineSet
69 142 m 1
 79 111.333333333 93.5 86.8333333333 112.5 68.5 c 128
 131.5 50.1666666667 155.666666667 41 185 41 c 0
 206.333333333 41 226 46 244 56 c 128
 262 66 271 81 271 101 c 0
 271 127.666666667 232 156.333333333 154 187 c 128
 76 217.666666667 37 265 37 329 c 0
 37 380.333333333 55.8333333333 420.333333333 93.5 449 c 128
 131.166666667 477.666666667 176.666666667 492 230 492 c 0
 252.666666667 492 274.666666667 489.333333333 296 484 c 128
 317.333333333 478.666666667 342.333333333 470.666666667 371 460 c 1
 334 350 l 1
 324 350 l 1
 316 377.333333333 303.5 398.833333333 286.5 414.5 c 128
 269.5 430.166666667 247 438 219 438 c 0
 200.333333333 438 183.833333333 433.333333333 169.5 424 c 128
 155.166666667 414.666666667 148 400.666666667 148 382 c 0
 148 357.333333333 188.5 330.333333333 269.5 301 c 128
 350.5 271.666666667 391 226 391 164 c 0
 391 108.666666667 372.166666667 65.6666666667 334.5 35 c 128
 296.833333333 4.33333333333 249.333333333 -11 192 -11 c 0
 160.666666667 -11 132.333333333 -8.83333333333 107 -4.5 c 128
 81.6666666667 -0.166666666667 56.3333333333 7.66666666667 31 19 c 1
 55 142 l 1
 69 142 l 1
EndSplineSet
EndChar
StartChar: t
Encoding: 116 116 85
Width: 333
Flags: W
LayerCount: 2
Fore
SplineSet
7 419 m 1,0,-1
 8 451 l 1,1,-1
 7 483 l 1,2,3
 18 481 18 481 39.5 480.5 c 128,-1,4
 61 480 61 480 74 480 c 1,5,-1
 74 495 l 1,6,-1
 74 507 l 2,7,8
 74 551 74 551 68 593 c 1,9,10
 106 604 106 604 138.5 619 c 128,-1,11
 171 634 171 634 215 658 c 1,12,-1
 236 658 l 1,13,14
 233 641 233 641 230 614.5 c 128,-1,15
 227 588 227 588 227 570 c 2,16,-1
 227 480 l 1,17,-1
 248 480 l 2,18,19
 279 480 279 480 312 483 c 1,20,-1
 310 453 l 1,21,-1
 312 419 l 1,22,-1
 225 420 l 1,23,-1
 223 163 l 2,24,25
 223 108 223 108 232.5 77.5 c 128,-1,26
 242 47 242 47 284 47 c 0,27,28
 308 47 308 47 338 52 c 1,29,-1
 334 7 l 1,30,31
 307 -3 307 -3 275 -8 c 128,-1,32
 243 -13 243 -13 211 -13 c 0,33,34
 142 -13 142 -13 105.5 18.5 c 128,-1,35
 69 50 69 50 69 119 c 256,36,37
 69 188 69 188 71.5 295.5 c 128,-1,38
 74 403 74 403 74 420 c 1,39,-1
 7 419 l 1,0,-1
EndSplineSet
EndChar
StartChar: u
Encoding: 117 117 83
Width: 582
Flags: W
HStem: -11 92<189 297.322> 1 472<369.656 512.896> 460 20G<54 62.3333 213.667 216.216 356 365.333 516.667 521>
VStem: 60 151<107.307 479.019> 359 158<107.575 471.952>
AnchorPoint: "tails" 445 3 basechar 0
AnchorPoint: "above" 284 552 basechar 0
AnchorPoint: "circum" 284 552 basechar 0
LayerCount: 2
Fore
SplineSet
211 -11 m 0x98
 167 -11 130.833333333 2.5 102.5 29.5 c 0
 74.1666666667 56.5 60 92 60 136 c 2
 61 242 l 2
 61 269.333333333 59.8333333333 310.666666667 57.5 366 c 0
 55.1666666667 421.333333333 54 459.333333333 54 480 c 1xb8
 70.6666666667 478 86.5 476.333333333 101.5 475 c 0
 116.5 473.666666667 127.333333333 473 134 473 c 0x58
 150 473 166.166666667 474 182.5 476 c 0
 198.833333333 478 210.333333333 479.333333333 217 480 c 1
 211 327 l 1
 210 275 l 1
 211 201 l 2
 211 155 217.333333333 123.5 230 106.5 c 0
 242.666666667 89.5 261 81 285 81 c 0
 307.666666667 81 324.666666667 89.3333333333 336 106 c 0
 347.333333333 122.666666667 355 143.666666667 359 169 c 1
 362 239 l 1
 362 265.666666667 361 305.666666667 359 359 c 0
 357 412.333333333 356 452.666666667 356 480 c 1xb8
 374.666666667 478 391.5 476.333333333 406.5 475 c 0
 421.5 473.666666667 433.333333333 473 442 473 c 0x58
 455.333333333 473 469.666666667 474 485 476 c 0
 500.333333333 478 512.333333333 479.333333333 521 480 c 1x38
 521 452.666666667 519.666666667 411.666666667 517 357 c 0
 514.333333333 302.333333333 513 261.666666667 513 235 c 0
 513 209 514.333333333 170 517 118 c 0
 519.666666667 66 521 27 521 1 c 1
 445 3 l 1
 369 1 l 1x58
 369 68 l 1
 349.666666667 44.6666666667 325.833333333 25.6666666667 297.5 11 c 0
 269.166666667 -3.66666666667 240.333333333 -11 211 -11 c 0x98
EndSplineSet
EndChar
StartChar: v
Encoding: 118 118 87
Width: 480
Flags: W
LayerCount: 2
Fore
SplineSet
0 480 m 1,0,1
 19 480 19 480 54 477.5 c 128,-1,2
 89 475 89 475 95 475 c 0,3,4
 113 475 113 475 145.5 477.5 c 128,-1,5
 178 480 178 480 184 480 c 1,6,-1
 211 380 l 1,7,-1
 279 161 l 1,8,9
 341 322 341 322 379 480 c 1,10,-1
 429 475 l 1,11,12
 440 475 440 475 459 477.5 c 128,-1,13
 478 480 478 480 482 480 c 1,14,15
 434 364 434 364 390 247.5 c 128,-1,16
 346 131 346 131 301 0 c 1,17,18
 285 2 285 2 265.5 3.5 c 128,-1,19
 246 5 246 5 238 5 c 0,20,21
 224 5 224 5 201.5 2.5 c 128,-1,22
 179 0 179 0 176 0 c 1,23,24
 133 134 133 134 93 245 c 128,-1,25
 53 356 53 356 0 480 c 1,0,1
EndSplineSet
EndChar
StartChar: w
Encoding: 119 119 88
Width: 750
Flags: W
LayerCount: 2
Fore
SplineSet
218 4 m 0,0,1
 203 4 203 4 194.5 3.5 c 128,-1,2
 186 3 186 3 155 0 c 1,3,-1
 5 480 l 1,4,5
 24 480 24 480 55.5 477.5 c 128,-1,6
 87 475 87 475 93 475 c 0,7,8
 111 475 111 475 142 477.5 c 128,-1,9
 173 480 173 480 179 480 c 1,10,11
 211 329 211 329 259 171 c 1,12,-1
 317 364 l 1,13,-1
 349 480 l 1,14,15
 362 480 362 480 389 477.5 c 128,-1,16
 416 475 416 475 418 475 c 0,17,18
 431 475 431 475 459 477.5 c 128,-1,19
 487 480 487 480 488 480 c 0,20,21
 501 422 501 422 513 374.5 c 128,-1,22
 525 327 525 327 539 276 c 2,23,-1
 569 171 l 1,24,-1
 616 342 l 2,25,26
 621 361 621 361 630.5 400 c 128,-1,27
 640 439 640 439 648 480 c 1,28,29
 661 479 661 479 676.5 477 c 128,-1,30
 692 475 692 475 701 475 c 0,31,32
 719 475 719 475 732.5 477 c 128,-1,33
 746 479 746 479 755 480 c 1,34,-1
 689 304 l 1,35,-1
 585 0 l 1,36,37
 559 2 559 2 547 3 c 128,-1,38
 535 4 535 4 524 4 c 256,39,40
 513 4 513 4 488.5 2 c 128,-1,41
 464 0 464 0 463 0 c 2,42,-1
 405 207 l 1,43,-1
 376 304 l 1,44,45
 328 159 328 159 282 0 c 1,46,47
 255 2 255 2 242 3 c 128,-1,48
 229 4 229 4 218 4 c 0,0,1
EndSplineSet
EndChar
StartChar: x
Encoding: 120 120 89
Width: 464
Flags: W
LayerCount: 2
Fore
SplineSet
111 0 m 1,0,-1
 60 4 l 1,1,2
 33 4 33 4 20 3 c 1,3,4
 4 0 4 0 -4 0 c 1,5,6
 39 54 39 54 78.5 107 c 128,-1,7
 118 160 118 160 160 221 c 1,8,-1
 81 359 l 1,9,-1
 5 480 l 1,10,11
 27 480 27 480 61.5 477.5 c 128,-1,12
 96 475 96 475 101 475 c 0,13,14
 121 475 121 475 154.5 477.5 c 128,-1,15
 188 480 188 480 195 480 c 1,16,-1
 263 341 l 1,17,18
 286 375 286 375 301 400 c 128,-1,19
 316 425 316 425 346 480 c 1,20,-1
 398 475 l 1,21,22
 411 475 411 475 432.5 477.5 c 128,-1,23
 454 480 454 480 458 480 c 1,24,25
 417 431 417 431 386 390.5 c 128,-1,26
 355 350 355 350 301 277 c 1,27,-1
 386 128 l 2,28,29
 423 64 423 64 465 0 c 1,30,31
 446 0 446 0 411 2.5 c 128,-1,32
 376 5 376 5 371 5 c 0,33,34
 352 5 352 5 317 2.5 c 128,-1,35
 282 0 282 0 277 0 c 1,36,-1
 198 157 l 1,37,-1
 111 0 l 1,0,-1
EndSplineSet
EndChar
StartChar: y
Encoding: 121 121 90
Width: 470
Flags: W
LayerCount: 2
Fore
SplineSet
194 -12 m 1,0,-1
 55 346 l 2,1,2
 42 381 42 381 27 417 c 128,-1,3
 12 453 12 453 0 480 c 1,4,5
 16 480 16 480 48 478 c 128,-1,6
 80 476 80 476 97 476 c 0,7,8
 111 476 111 476 145 478 c 128,-1,9
 179 480 179 480 181 480 c 1,10,11
 200 404 200 404 222 334.5 c 128,-1,12
 244 265 244 265 274 184 c 1,13,-1
 326 333 l 2,14,15
 333 355 333 355 347.5 404.5 c 128,-1,16
 362 454 362 454 369 480 c 1,17,-1
 416 476 l 2,18,19
 427 476 427 476 449 478 c 128,-1,20
 471 480 471 480 482 480 c 1,21,22
 386 270 386 270 316 100 c 128,-1,23
 246 -70 246 -70 176 -269 c 1,24,25
 149 -265 149 -265 119 -265 c 0,26,27
 105 -265 105 -265 95.5 -265 c 128,-1,28
 86 -265 86 -265 62 -269 c 1,29,30
 86 -233 86 -233 104.5 -199.5 c 128,-1,31
 123 -166 123 -166 141 -127 c 2,32,-1
 194 -12 l 1,0,-1
EndSplineSet
EndChar
StartChar: z
Encoding: 122 122 91
Width: 478
Flags: W
LayerCount: 2
Fore
SplineSet
14 54 m 1,0,1
 24 68 24 68 85.5 155.5 c 128,-1,2
 147 243 147 243 185.5 299 c 128,-1,3
 224 355 224 355 259 408 c 1,4,-1
 184 409 l 2,5,6
 148 409 148 409 109 404.5 c 128,-1,7
 70 400 70 400 47 397 c 1,8,-1
 49 438 l 1,9,-1
 47 480 l 1,10,-1
 243 475 l 1,11,12
 291 475 291 475 365.5 477.5 c 128,-1,13
 440 480 440 480 452 480 c 1,14,-1
 452 423 l 1,15,16
 413 374 413 374 371.5 317.5 c 128,-1,17
 330 261 330 261 287.5 199 c 128,-1,18
 245 137 245 137 202 71 c 1,19,-1
 270 69 l 2,20,21
 301 69 301 69 365 73 c 128,-1,22
 429 77 429 77 461 77 c 1,23,24
 460 67 460 67 459.5 55 c 128,-1,25
 459 43 459 43 459 37 c 2,26,-1
 459 25 l 1,27,-1
 461 0 l 1,28,29
 409 0 409 0 331 2.5 c 128,-1,30
 253 5 253 5 240 5 c 0,31,32
 187 5 187 5 106.5 2.5 c 128,-1,33
 26 0 26 0 14 0 c 1,34,-1
 14 54 l 1,0,1
EndSplineSet
EndChar
StartChar: braceleft
Encoding: 123 123 92
Width: 492
Flags: W
LayerCount: 2
Fore
SplineSet
423 608 m 1,0,-1
 389 608 l 2,1,2
 351 608 351 608 337.5 591.5 c 128,-1,3
 324 575 324 575 321.5 566 c 128,-1,4
 319 557 319 557 319 542 c 2,5,-1
 319 513 l 1,6,-1
 319 398 l 2,7,8
 319 335 319 335 300 305.5 c 128,-1,9
 281 276 281 276 219 255 c 1,10,11
 276 242 276 242 297.5 207 c 128,-1,12
 319 172 319 172 319 112 c 2,13,-1
 319 -4 l 2,14,15
 319 -54 319 -54 335.5 -76 c 128,-1,16
 352 -98 352 -98 400 -98 c 2,17,-1
 423 -98 l 1,18,-1
 423 -199 l 1,19,-1
 347 -198 l 1,20,21
 286 -193 286 -193 247.5 -168.5 c 128,-1,22
 209 -144 209 -144 202 -88 c 1,23,-1
 202 -36 l 1,24,-1
 202 84 l 2,25,26
 202 140 202 140 177.5 172 c 128,-1,27
 153 204 153 204 99 204 c 2,28,-1
 75 204 l 1,29,-1
 75 304 l 1,30,31
 145 304 145 304 173.5 330 c 128,-1,32
 202 356 202 356 202 424 c 2,33,-1
 202 545 l 1,34,-1
 202 599 l 1,35,36
 211 662 211 662 256 685 c 128,-1,37
 301 708 301 708 373 708 c 2,38,-1
 423 708 l 1,39,-1
 423 608 l 1,0,-1
EndSplineSet
EndChar
StartChar: bar
Encoding: 124 124 93
Width: 492
Flags: W
LayerCount: 2
Fore
SplineSet
296 688 m 1,0,-1
 296 322 l 1,1,-1
 196 322 l 1,2,-1
 196 688 l 1,3,-1
 296 688 l 1,0,-1
296 196 m 1,4,-1
 296 -168 l 1,5,-1
 196 -168 l 1,6,-1
 196 196 l 1,7,-1
 296 196 l 1,4,-1
EndSplineSet
EndChar
StartChar: braceright
Encoding: 125 125 94
Width: 492
Flags: W
LayerCount: 2
Fore
SplineSet
91 708 m 2,0,1
 175 708 175 708 232 688 c 128,-1,2
 289 668 289 668 289 599 c 1,3,-1
 290 545 l 1,4,-1
 290 424 l 2,5,6
 290 369 290 369 304.5 344.5 c 128,-1,7
 319 320 319 320 341 313 c 128,-1,8
 363 306 363 306 388.5 305 c 128,-1,9
 414 304 414 304 417 304 c 1,10,-1
 417 204 l 1,11,12
 347 204 347 204 318.5 180 c 128,-1,13
 290 156 290 156 290 84 c 2,14,-1
 290 -36 l 2,15,16
 290 -106 290 -106 268.5 -146.5 c 128,-1,17
 247 -187 247 -187 204.5 -192 c 128,-1,18
 162 -197 162 -197 129 -198 c 128,-1,19
 96 -199 96 -199 67 -199 c 1,20,-1
 67 -98 l 1,21,22
 118 -98 118 -98 145.5 -86.5 c 128,-1,23
 173 -75 173 -75 173 -31 c 2,24,-1
 173 -3 l 1,25,-1
 173 112 l 2,26,27
 173 174 173 174 194 205.5 c 128,-1,28
 215 237 215 237 274 255 c 1,29,30
 214 273 214 273 193.5 303.5 c 128,-1,31
 173 334 173 334 173 398 c 2,32,-1
 173 513 l 2,33,34
 173 555 173 555 164 579 c 128,-1,35
 155 603 155 603 120 607 c 1,36,-1
 67 608 l 1,37,-1
 67 708 l 1,38,-1
 91 708 l 2,0,1
EndSplineSet
EndChar
StartChar: asciitilde
Encoding: 126 126 95
Width: 984
Flags: W
LayerCount: 2
Fore
SplineSet
786 676 m 1,0,1
 786 582 786 582 744.5 520 c 128,-1,2
 703 458 703 458 611 458 c 0,3,4
 546 458 546 458 476.5 518.5 c 128,-1,5
 407 579 407 579 374 579 c 0,6,7
 327 579 327 579 308.5 544.5 c 128,-1,8
 290 510 290 510 290 458 c 1,9,-1
 192 458 l 1,10,11
 192 548 192 548 236 611.5 c 128,-1,12
 280 675 280 675 368 675 c 0,13,14
 432 675 432 675 502 614 c 128,-1,15
 572 553 572 553 610 553 c 0,16,17
 657 553 657 553 673 587.5 c 128,-1,18
 689 622 689 622 689 676 c 1,19,-1
 786 676 l 1,0,1
EndSplineSet
EndChar
StartChar: sterling
Encoding: 163 163 110
Width: 539
Flags: W
LayerCount: 2
Fore
SplineSet
40 64 m 0,0,1
 40 85 40 85 38 103 c 128,-1,2
 36 121 36 121 35 131 c 1,3,4
 73 131 73 131 100.5 143 c 128,-1,5
 128 155 128 155 134 182.5 c 128,-1,6
 140 210 140 210 140 226 c 2,7,-1
 138 307 l 1,8,-1
 111 309 l 1,9,10
 93 309 93 309 72 306.5 c 128,-1,11
 51 304 51 304 41 304 c 1,12,-1
 45 337 l 1,13,-1
 41 369 l 1,14,15
 59 366 59 366 82 364.5 c 128,-1,16
 105 363 105 363 133 363 c 1,17,18
 124 398 124 398 124 431 c 0,19,20
 124 539 124 539 187 597 c 128,-1,21
 250 655 250 655 360 655 c 0,22,23
 449 655 449 655 529 611 c 1,24,25
 518 583 518 583 512 560.5 c 128,-1,26
 506 538 506 538 498 501 c 1,27,-1
 474 501 l 1,28,29
 465 546 465 546 442 573 c 128,-1,30
 419 600 419 600 377 600 c 0,31,32
 328 600 328 600 300.5 567 c 128,-1,33
 273 534 273 534 273 484 c 0,34,35
 273 460 273 460 277 420.5 c 128,-1,36
 281 381 281 381 282 364 c 1,37,-1
 334 364 l 1,38,-1
 346 364 l 2,39,40
 361 364 361 364 374.5 364.5 c 128,-1,41
 388 365 388 365 431 369 c 1,42,-1
 428 336 l 1,43,-1
 431 304 l 1,44,-1
 356 307 l 1,45,-1
 282 307 l 1,46,47
 276 244 276 244 247.5 207 c 128,-1,48
 219 170 219 170 158 133 c 1,49,-1
 391 136 l 1,50,-1
 522 141 l 1,51,52
 519 126 519 126 516 105.5 c 128,-1,53
 513 85 513 85 513 71 c 256,54,55
 513 57 513 57 514.5 45 c 128,-1,56
 516 33 516 33 522 0 c 1,57,58
 481 0 481 0 402 3 c 128,-1,59
 323 6 323 6 282 6 c 256,60,61
 241 6 241 6 159 3 c 128,-1,62
 77 0 77 0 35 0 c 1,63,64
 36 12 36 12 38 34 c 128,-1,65
 40 56 40 56 40 64 c 0,0,1
EndSplineSet
EndChar
StartChar: yen
Encoding: 165 165 130
Width: 550
Flags: W
LayerCount: 2
Fore
SplineSet
28 182 m 1,0,-1
 28 242 l 1,1,-1
 116 239 l 1,2,-1
 200 239 l 1,3,-1
 200 300 l 1,4,5
 163 300 163 300 101.5 297.5 c 128,-1,6
 40 295 40 295 28 295 c 1,7,-1
 28 356 l 1,8,9
 63 350 63 350 95 350 c 2,10,-1
 165 350 l 1,11,-1
 104 464 l 1,12,13
 83 507 83 507 63.5 541 c 128,-1,14
 44 575 44 575 6 639 c 1,15,16
 25 639 25 639 59.5 636.5 c 128,-1,17
 94 634 94 634 100 634 c 0,18,19
 121 634 121 634 154 636.5 c 128,-1,20
 187 639 187 639 192 639 c 1,21,22
 252 501 252 501 313 381 c 1,23,24
 345 441 345 441 378.5 509 c 128,-1,25
 412 577 412 577 439 639 c 1,26,27
 450 638 450 638 462 637.5 c 128,-1,28
 474 637 474 637 486 637 c 2,29,-1
 542 639 l 1,30,31
 471 525 471 525 434.5 462 c 128,-1,32
 398 399 398 399 373 350 c 1,33,-1
 521 356 l 1,34,-1
 521 295 l 1,35,36
 482 295 482 295 420.5 297.5 c 128,-1,37
 359 300 359 300 350 300 c 1,38,-1
 350 239 l 1,39,-1
 521 242 l 1,40,-1
 521 182 l 1,41,42
 498 182 498 182 436 184 c 128,-1,43
 374 186 374 186 350 186 c 1,44,45
 350 154 350 154 353.5 89 c 128,-1,46
 357 24 357 24 357 0 c 1,47,-1
 279 4 l 2,48,49
 263 4 263 4 228.5 2 c 128,-1,50
 194 0 194 0 191 0 c 1,51,52
 196 43 196 43 198 91.5 c 128,-1,53
 200 140 200 140 200 186 c 1,54,55
 170 186 170 186 101.5 184 c 128,-1,56
 33 182 33 182 28 182 c 1,0,-1
EndSplineSet
EndChar
StartChar: section
Encoding: 167 167 125
Width: 535
Flags: W
LayerCount: 2
Fore
SplineSet
85 28 m 1,0,-1
 98 28 l 1,1,2
 108 -23 108 -23 149.5 -52 c 128,-1,3
 191 -81 191 -81 246 -81 c 0,4,5
 287 -81 287 -81 318 -60.5 c 128,-1,6
 349 -40 349 -40 349 -1 c 0,7,8
 349 53 349 53 272.5 87.5 c 128,-1,9
 196 122 196 122 123 154 c 1,10,11
 44 200 44 200 44 278 c 0,12,13
 44 315 44 315 68.5 357 c 128,-1,14
 93 399 93 399 126 421 c 1,15,16
 106 443 106 443 94.5 467.5 c 128,-1,17
 83 492 83 492 83 519 c 0,18,19
 83 594 83 594 148 638.5 c 128,-1,20
 213 683 213 683 293 683 c 0,21,22
 345 683 345 683 382.5 675 c 128,-1,23
 420 667 420 667 454 644 c 1,24,25
 442 619 442 619 431 594.5 c 128,-1,26
 420 570 420 570 411 543 c 1,27,-1
 402 543 l 1,28,29
 395 585 395 585 360 610.5 c 128,-1,30
 325 636 325 636 280 636 c 0,31,32
 245 636 245 636 216.5 617.5 c 128,-1,33
 188 599 188 599 188 565 c 0,34,35
 188 516 188 516 264 483.5 c 128,-1,36
 340 451 340 451 414 420 c 1,37,38
 493 374 493 374 493 298 c 0,39,40
 493 255 493 255 473.5 217.5 c 128,-1,41
 454 180 454 180 418 156 c 1,42,43
 434 142 434 142 448.5 107.5 c 128,-1,44
 463 73 463 73 463 49 c 0,45,46
 463 -37 463 -37 392.5 -84 c 128,-1,47
 322 -131 322 -131 232 -131 c 0,48,49
 184 -131 184 -131 142 -123.5 c 128,-1,50
 100 -116 100 -116 62 -97 c 1,51,52
 77 -28 77 -28 85 28 c 1,0,-1
142 344 m 1,53,54
 142 288 142 288 223.5 249.5 c 128,-1,55
 305 211 305 211 375 179 c 1,56,57
 393 197 393 197 393 225 c 0,58,59
 393 273 393 273 312 311 c 128,-1,60
 231 349 231 349 162 380 c 1,61,62
 145 366 145 366 142 344 c 1,53,54
EndSplineSet
EndChar
StartChar: copyright
Encoding: 169 169 123
Width: 819
Flags: HW
LayerCount: 2
Fore
SplineSet
766 350 m 0
 766 254 731 171 661 101 c 128
 591 31 507.666666667 -4 411 -4 c 256
 314.333333333 -4 230.333333333 31 159 101 c 128
 87.6666666667 171 52 254.666666667 52 352 c 0
 52 448 87.5 531.5 158.5 602.5 c 128
 229.5 673.5 313 709 409 709 c 0
 505.666666667 709 589.333333333 673.333333333 660 602 c 128
 730.666666667 530.666666667 766 446.666666667 766 350 c 0
112 353 m 0
 112 273 141.166666667 203.166666667 199.5 143.5 c 128
 257.833333333 83.8333333333 327.333333333 54 408 54 c 256
 488.666666667 54 558.666666667 83.3333333333 618 142 c 128
 677.333333333 200.666666667 707 270.333333333 707 351 c 0
 707 433.666666667 678 504.333333333 620 563 c 128
 562 621.666666667 491.666666667 651 409 651 c 0
 327.666666667 651 257.833333333 621.5 199.5 562.5 c 128
 141.166666667 503.5 112 433.666666667 112 353 c 0
492 430 m 1
 492 449.333333333 484 466 468 480 c 128
 452 494 433.666666667 501 413 501 c 0
 378.333333333 501 353.5 486.833333333 338.5 458.5 c 128
 323.5 430.166666667 316 397.333333333 316 360 c 256
 316 322.666666667 323 288 337 256 c 128
 351 224 374 208 406 208 c 0
 454.666666667 208 484.333333333 234 495 286 c 1
 587 286 l 1
 582.333333333 241.333333333 563.333333333 205.5 530 178.5 c 128
 496.666666667 151.5 457 138 411 138 c 0
 352.333333333 138 305.333333333 157.833333333 270 197.5 c 128
 234.666666667 237.166666667 217 287 217 347 c 0
 217 405.666666667 233.833333333 457 267.5 501 c 128
 301.166666667 545 346.333333333 567 403 567 c 0
 449 567 489 554.833333333 523 530.5 c 128
 557 506.166666667 576.666666667 472.666666667 582 430 c 1
 492 430 l 1
EndSplineSet
EndChar
StartChar: guillemotleft
Encoding: 171 171 132
Width: 453
Flags: W
LayerCount: 2
Fore
SplineSet
139 242 m 1,0,-1
 235 45 l 1,1,-1
 196 7 l 1,2,-1
 29 240 l 1,3,-1
 196 472 l 1,4,-1
 234 431 l 1,5,-1
 139 242 l 1,0,-1
319 242 m 1,6,-1
 414 45 l 1,7,-1
 375 7 l 1,8,-1
 208 240 l 1,9,-1
 375 472 l 1,10,-1
 414 431 l 1,11,-1
 319 242 l 1,6,-1
EndSplineSet
EndChar
StartChar: registered
Encoding: 174 174 123
Width: 819
Flags: W
LayerCount: 2
Fore
SplineSet
767 352 m 0,0,1
 767 206 767 206 661 101 c 128,-1,2
 555 -4 555 -4 409 -4 c 0,3,4
 264 -4 264 -4 158 101 c 128,-1,5
 52 206 52 206 52 352 c 0,6,7
 52 496 52 496 158.5 602.5 c 128,-1,8
 265 709 265 709 409 709 c 0,9,10
 555 709 555 709 661 604 c 128,-1,11
 767 499 767 499 767 352 c 0,0,1
112 352 m 256,12,13
 112 231 112 231 199.5 142.5 c 128,-1,14
 287 54 287 54 408 54 c 256,15,16
 529 54 529 54 618.5 142.5 c 128,-1,17
 708 231 708 231 708 351 c 0,18,19
 708 473 708 473 620 562 c 128,-1,20
 532 651 532 651 409 651 c 0,21,22
 288 651 288 651 200 562 c 128,-1,23
 112 473 112 473 112 352 c 256,12,13
416 557 m 2,24,25
 483 557 483 557 534 533 c 128,-1,26
 585 509 585 509 585 450 c 0,27,28
 585 410 585 410 561 379.5 c 128,-1,29
 537 349 537 349 499 337 c 1,30,-1
 587 161 l 1,31,-1
 481 161 l 1,32,-1
 404 322 l 1,33,-1
 358 322 l 1,34,-1
 358 161 l 1,35,-1
 260 161 l 1,36,-1
 260 557 l 1,37,-1
 416 557 l 2,24,25
358 380 m 1,38,-1
 405 380 l 2,39,40
 439 380 439 380 462 393 c 128,-1,41
 485 406 485 406 485 438 c 0,42,43
 485 459 485 459 472.5 475 c 128,-1,44
 460 491 460 491 438 493 c 1,45,46
 421 497 421 497 400 497 c 2,47,-1
 358 497 l 1,48,-1
 358 380 l 1,38,-1
EndSplineSet
EndChar
StartChar: degree
Encoding: 176 176 126
Width: 492
Flags: W
LayerCount: 2
Fore
SplineSet
119 658 m 0,0,1
 119 706 119 706 160 743 c 128,-1,2
 201 780 201 780 253 780 c 0,3,4
 303 780 303 780 338.5 748.5 c 128,-1,5
 374 717 374 717 374 667 c 0,6,7
 374 615 374 615 334.5 579.5 c 128,-1,8
 295 544 295 544 242 544 c 0,9,10
 191 544 191 544 155 576 c 128,-1,11
 119 608 119 608 119 658 c 0,0,1
174 652 m 0,12,13
 174 622 174 622 193.5 599.5 c 128,-1,14
 213 577 213 577 244 577 c 0,15,16
 280 577 280 577 299 603.5 c 128,-1,17
 318 630 318 630 318 668 c 0,18,19
 318 704 318 704 300.5 727 c 128,-1,20
 283 750 283 750 249 750 c 0,21,22
 224 750 224 750 203.5 733 c 128,-1,23
 183 716 183 716 178.5 693 c 128,-1,24
 174 670 174 670 174 652 c 0,12,13
EndSplineSet
EndChar
StartChar: plusminus
Encoding: 177 177 124
Width: 820
Flags: HW
LayerCount: 2
Fore
SplineSet
458 587 m 1
 458 430 l 1
 698 430 l 1
 698 335 l 1
 458 335 l 1
 458 177 l 1
 361 177 l 1
 361 335 l 1
 122 335 l 1
 122 430 l 1
 361 430 l 1
 361 587 l 1
 458 587 l 1
698 95 m 1
 698 0 l 1
 122 0 l 1
 122 95 l 1
 698 95 l 1
EndSplineSet
EndChar
StartChar: twosuperior
Encoding: 178 178 146
Width: 356
Flags: W
LayerCount: 2
Fore
SplineSet
16 289 m 1,0,1
 74 329 74 329 113 362 c 128,-1,2
 152 395 152 395 179.5 438 c 128,-1,3
 207 481 207 481 207 535 c 0,4,5
 207 578 207 578 193 594.5 c 128,-1,6
 179 611 179 611 156 611 c 0,7,8
 121 611 121 611 106 588.5 c 128,-1,9
 91 566 91 566 80 523 c 1,10,-1
 74 523 l 1,11,-1
 22 577 l 1,12,13
 84 649 84 649 177 649 c 0,14,15
 236 649 236 649 278 622.5 c 128,-1,16
 320 596 320 596 320 541 c 0,17,18
 320 491 320 491 296.5 463 c 128,-1,19
 273 435 273 435 145 339 c 1,20,-1
 205 339 l 2,21,22
 227 339 227 339 279 341 c 128,-1,23
 331 343 331 343 335 343 c 1,24,25
 329 317 329 317 329 298 c 0,26,27
 329 289 329 289 331 276 c 128,-1,28
 333 263 333 263 335 255 c 1,29,30
 297 255 297 255 239 256.5 c 128,-1,31
 181 258 181 258 180 258 c 2,32,-1
 20 255 l 1,33,-1
 16 289 l 1,0,1
EndSplineSet
EndChar
StartChar: threesuperior
Encoding: 179 179 147
Width: 356
Flags: W
LayerCount: 2
Fore
SplineSet
175 647 m 0,0,1
 227 647 227 647 266.5 624.5 c 128,-1,2
 306 602 306 602 306 555 c 0,3,4
 306 526 306 526 287.5 503.5 c 128,-1,5
 269 481 269 481 217 465 c 1,6,7
 259 463 259 463 291 436.5 c 128,-1,8
 323 410 323 410 323 369 c 0,9,10
 323 307 323 307 271 276.5 c 128,-1,11
 219 246 219 246 152 246 c 0,12,13
 110 246 110 246 78.5 253.5 c 128,-1,14
 47 261 47 261 13 282 c 1,15,16
 45 325 45 325 66 364 c 1,17,-1
 73 364 l 1,18,19
 73 326 73 326 88.5 302.5 c 128,-1,20
 104 279 104 279 140 279 c 0,21,22
 173 279 173 279 192 303 c 128,-1,23
 211 327 211 327 211 361 c 0,24,25
 211 396 211 396 191 418.5 c 128,-1,26
 171 441 171 441 135 441 c 1,27,-1
 109 440 l 1,28,-1
 109 475 l 1,29,-1
 131 474 l 1,30,31
 165 474 165 474 187 493 c 128,-1,32
 209 512 209 512 209 547 c 0,33,34
 209 576 209 576 193.5 596 c 128,-1,35
 178 616 178 616 150 616 c 0,36,37
 118 616 118 616 102 591.5 c 128,-1,38
 86 567 86 567 86 535 c 1,39,-1
 80 530 l 1,40,41
 55 560 55 560 19 587 c 1,42,43
 39 615 39 615 87 631 c 128,-1,44
 135 647 135 647 175 647 c 0,0,1
EndSplineSet
EndChar
StartChar: paragraph
Encoding: 182 182 121
Width: 425
Flags: W
LayerCount: 2
Fore
SplineSet
215 697 m 2,0,-1
 383 697 l 1,1,-1
 383 655 l 1,2,-1
 341 655 l 1,3,-1
 341 3 l 1,4,-1
 299 3 l 1,5,-1
 299 655 l 1,6,-1
 220 655 l 1,7,-1
 220 3 l 1,8,-1
 178 3 l 1,9,-1
 178 402 l 1,10,11
 118 402 118 402 72 433.5 c 128,-1,12
 26 465 26 465 19.5 497 c 128,-1,13
 13 529 13 529 13 536 c 0,14,15
 13 594 13 594 65.5 645.5 c 128,-1,16
 118 697 118 697 215 697 c 2,0,-1
EndSplineSet
EndChar
StartChar: onesuperior
Encoding: 185 185 145
Width: 356
Flags: W
LayerCount: 2
Fore
SplineSet
153 523 m 1,0,-1
 151 578 l 1,1,2
 134 573 134 573 113.5 563 c 128,-1,3
 93 553 93 553 74 544 c 1,4,-1
 48 582 l 1,5,6
 114 604 114 604 149.5 617.5 c 128,-1,7
 185 631 185 631 247 662 c 1,8,-1
 258 656 l 1,9,-1
 257 452 l 1,10,-1
 257 460 l 1,11,-1
 257 344 l 1,12,-1
 257 349 l 2,13,14
 257 325 257 325 257 309.5 c 128,-1,15
 257 294 257 294 261 255 c 1,16,-1
 223 258 l 1,17,-1
 146 255 l 1,18,19
 151 301 151 301 152 375 c 128,-1,20
 153 449 153 449 153 457 c 2,21,-1
 153 523 l 1,0,-1
EndSplineSet
EndChar
StartChar: guillemotright
Encoding: 187 187 133
Width: 453
Flags: W
LayerCount: 2
Fore
SplineSet
136 238 m 1,0,-1
 40 435 l 1,1,-1
 80 472 l 1,2,-1
 245 240 l 1,3,-1
 80 7 l 1,4,-1
 40 48 l 1,5,-1
 136 238 l 1,0,-1
316 238 m 1,6,-1
 220 435 l 1,7,-1
 259 472 l 1,8,-1
 424 240 l 1,9,-1
 259 7 l 1,10,-1
 220 48 l 1,11,-1
 316 238 l 1,6,-1
EndSplineSet
EndChar
StartChar: onehalf
Encoding: 189 189 149
Width: 843
Flags: W
LayerCount: 2
Fore
SplineSet
147 347 m 1,0,-1
 149 530 l 1,1,-1
 147 582 l 1,2,3
 128 575 128 575 107 565 c 128,-1,4
 86 555 86 555 74 550 c 1,5,-1
 49 586 l 1,6,7
 95 601 95 601 141 619.5 c 128,-1,8
 187 638 187 638 239 661 c 1,9,-1
 251 655 l 1,10,11
 251 608 251 608 249.5 536.5 c 128,-1,12
 248 465 248 465 248 464 c 2,13,-1
 248 468 l 1,14,-1
 248 364 l 1,15,-1
 248 368 l 2,16,17
 248 346 248 346 248 330.5 c 128,-1,18
 248 315 248 315 252 282 c 1,19,-1
 216 284 l 2,20,21
 203 284 203 284 178.5 283 c 128,-1,22
 154 282 154 282 143 282 c 1,23,-1
 147 347 l 1,0,-1
608 730 m 1,24,-1
 668 730 l 1,25,-1
 236 -90 l 1,26,-1
 176 -90 l 1,27,-1
 608 730 l 1,24,-1
519 30 m 1,28,29
 604 88 604 88 653.5 140 c 128,-1,30
 703 192 703 192 703 263 c 0,31,32
 703 294 703 294 692.5 312.5 c 128,-1,33
 682 331 682 331 652 331 c 256,34,35
 622 331 622 331 605 308 c 128,-1,36
 588 285 588 285 580 249 c 1,37,-1
 573 249 l 1,38,39
 568 258 568 258 553 273 c 128,-1,40
 538 288 538 288 524 301 c 1,41,42
 557 335 557 335 592 351 c 128,-1,43
 627 367 627 367 674 367 c 0,44,45
 729 367 729 367 769 341.5 c 128,-1,46
 809 316 809 316 809 263 c 0,47,48
 809 195 809 195 745.5 150.5 c 128,-1,49
 682 106 682 106 641 79 c 1,50,-1
 699 78 l 2,51,52
 720 78 720 78 770.5 80 c 128,-1,53
 821 82 821 82 825 82 c 1,54,55
 817 58 817 58 817 35 c 0,56,57
 817 27 817 27 820 17 c 128,-1,58
 823 7 823 7 824 0 c 1,59,-1
 725 2 l 1,60,-1
 525 0 l 1,61,-1
 519 30 l 1,28,29
EndSplineSet
EndChar
StartChar: Adieresis
Encoding: 196 196 95
Width: 597
Flags: HW
LayerCount: 2
Fore
SplineSet
79 233 m 2
 97.6666666667 276.333333333 116.333333333 321.666666667 135 369 c 128
 153.666666667 416.333333333 174.666666667 471.166666667 198 533.5 c 128
 221.333333333 595.833333333 239.666666667 645.666666667 253 683 c 1
 303 681 l 1
 354 683 l 1
 398 557.666666667 440 441.333333333 480 334 c 128
 520 226.666666667 563.666666667 115.333333333 611 0 c 1
 517 2 l 1
 417 0 l 1
 397 66 l 1
 358 187 l 1
 334.666666667 187 311.166666667 187.333333333 287.5 188 c 128
 263.833333333 188.666666667 240.333333333 189.333333333 217 190 c 1
 146 187 l 1
 82 0 l 1
 73.3333333333 1.33333333333 64 2 54 2 c 128
 39 2 39 2 31 2 c 2
 16 2 l 1
 -20 0 l 1
 79 233 l 2
205 894 m 0
 223.666666667 894 239.833333333 887.5 253.5 874.5 c 128
 267.166666667 861.5 274 845.666666667 274 827 c 0
 274 807.666666667 267.666666667 791 255 777 c 128
 242.333333333 763 226.333333333 756 207 756 c 0
 187 756 170 762.666666667 156 776 c 128
 142 789.333333333 135 806.333333333 135 827 c 0
 135 845.666666667 141.833333333 861.5 155.5 874.5 c 128
 169.166666667 887.5 185.666666667 894 205 894 c 0
391 894 m 0
 410.333333333 894 426.666666667 887.666666667 440 875 c 128
 453.333333333 862.333333333 460 846.333333333 460 827 c 0
 460 807 453.833333333 790.166666667 441.5 776.5 c 128
 429.166666667 762.833333333 413 756 393 756 c 0
 374.333333333 756 358 762.666666667 344 776 c 128
 330 789.333333333 323 806.333333333 323 827 c 0
 323 845 329.666666667 860.666666667 343 874 c 128
 356.333333333 887.333333333 372.333333333 894 391 894 c 0
254 265 m 1
 333 267 l 1
 321.666666667 306.333333333 310.5 340.333333333 299.5 369 c 128
 288.5 397.666666667 273.666666667 433.666666667 255 477 c 1
 215 372 215 372 175 267 c 1
 254 265 l 1
EndSplineSet
EndChar
StartChar: Eacute
Encoding: 201 201 97
Width: 506
Flags: W
LayerCount: 2
Fore
SplineSet
78 161 m 2,0,-1
 79 335 l 2,1,2
 79 448 79 448 76.5 513.5 c 128,-1,3
 74 579 74 579 66 672 c 1,4,-1
 258 669 l 1,5,-1
 465 672 l 1,6,-1
 462 628 l 1,7,-1
 465 584 l 1,8,9
 438 584 438 584 383 588 c 128,-1,10
 328 592 328 592 300 592 c 2,11,-1
 246 592 l 1,12,13
 246 558 246 558 244 478 c 128,-1,14
 242 398 242 398 242 393 c 1,15,-1
 458 402 l 1,16,17
 458 394 458 394 456 376 c 128,-1,18
 454 358 454 358 454 356 c 0,19,20
 454 344 454 344 455.5 330.5 c 128,-1,21
 457 317 457 317 458 309 c 1,22,23
 424 309 424 309 344.5 314.5 c 128,-1,24
 265 320 265 320 242 320 c 1,25,-1
 242 212 l 2,26,27
 242 180 242 180 243 146.5 c 128,-1,28
 244 113 244 113 247 80 c 1,29,30
 304 80 304 80 349.5 82.5 c 128,-1,31
 395 85 395 85 462 92 c 1,32,33
 458 72 458 72 458 47 c 0,34,35
 458 34 458 34 458.5 27 c 128,-1,36
 459 20 459 20 462 0 c 1,37,38
 402 0 402 0 309 2.5 c 128,-1,39
 216 5 216 5 203 5 c 0,40,41
 176 5 176 5 123 2.5 c 128,-1,42
 70 0 70 0 66 0 c 1,43,44
 71 43 71 43 74.5 84.5 c 128,-1,45
 78 126 78 126 78 161 c 2,0,-1
297 880 m 1,46,47
 322 905 322 905 336.5 916 c 128,-1,48
 351 927 351 927 372 927 c 0,49,50
 394 927 394 927 409 911 c 128,-1,51
 424 895 424 895 424 875 c 0,52,53
 424 856 424 856 410.5 841.5 c 128,-1,54
 397 827 397 827 375 816 c 2,55,-1
 213 738 l 1,56,-1
 163 738 l 1,57,-1
 297 880 l 1,46,47
EndSplineSet
EndChar
StartChar: Odieresis
Encoding: 214 214 98
Width: 813
Flags: W
LayerCount: 2
Fore
SplineSet
416 683 m 0,0,1
 580 683 580 683 681.5 597 c 128,-1,2
 783 511 783 511 783 350 c 0,3,4
 783 177 783 177 679 83 c 128,-1,5
 575 -11 575 -11 398 -11 c 0,6,7
 226 -11 226 -11 127.5 77 c 128,-1,8
 29 165 29 165 29 335 c 0,9,10
 29 502 29 502 136 592.5 c 128,-1,11
 243 683 243 683 416 683 c 0,0,1
313 894 m 256,12,13
 341 894 341 894 361 875 c 128,-1,14
 381 856 381 856 381 827 c 256,15,16
 381 798 381 798 362 777 c 128,-1,17
 343 756 343 756 314 756 c 0,18,19
 286 756 286 756 264.5 777.5 c 128,-1,20
 243 799 243 799 243 827 c 0,21,22
 243 854 243 854 264 874 c 128,-1,23
 285 894 285 894 313 894 c 256,12,13
499 894 m 0,24,25
 528 894 528 894 548 875 c 128,-1,26
 568 856 568 856 568 827 c 256,27,28
 568 798 568 798 549 777 c 128,-1,29
 530 756 530 756 501 756 c 256,30,31
 472 756 472 756 452 777 c 128,-1,32
 432 798 432 798 432 827 c 0,33,34
 432 854 432 854 452 874 c 128,-1,35
 472 894 472 894 499 894 c 0,24,25
405 51 m 0,36,37
 509 51 509 51 558 140 c 128,-1,38
 607 229 607 229 607 339 c 256,39,40
 607 449 607 449 558 534.5 c 128,-1,41
 509 620 509 620 406 620 c 256,42,43
 303 620 303 620 255 534 c 128,-1,44
 207 448 207 448 207 335 c 0,45,46
 207 225 207 225 255.5 138 c 128,-1,47
 304 51 304 51 405 51 c 0,36,37
EndSplineSet
EndChar
StartChar: multiply
Encoding: 215 215 148
Width: 820
Flags: W
LayerCount: 2
Fore
SplineSet
416 361 m 1,0,-1
 632 576 l 1,1,-1
 699 509 l 1,2,-1
 483 294 l 1,3,-1
 699 77 l 1,4,-1
 632 10 l 1,5,-1
 416 227 l 1,6,-1
 200 10 l 1,7,-1
 133 77 l 1,8,-1
 349 294 l 1,9,-1
 133 509 l 1,10,-1
 200 576 l 1,11,-1
 416 361 l 1,0,-1
EndSplineSet
EndChar
StartChar: Udieresis
Encoding: 220 220 96
Width: 718
Flags: W
HStem: -11 90<293.594 464.394> 651 20G<59 151 151 243 547.667 586 586 655> 756 138<236.143 331.373 423.658 518.888>
VStem: 72 159<159.726 666.62> 215 137<777.143 873.373> 402 137<777.658 873.889> 555 90<167.086 651.022>
LayerCount: 2
Fore
SplineSet
151 668 m 1xf6
 243 671 l 1
 243 625 241 555.833333333 237 463.5 c 0
 233 371.166666667 231 317.666666667 231 303 c 0
 231 237.666666667 240.5 184 259.5 142 c 0
 278.5 100 317 79 375 79 c 0
 417.666666667 79 455.5 91.5 488.5 116.5 c 0
 521.5 141.5 540.166666667 169.666666667 544.5 201 c 0
 548.833333333 232.333333333 551.666666667 266.166666667 553 302.5 c 0
 554.333333333 338.833333333 555 369.666666667 555 395 c 0
 555 494.333333333 551.333333333 586.333333333 544 671 c 1
 586 668 l 1
 655 671 l 1
 655 647.666666667 653.333333333 608.833333333 650 554.5 c 0
 646.666666667 500.166666667 645 463.333333333 645 444 c 2
 647 346 l 1
 646 270 l 1
 646 175.333333333 621.5 104.833333333 572.5 58.5 c 0
 523.5 12.1666666667 451.333333333 -11 356 -11 c 0
 273.333333333 -11 205.333333333 6.16666666667 152 40.5 c 0
 98.6666666667 74.8333333333 72 130.333333333 72 207 c 0
 72 254.333333333 69.8333333333 334 65.5 446 c 0
 61.1666666667 558 59 633 59 671 c 1
 151 668 l 1xf6
284 894 m 0
 302.666666667 894 318.666666667 887.666666667 332 875 c 0
 345.333333333 862.333333333 352 846.333333333 352 827 c 0
 352 807 345.833333333 790.166666667 333.5 776.5 c 0
 321.166666667 762.833333333 305 756 285 756 c 0
 265.666666667 756 249.166666667 762.833333333 235.5 776.5 c 0
 221.833333333 790.166666667 215 807 215 827 c 0xee
 215 845 221.666666667 860.666666667 235 874 c 0
 248.333333333 887.333333333 264.666666667 894 284 894 c 0
471 894 m 0
 490.333333333 894 506.5 887.5 519.5 874.5 c 0
 532.5 861.5 539 845.666666667 539 827 c 0
 539 807.666666667 533 791 521 777 c 0
 509 763 493.333333333 756 474 756 c 0
 454 756 437 762.666666667 423 776 c 0
 409 789.333333333 402 806.333333333 402 827 c 0
 402 845.666666667 408.833333333 861.5 422.5 874.5 c 0
 436.166666667 887.5 452.333333333 894 471 894 c 0
EndSplineSet
EndChar
StartChar: uni00DF
Encoding: 223 223 121
Width: 584
Flags: HW
LayerCount: 2
Fore
SplineSet
143 3 m 1
 61 1 l 1
 61 22.3333333333 61.8333333333 51 63.5 87 c 128
 65.1666666667 123 66 145 66 153 c 2
 66 254 l 1
 66 469 l 2
 66 555.666666667 84.3333333333 622 121 668 c 128
 157.666666667 714 218.333333333 737 303 737 c 0
 352.333333333 737 396.333333333 727.666666667 435 709 c 128
 473.666666667 690.333333333 493 659 493 615 c 0
 493 582.333333333 474.5 548.5 437.5 513.5 c 128
 400.5 478.5 382 451.666666667 382 433 c 0
 382 424.333333333 385.166666667 415.166666667 391.5 405.5 c 128
 397.833333333 395.833333333 405.333333333 388.666666667 414 384 c 1
 496 322 l 1
 538 289.333333333 559 248 559 198 c 0
 559 138 538.5 88.1666666667 497.5 48.5 c 128
 456.5 8.83333333333 405.666666667 -11 345 -11 c 0
 321 -11 295.666666667 -5.33333333333 269 6 c 1
 291 116 l 1
 301 116 l 1
 309.666666667 93.3333333333 320.333333333 76 333 64 c 128
 345.666666667 52 363.333333333 46 386 46 c 0
 404.666666667 46 420.166666667 52.5 432.5 65.5 c 128
 444.833333333 78.5 451 94.3333333333 451 113 c 0
 451 143 422 181.333333333 364 228 c 128
 306 274.666666667 275.333333333 313 272 343 c 1
 272 377 291.833333333 418.833333333 331.5 468.5 c 128
 371.166666667 518.166666667 391 559.333333333 391 592 c 0
 391 616.666666667 383.666666667 637.333333333 369 654 c 128
 354.333333333 670.666666667 334.333333333 679 309 679 c 0
 277 679 252.833333333 666.833333333 236.5 642.5 c 128
 220.166666667 618.166666667 212 589 212 555 c 0
 212 474.333333333 212.5 408.166666667 213.5 356.5 c 128
 214.5 304.833333333 215.666666667 243.166666667 217 171.5 c 128
 218.333333333 99.8333333333 219 43 219 1 c 1
 143 3 l 1
EndSplineSet
EndChar
StartChar: acircumflex
Encoding: 226 226 101
Width: 508
Flags: W
LayerCount: 2
Fore
SplineSet
171 -11 m 0,0,1
 111 -11 111 -11 71.5 25.5 c 128,-1,2
 32 62 32 62 32 122 c 0,3,4
 32 217 32 217 153 254 c 128,-1,5
 274 291 274 291 289 304 c 1,6,7
 295 312 295 312 295 317 c 0,8,9
 295 362 295 362 269 389 c 128,-1,10
 243 416 243 416 198 416 c 0,11,12
 133 416 133 416 101 368 c 1,13,-1
 97 368 l 1,14,-1
 83 422 l 1,15,16
 118 456 118 456 165.5 474 c 128,-1,17
 213 492 213 492 263 492 c 0,18,19
 345 492 345 492 391.5 449.5 c 128,-1,20
 438 407 438 407 438 326 c 1,21,-1
 435 154 l 2,22,23
 435 133 435 133 435 120 c 128,-1,24
 435 107 435 107 438 89.5 c 128,-1,25
 441 72 441 72 450.5 63.5 c 128,-1,26
 460 55 460 55 474 55 c 0,27,28
 480 55 480 55 489 58 c 128,-1,29
 498 61 498 61 506 65 c 1,30,-1
 509 29 l 1,31,32
 487 11 487 11 463.5 2.5 c 128,-1,33
 440 -6 440 -6 406 -9 c 1,34,35
 374 -9 374 -9 346.5 5 c 128,-1,36
 319 19 319 19 303 46 c 1,37,38
 253 -11 253 -11 171 -11 c 0,0,1
210 722 m 1,39,-1
 298 722 l 1,40,-1
 408 544 l 1,41,-1
 361 544 l 1,42,-1
 253 632 l 1,43,-1
 147 544 l 1,44,-1
 100 544 l 1,45,-1
 210 722 l 1,39,-1
173 144 m 0,46,47
 173 114 173 114 188 92.5 c 128,-1,48
 203 71 203 71 231 71 c 0,49,50
 264 71 264 71 279 94.5 c 128,-1,51
 294 118 294 118 294 152 c 2,52,-1
 294 253 l 1,53,54
 241 243 241 243 207 217.5 c 128,-1,55
 173 192 173 192 173 144 c 0,46,47
EndSplineSet
EndChar
StartChar: egrave
Encoding: 232 232 107
Width: 525
Flags: W
LayerCount: 2
Fore
SplineSet
348 70 m 0,0,1
 384 70 384 70 408.5 80.5 c 128,-1,2
 433 91 433 91 464 115 c 1,3,-1
 477 109 l 1,4,5
 470 90 470 90 463.5 69 c 128,-1,6
 457 48 457 48 453 29 c 1,7,8
 416 8 416 8 376 -1.5 c 128,-1,9
 336 -11 336 -11 291 -11 c 0,10,11
 174 -11 174 -11 102 57 c 128,-1,12
 30 125 30 125 30 242 c 0,13,14
 30 353 30 353 99.5 422.5 c 128,-1,15
 169 492 169 492 279 492 c 0,16,17
 384 492 384 492 438.5 433.5 c 128,-1,18
 493 375 493 375 493 269 c 2,19,-1
 493 239 l 1,20,-1
 193 239 l 1,21,22
 193 167 193 167 235 118.5 c 128,-1,23
 277 70 277 70 348 70 c 0,0,1
314 543 m 1,24,-1
 153 621 l 2,25,26
 131 632 131 632 117.5 645.5 c 128,-1,27
 104 659 104 659 104 681 c 256,28,29
 104 703 104 703 119.5 717.5 c 128,-1,30
 135 732 135 732 157 732 c 0,31,32
 181 732 181 732 198 717 c 128,-1,33
 215 702 215 702 231 686 c 2,34,-1
 366 543 l 1,35,-1
 314 543 l 1,24,-1
345 296 m 1,36,37
 347 304 347 304 347 320 c 0,38,39
 347 370 347 370 331.5 408.5 c 128,-1,40
 316 447 316 447 272 447 c 0,41,42
 229 447 229 447 210.5 405.5 c 128,-1,43
 192 364 192 364 192 315 c 1,44,-1
 193 296 l 1,45,-1
 345 296 l 1,36,37
EndSplineSet
EndChar
StartChar: idieresis
Encoding: 239 239 112
Width: 285
Flags: HW
LayerCount: 2
Fore
SplineSet
67 91 m 2
 66 391 l 2
 66 398.333333333 64.8333333333 412.5 62.5 433.5 c 128
 60.1666666667 454.5 59 470 59 480 c 1
 73 478.666666667 87.3333333333 477.333333333 102 476 c 128
 116.666666667 474.666666667 130.333333333 474 143 474 c 0
 155 474 168.666666667 474.666666667 184 476 c 128
 199.333333333 477.333333333 214 478.666666667 228 480 c 1
 227.333333333 476 226 465.166666667 224 447.5 c 128
 222 429.833333333 220 411.333333333 218 392 c 1
 218 230 l 1
 218 83 l 1
 227 0 l 1
 141 2 l 1
 59 0 l 1
 64.3333333333 32 67 62.3333333333 67 91 c 2
49 703 m 256
 67.6666666667 703 83.5 696.166666667 96.5 682.5 c 128
 109.5 668.833333333 116 652.333333333 116 633 c 0
 116 614.333333333 110 598.333333333 98 585 c 128
 86 571.666666667 70.3333333333 565 51 565 c 256
 31.6666666667 565 15.1666666667 571.5 1.5 584.5 c 128
 -12.1666666667 597.5 -19 613.666666667 -19 633 c 0
 -19 651.666666667 -12.3333333333 668 1 682 c 128
 14.3333333333 696 30.3333333333 703 49 703 c 256
236 703 m 256
 254.666666667 703 270.666666667 696.333333333 284 683 c 128
 297.333333333 669.666666667 304 653 304 633 c 0
 304 613.666666667 297.833333333 597.5 285.5 584.5 c 128
 273.166666667 571.5 257 565 237 565 c 0
 217.666666667 565 201.166666667 571.5 187.5 584.5 c 128
 173.833333333 597.5 167 613.666666667 167 633 c 256
 167 652.333333333 173.833333333 668.833333333 187.5 682.5 c 128
 201.166666667 696.166666667 217.333333333 703 236 703 c 256
EndSplineSet
EndChar
StartChar: ocircumflex
Encoding: 244 244 116
Width: 558
Flags: W
LayerCount: 2
Fore
SplineSet
285 492 m 0,0,1
 397 492 397 492 466 424 c 128,-1,2
 535 356 535 356 535 243 c 0,3,4
 535 125 535 125 467 57 c 128,-1,5
 399 -11 399 -11 279 -11 c 0,6,7
 164 -11 164 -11 93.5 56.5 c 128,-1,8
 23 124 23 124 23 240 c 0,9,10
 23 358 23 358 94 425 c 128,-1,11
 165 492 165 492 285 492 c 0,0,1
234 722 m 1,12,-1
 324 722 l 1,13,-1
 433 544 l 1,14,-1
 385 544 l 1,15,-1
 279 632 l 1,16,-1
 171 544 l 1,17,-1
 125 544 l 1,18,-1
 234 722 l 1,12,-1
194 126 m 0,19,20
 200 87 200 87 221.5 61.5 c 128,-1,21
 243 36 243 36 279 36 c 256,22,23
 315 36 315 36 335.5 61 c 128,-1,24
 356 86 356 86 360.5 113 c 128,-1,25
 365 140 365 140 368 155 c 1,26,27
 372 196 372 196 372 242 c 0,28,29
 372 285 372 285 368 325 c 1,30,31
 365 340 365 340 360.5 367.5 c 128,-1,32
 356 395 356 395 336 419.5 c 128,-1,33
 316 444 316 444 279 444 c 0,34,35
 230 444 230 444 212 407 c 128,-1,36
 194 370 194 370 190 331.5 c 128,-1,37
 186 293 186 293 186 240 c 0,38,39
 186 195 186 195 187.5 176 c 128,-1,40
 189 157 189 157 194 126 c 0,19,20
EndSplineSet
EndChar
StartChar: divide
Encoding: 247 247 138
Width: 820
Flags: HW
LayerCount: 2
Fore
SplineSet
482 481 m 0
 482 461 474.666666667 444 460 430 c 128
 445.333333333 416 428 409 408 409 c 0
 388.666666667 409 372 416 358 430 c 128
 344 444 337 461.333333333 337 482 c 0
 337 502 344 519 358 533 c 128
 372 547 389 554 409 554 c 0
 429.666666667 554 447 547 461 533 c 128
 475 519 482 501.666666667 482 481 c 0
698 341 m 1
 698 246 l 1
 122 246 l 1
 122 341 l 1
 698 341 l 1
481 104 m 0
 481 84.6666666667 473.833333333 67.8333333333 459.5 53.5 c 128
 445.166666667 39.1666666667 428.333333333 32 409 32 c 0
 389 32 372 39 358 53 c 128
 344 67 337 83.6666666667 337 103 c 0
 337 123 344.166666667 140.166666667 358.5 154.5 c 128
 372.833333333 168.833333333 389.666666667 176 409 176 c 0
 429 176 446 169.333333333 460 156 c 128
 474 142.666666667 481 125.333333333 481 104 c 0
EndSplineSet
EndChar
StartChar: udieresis
Encoding: 252 252 119
Width: 582
Flags: HW
LayerCount: 2
Fore
SplineSet
211 -11 m 0
 167.666666667 -11 131.666666667 2.66666666667 103 30 c 128
 74.3333333333 57.3333333333 60 92.6666666667 60 136 c 2
 61 243 l 2
 61 270.333333333 59.8333333333 311.5 57.5 366.5 c 128
 55.1666666667 421.5 54 459.333333333 54 480 c 1
 70 478 84.3333333333 476.5 97 475.5 c 128
 109.666666667 474.5 122 474 134 474 c 256
 146 474 159.5 474.666666667 174.5 476 c 128
 189.5 477.333333333 204 478.666666667 218 480 c 1
 213.333333333 433.333333333 211 382.333333333 211 327 c 1
 210 277 l 1
 211 201 l 2
 211 154.333333333 217.333333333 122.5 230 105.5 c 128
 242.666666667 88.5 261 80 285 80 c 0
 307 80 324.166666667 88.8333333333 336.5 106.5 c 128
 348.833333333 124.166666667 356.666666667 145 360 169 c 1
 362 238 l 1
 362 264.666666667 361 305 359 359 c 128
 357 413 356 453.333333333 356 480 c 1
 367.333333333 478.666666667 381.666666667 477.333333333 399 476 c 128
 416.333333333 474.666666667 430.666666667 474 442 474 c 0
 455.333333333 474 469.333333333 474.666666667 484 476 c 128
 498.666666667 477.333333333 511 478.666666667 521 480 c 1
 521 447.333333333 519.833333333 402.333333333 517.5 345 c 128
 515.166666667 287.666666667 514 251 514 235 c 0
 514 208.333333333 515.166666667 167.666666667 517.5 113 c 128
 519.833333333 58.3333333333 521 21 521 1 c 1
 446 3 l 1
 369 1 l 1
 369 69 l 1
 348.333333333 45 324.166666667 25.6666666667 296.5 11 c 128
 268.833333333 -3.66666666667 240.333333333 -11 211 -11 c 0
198 703 m 0
 216 703 231.666666667 696.333333333 245 683 c 128
 258.333333333 669.666666667 265 653 265 633 c 0
 265 614.333333333 258.666666667 598.333333333 246 585 c 128
 233.333333333 571.666666667 217.666666667 565 199 565 c 0
 179.666666667 565 163 571.666666667 149 585 c 128
 135 598.333333333 128 614.333333333 128 633 c 0
 128 652.333333333 134.833333333 668.833333333 148.5 682.5 c 128
 162.166666667 696.166666667 178.666666667 703 198 703 c 0
384 703 m 256
 403.333333333 703 419.666666667 696.333333333 433 683 c 128
 446.333333333 669.666666667 453 653 453 633 c 0
 453 615 446.5 599.166666667 433.5 585.5 c 128
 420.5 571.833333333 404.666666667 565 386 565 c 256
 367.333333333 565 350.666666667 571.666666667 336 585 c 128
 321.333333333 598.333333333 314 614.333333333 314 633 c 0
 314 652.333333333 320.833333333 668.833333333 334.5 682.5 c 128
 348.166666667 696.166666667 364.666666667 703 384 703 c 256
EndSplineSet
EndChar
StartChar: dotlessi
Encoding: 305 305 222
Width: 285
Flags: W
HStem: 3 471<66.5931 216.688> 460 20G<59.7978 65 216 224.931>
VStem: 66 152.5<3.7959 449.294>
LayerCount: 2
Fore
SplineSet
66 92 m 2xa0
 66 391 l 1
 58 480 l 1x60
 72 478.666666667 86.5 477.333333333 101.5 476 c 0
 116.5 474.666666667 130 474 142 474 c 0xa0
 154.666666667 474 168.333333333 474.666666667 183 476 c 0
 205 478 205 478 227 480 c 1x60
 218 393 l 1
 217 230 l 2
 217 176 217.5 134.333333333 218.5 105 c 0
 219.5 75.6666666667 222 40.6666666667 226 0 c 1
 141 3 l 1
 59 0 l 1
 61 16 62.6666666667 31.5 64 46.5 c 0
 65.3333333333 61.5 66 76.6666666667 66 92 c 2xa0
EndSplineSet
EndChar
StartChar: oe
Encoding: 339 339 135
Width: 862
Flags: W
LayerCount: 2
Fore
SplineSet
279 -11 m 0,0,1
 164 -11 164 -11 95 57 c 128,-1,2
 26 125 26 125 26 241 c 0,3,4
 26 353 26 353 94.5 422.5 c 128,-1,5
 163 492 163 492 276 492 c 0,6,7
 371 492 371 492 454 437 c 1,8,9
 488 465 488 465 529.5 478.5 c 128,-1,10
 571 492 571 492 619 492 c 0,11,12
 720 492 720 492 775.5 432.5 c 128,-1,13
 831 373 831 373 831 272 c 1,14,-1
 830 239 l 1,15,-1
 530 239 l 1,16,17
 530 167 530 167 571.5 118.5 c 128,-1,18
 613 70 613 70 685 70 c 0,19,20
 751 70 751 70 800 115 c 1,21,-1
 812 109 l 1,22,23
 804 86 804 86 800 73 c 128,-1,24
 796 60 796 60 788 29 c 1,25,26
 756 8 756 8 713.5 -1.5 c 128,-1,27
 671 -11 671 -11 627 -11 c 0,28,29
 572 -11 572 -11 529.5 2 c 128,-1,30
 487 15 487 15 453 49 c 1,31,32
 421 17 421 17 375.5 3 c 128,-1,33
 330 -11 330 -11 279 -11 c 0,0,1
683 296 m 1,34,-1
 683 321 l 2,35,36
 683 390 683 390 663 418.5 c 128,-1,37
 643 447 643 447 608 447 c 0,38,39
 560 447 560 447 545 401.5 c 128,-1,40
 530 356 530 356 530 296 c 1,41,-1
 683 296 l 1,34,-1
199 123 m 0,42,43
 206 83 206 83 227 57.5 c 128,-1,44
 248 32 248 32 285 32 c 0,45,46
 306 32 306 32 326.5 44.5 c 128,-1,47
 347 57 347 57 359 83 c 128,-1,48
 371 109 371 109 375 147 c 128,-1,49
 379 185 379 185 379 237 c 0,50,51
 379 294 379 294 372 342.5 c 128,-1,52
 365 391 365 391 343 416 c 128,-1,53
 321 441 321 441 284 441 c 0,54,55
 236 441 236 441 212 398 c 1,56,57
 201 375 201 375 195.5 339 c 128,-1,58
 190 303 190 303 190 237 c 0,59,60
 190 194 190 194 191.5 176 c 128,-1,61
 193 158 193 158 199 123 c 0,42,43
EndSplineSet
EndChar
StartChar: uni0237
Encoding: 567 567 223
Width: 285
Flags: W
HStem: -260 40<-36 18.3818> 460 20G<60 74.3333 208.333 220.843>
VStem: 66 159<-137.24 473.559>
LayerCount: 2
Fore
SplineSet
141 475 m 0
 150.333333333 475 159.666666667 475.166666667 169 475.5 c 0
 178.333333333 475.833333333 195.666666667 477.333333333 221 480 c 1
 220 353 l 2
 220 295 220.833333333 221.166666667 222.5 131.5 c 0
 224.166666667 41.8333333333 225 -9.66666666667 225 -23 c 0
 225 -101.666666667 202 -160.833333333 156 -200.5 c 0
 110 -240.166666667 46 -260 -36 -260 c 1
 -45 -220 l 1
 -4.33333333333 -220 24.3333333333 -204.5 41 -173.5 c 0
 57.6666666667 -142.5 66 -104.333333333 66 -59 c 2
 68 184 l 2
 68 216 66.6666666667 265 64 331 c 0
 61.3333333333 397 60 446.666666667 60 480 c 1
 88.6666666667 476.666666667 115.666666667 475 141 475 c 0
EndSplineSet
EndChar
StartChar: gravecomb
Encoding: 768 768 224
Width: 0
Flags: HW
AnchorPoint: "above" 211 544 mark 0
LayerCount: 2
Fore
SplineSet
211 544 m 1
 50 622 l 2
 30 632 16.6669921875 641.5 10 650.5 c 128
 3.3330078125 659.5 0 669.666992188 0 681 c 0
 0 695.666992188 5.3330078125 708 16 718 c 128
 26.6669921875 728 39.3330078125 733 54 733 c 0
 66.6669921875 733 77.8330078125 729.5 87.5 722.5 c 128
 97.1669921875 715.5 110.666992188 703.666992188 128 687 c 1
 261 544 l 1
 211 544 l 1
EndSplineSet
EndChar
StartChar: acutecomb
Encoding: 769 769 225
Width: 0
Flags: W
HStem: 543 190
VStem: 0 261
AnchorPoint: "above" 50 543 mark 0
LayerCount: 2
Fore
SplineSet
134 686 m 1
 147.333007812 701.333007812 159.333007812 713 170 721 c 0
 180.666992188 729 193.333007812 733 208 733 c 256
 222.666992188 733 235.166992188 727.5 245.5 716.5 c 0
 255.833007812 705.5 261 693.333007812 261 680 c 256
 261 666.666992188 256.166992188 655.166992188 246.5 645.5 c 0
 236.833007812 635.833007812 225 627.666992188 211 621 c 2
 50 543 l 1
 0 543 l 1
 134 686 l 1
EndSplineSet
EndChar
StartChar: uni0302
Encoding: 770 770 227
Width: 0
Flags: HW
AnchorPoint: "circum" 155 543 mark 0
LayerCount: 2
Fore
SplineSet
110 721 m 1
 199 721 l 1
 308 543 l 1
 261 543 l 1
 155 631 l 1
 48 543 l 1
 0 543 l 1
 110 721 l 1
EndSplineSet
EndChar
StartChar: uni0304
Encoding: 772 772 314
Width: 0
Flags: W
HStem: 575 98<0 280>
VStem: 0 280<575 673>
AnchorPoint: "above" 140 565 mark 0
LayerCount: 2
Fore
SplineSet
0 575 m 1
 0 673 l 1
 280 673 l 1
 280 575 l 257
 0 575 l 1
EndSplineSet
EndChar
StartChar: uni0305
Encoding: 773 773 317
Width: 0
Flags: W
HStem: 575 98<0 440>
AnchorPoint: "above" 220 565 mark 0
LayerCount: 2
Fore
SplineSet
0 575 m 1
 0 673 l 1
 440 673 l 1
 440 575 l 257
 0 575 l 1
EndSplineSet
EndChar
StartChar: uni0307
Encoding: 775 775 228
Width: 0
Flags: HW
AnchorPoint: "above" 80 571 mark 0
LayerCount: 2
Fore
SplineSet
80 730 m 256
 101.333007812 730 120 722 136 706 c 128
 152 690 160 671.333007812 160 650 c 256
 160 628.666992188 152.166992188 610.166992188 136.5 594.5 c 128
 120.833007812 578.833007812 102 571 80 571 c 0
 58.6669921875 571 40 578.666992188 24 594 c 128
 8 609.333007812 0 628 0 650 c 0
 0 671.333007812 8 690 24 706 c 128
 40 722 58.6669921875 730 80 730 c 256
EndSplineSet
EndChar
StartChar: uni0308
Encoding: 776 776 229
Width: 0
Flags: W
HStem: 565 138<21.1427 117.373 209.658 305.373>
VStem: 0 138<585.627 681.857> 188 138<585.627 681.857>
AnchorPoint: "above" 163 565 mark 0
LayerCount: 2
Fore
SplineSet
70 703 m 0
 88.6669921875 703 104.666992188 696.333007812 118 683 c 0
 131.333007812 669.666992188 138 653 138 633 c 0
 138 614.333007812 131.666992188 598.333007812 119 585 c 0
 106.333007812 571.666992188 90.3330078125 565 71 565 c 0
 53 565 36.6669921875 571.666992188 22 585 c 0
 7.3330078125 598.333007812 0 614.333007812 0 633 c 0
 0 652.333007812 6.8330078125 668.833007812 20.5 682.5 c 0
 34.1669921875 696.166992188 50.6669921875 703 70 703 c 0
257 703 m 0
 276.333007812 703 292.666992188 696.333007812 306 683 c 0
 319.333007812 669.666992188 326 653 326 633 c 0
 326 614.333007812 319.666992188 598.333007812 307 585 c 0
 294.333007812 571.666992188 278.333007812 565 259 565 c 256
 239.666992188 565 223 571.666992188 209 585 c 0
 195 598.333007812 188 614.333007812 188 633 c 0
 188 652.333007812 194.833007812 668.833007812 208.5 682.5 c 0
 222.166992188 696.166992188 238.333007812 703 257 703 c 0
EndSplineSet
EndChar
StartChar: uni030B
Encoding: 779 779 327
Width: 0
Flags: W
HStem: 643 112<258 291.53 509 542.53>
AnchorPoint: "above" 222 565 mark 0
LayerCount: 2
Fore
SplineSet
432 708 m 1
 445 723 457 735 468 743 c 0
 479 751 491 755 506 755 c 256
 521 755 533 749 543 738 c 0
 553 727 559 715 559 702 c 256
 559 689 555 677 545 667 c 0
 535 657 523 650 509 643 c 2
 348 565 l 1
 298 565 l 1
 432 708 l 1
181 708 m 1
 194 723 206 735 217 743 c 0
 228 751 240 755 255 755 c 256
 270 755 282 749 292 738 c 0
 302 727 308 715 308 702 c 256
 308 689 304 677 294 667 c 0
 284 657 272 650 258 643 c 2
 97 565 l 1
 47 565 l 1
 181 708 l 1
EndSplineSet
EndChar
StartChar: uni0315
Encoding: 789 789 319
Width: 0
Flags: W
HStem: 369 314
VStem: 58 133<583.241 659.76>
AnchorPoint: "aboveright" 14 375 mark 0
LayerCount: 2
Fore
SplineSet
0 381 m 1
 58 611 l 1
 61.3330078125 630.333007812 69 647.166992188 81 661.5 c 0
 93 675.833007812 107.666992188 683 125 683 c 0
 143.666992188 683 159.333007812 677 172 665 c 0
 184.666992188 653 191 638 191 620 c 0
 191 604 185.666992188 588.666992188 175 574 c 2
 29 369 l 1
 0 381 l 1
EndSplineSet
EndChar
StartChar: uni0327
Encoding: 807 807 231
Width: 0
Flags: HW
AnchorPoint: "tails" 128 0 mark 0
LayerCount: 2
Fore
SplineSet
17 -146 m 1
 53.6669921875 -157.333007812 78 -164.166992188 90 -166.5 c 128
 102 -168.833007812 115.666992188 -170 131 -170 c 0
 145 -170 156.833007812 -167 166.5 -161 c 128
 176.166992188 -155 181 -145.666992188 181 -133 c 0
 181 -121.666992188 176.666992188 -112 168 -104 c 128
 159.333007812 -96 149 -92 137 -92 c 0
 131 -92 125.833007812 -92.5 121.5 -93.5 c 128
 117.166992188 -94.5 112.666992188 -95.6669921875 108 -97 c 1
 108 1 l 1
 121.666666667 -0.286438382544 135.333333333 -0.382968532334 149 1 c 1
 149 -55 l 1
 193 -54 l 1
 215.666992188 -56.6669921875 234.333007812 -64.6669921875 249 -78 c 128
 263.666992188 -91.3330078125 271 -109.333007812 271 -132 c 0
 271 -158.666992188 261.5 -180.5 242.5 -197.5 c 128
 223.5 -214.5 199.666992188 -223 171 -223 c 0
 141 -223 112.166992188 -220.5 84.5 -215.5 c 128
 56.8330078125 -210.5 28.6669921875 -202.333007812 0 -191 c 1
 17 -146 l 1
EndSplineSet
EndChar
StartChar: uni0386
Encoding: 902 902 179
Width: 693
Flags: W
LayerCount: 2
Fore
SplineSet
175 232 m 2,0,1
 199 288 199 288 235.5 381.5 c 128,-1,2
 272 475 272 475 296.5 541 c 128,-1,3
 321 607 321 607 349 683 c 1,4,-1
 399 680 l 1,5,-1
 449 683 l 1,6,7
 517 493 517 493 580 324 c 128,-1,8
 643 155 643 155 708 0 c 1,9,-1
 612 3 l 1,10,-1
 514 0 l 1,11,-1
 493 66 l 1,12,-1
 454 187 l 1,13,14
 419 187 419 187 383 188 c 128,-1,15
 347 189 347 189 312 190 c 1,16,-1
 242 187 l 1,17,18
 213 97 213 97 177 0 c 1,19,-1
 112 3 l 1,20,-1
 75 0 l 1,21,-1
 175 232 l 2,0,1
114 687 m 1,22,23
 138 711 138 711 152.5 722 c 128,-1,24
 167 733 167 733 187 733 c 0,25,26
 210 733 210 733 225 717 c 128,-1,27
 240 701 240 701 240 680 c 0,28,29
 240 660 240 660 226.5 646.5 c 128,-1,30
 213 633 213 633 191 622 c 2,31,-1
 29 544 l 1,32,-1
 -20 544 l 1,33,-1
 114 687 l 1,22,23
351 265 m 1,34,-1
 430 267 l 1,35,36
 413 323 413 323 396 368 c 128,-1,37
 379 413 379 413 352 477 c 1,38,39
 309 374 309 374 271 267 c 1,40,-1
 351 265 l 1,34,-1
EndSplineSet
EndChar
StartChar: uni0388
Encoding: 904 904 180
Width: 776
Flags: W
LayerCount: 2
Fore
SplineSet
348 160 m 2,0,-1
 349 335 l 2,1,2
 349 447 349 447 346.5 511.5 c 128,-1,3
 344 576 344 576 336 671 c 1,4,-1
 528 667 l 2,5,6
 563 667 563 667 645.5 669 c 128,-1,7
 728 671 728 671 735 671 c 1,8,9
 733 660 733 660 732 650.5 c 128,-1,10
 731 641 731 641 731 628 c 0,11,12
 731 617 731 617 731.5 610.5 c 128,-1,13
 732 604 732 604 735 583 c 1,14,15
 708 583 708 583 653 587 c 128,-1,16
 598 591 598 591 570 591 c 2,17,-1
 515 590 l 1,18,-1
 512 393 l 1,19,-1
 728 401 l 1,20,21
 726 390 726 390 725 380 c 128,-1,22
 724 370 724 370 724 356 c 2,23,-1
 727 310 l 1,24,25
 683 310 683 310 602.5 314.5 c 128,-1,26
 522 319 522 319 512 319 c 1,27,-1
 512 213 l 2,28,29
 512 190 512 190 514 136.5 c 128,-1,30
 516 83 516 83 516 81 c 1,31,32
 624 81 624 81 731 93 c 1,33,-1
 728 46 l 1,34,-1
 731 0 l 1,35,36
 676 0 676 0 583.5 2.5 c 128,-1,37
 491 5 491 5 472 5 c 0,38,39
 441 5 441 5 393 2.5 c 128,-1,40
 345 0 345 0 336 0 c 1,41,42
 340 39 340 39 344 82.5 c 128,-1,43
 348 126 348 126 348 160 c 2,0,-1
114 687 m 1,44,45
 138 711 138 711 152.5 722 c 128,-1,46
 167 733 167 733 187 733 c 0,47,48
 210 733 210 733 225 717 c 128,-1,49
 240 701 240 701 240 680 c 0,50,51
 240 660 240 660 226.5 646.5 c 128,-1,52
 213 633 213 633 191 622 c 2,53,-1
 29 544 l 1,54,-1
 -20 544 l 1,55,-1
 114 687 l 1,44,45
EndSplineSet
EndChar
StartChar: uni0389
Encoding: 905 905 182
Width: 1025
Flags: W
LayerCount: 2
Fore
SplineSet
346 205 m 2,0,-1
 347 332 l 2,1,2
 347 385 347 385 344.5 469 c 128,-1,3
 342 553 342 553 342 567 c 2,4,-1
 336 671 l 1,5,6
 348 671 348 671 381.5 667.5 c 128,-1,7
 415 664 415 664 431 664 c 0,8,9
 453 664 453 664 479 667 c 128,-1,10
 505 670 505 670 520 671 c 1,11,12
 516 638 516 638 514 596 c 128,-1,13
 512 554 512 554 512 513 c 2,14,-1
 512 406 l 1,15,-1
 642 403 l 1,16,-1
 782 406 l 1,17,-1
 782 513 l 2,18,19
 782 600 782 600 774 671 c 1,20,21
 790 671 790 671 823.5 667.5 c 128,-1,22
 857 664 857 664 868 664 c 0,23,24
 884 664 884 664 916 667.5 c 128,-1,25
 948 671 948 671 960 671 c 1,26,27
 953 597 953 597 950 506 c 128,-1,28
 947 415 947 415 947 332 c 0,29,30
 947 221 947 221 949.5 157 c 128,-1,31
 952 93 952 93 960 0 c 1,32,33
 941 0 941 0 907.5 2.5 c 128,-1,34
 874 5 874 5 868 5 c 0,35,36
 850 5 850 5 815 2.5 c 128,-1,37
 780 0 780 0 774 0 c 1,38,39
 778 26 778 26 780 70 c 128,-1,40
 782 114 782 114 782 145 c 2,41,-1
 782 320 l 1,42,43
 758 320 758 320 702.5 322 c 128,-1,44
 647 324 647 324 642 324 c 2,45,-1
 512 320 l 1,46,-1
 512 145 l 2,47,48
 512 87 512 87 513.5 64 c 128,-1,49
 515 41 515 41 520 0 c 1,50,51
 504 0 504 0 472 2 c 128,-1,52
 440 4 440 4 426 4 c 0,53,54
 411 4 411 4 381 2 c 128,-1,55
 351 0 351 0 336 0 c 1,56,57
 336 29 336 29 341 105.5 c 128,-1,58
 346 182 346 182 346 205 c 2,0,-1
114 687 m 1,59,60
 138 711 138 711 152.5 722 c 128,-1,61
 167 733 167 733 187 733 c 0,62,63
 210 733 210 733 225 717 c 128,-1,64
 240 701 240 701 240 680 c 0,65,66
 240 660 240 660 226.5 646.5 c 128,-1,67
 213 633 213 633 191 622 c 2,68,-1
 29 544 l 1,69,-1
 -20 544 l 1,70,-1
 114 687 l 1,59,60
EndSplineSet
EndChar
StartChar: uni038A
Encoding: 906 906 183
Width: 592
Flags: W
LayerCount: 2
Fore
SplineSet
350 290 m 0,0,1
 350 439 350 439 347.5 515.5 c 128,-1,2
 345 592 345 592 338 671 c 1,3,4
 360 669 360 669 386.5 666.5 c 128,-1,5
 413 664 413 664 429 664 c 0,6,7
 447 664 447 664 480.5 667.5 c 128,-1,8
 514 671 514 671 524 671 c 1,9,10
 517 590 517 590 514.5 516 c 128,-1,11
 512 442 512 442 512 335 c 0,12,13
 512 235 512 235 514.5 159.5 c 128,-1,14
 517 84 517 84 524 0 c 1,15,16
 507 0 507 0 466 2 c 128,-1,17
 425 4 425 4 424 4 c 2,18,-1
 338 0 l 1,19,20
 344 64 344 64 347 144 c 128,-1,21
 350 224 350 224 350 290 c 0,0,1
114 687 m 1,22,23
 138 711 138 711 152.5 722 c 128,-1,24
 167 733 167 733 187 733 c 0,25,26
 210 733 210 733 225 717 c 128,-1,27
 240 701 240 701 240 680 c 0,28,29
 240 660 240 660 226.5 646.5 c 128,-1,30
 213 633 213 633 191 622 c 2,31,-1
 29 544 l 1,32,-1
 -20 544 l 1,33,-1
 114 687 l 1,22,23
EndSplineSet
EndChar
StartChar: uni038C
Encoding: 908 908 184
Width: 1013
Flags: W
LayerCount: 2
Fore
SplineSet
616 683 m 0,0,1
 779 683 779 683 880.5 597 c 128,-1,2
 982 511 982 511 982 350 c 0,3,4
 982 176 982 176 878.5 82.5 c 128,-1,5
 775 -11 775 -11 598 -11 c 0,6,7
 426 -11 426 -11 327.5 77 c 128,-1,8
 229 165 229 165 229 335 c 0,9,10
 229 502 229 502 336 592.5 c 128,-1,11
 443 683 443 683 616 683 c 0,0,1
114 687 m 1,12,13
 138 711 138 711 152.5 722 c 128,-1,14
 167 733 167 733 187 733 c 0,15,16
 210 733 210 733 225 717 c 128,-1,17
 240 701 240 701 240 680 c 0,18,19
 240 660 240 660 226.5 646.5 c 128,-1,20
 213 633 213 633 191 622 c 2,21,-1
 29 544 l 1,22,-1
 -20 544 l 1,23,-1
 114 687 l 1,12,13
605 52 m 0,24,25
 709 52 709 52 757 139.5 c 128,-1,26
 805 227 805 227 805 340 c 0,27,28
 805 449 805 449 757 534 c 128,-1,29
 709 619 709 619 608 619 c 0,30,31
 503 619 503 619 455 534 c 128,-1,32
 407 449 407 449 407 335 c 0,33,34
 407 225 407 225 455 138.5 c 128,-1,35
 503 52 503 52 605 52 c 0,24,25
EndSplineSet
EndChar
StartChar: uni038E
Encoding: 910 910 185
Width: 898
Flags: W
LayerCount: 2
Fore
SplineSet
457 468 m 2,0,1
 448 484 448 484 407.5 556 c 128,-1,2
 367 628 367 628 338 671 c 1,3,-1
 426 667 l 2,4,5
 446 667 446 667 492.5 669 c 128,-1,6
 539 671 539 671 544 671 c 1,7,8
 579 594 579 594 608.5 533.5 c 128,-1,9
 638 473 638 473 678 399 c 1,10,11
 714 458 714 458 749 526 c 128,-1,12
 784 594 784 594 818 671 c 1,13,-1
 872 667 l 2,14,15
 882 667 882 667 902 669 c 128,-1,16
 922 671 922 671 933 671 c 1,17,18
 874 585 874 585 823 496.5 c 128,-1,19
 772 408 772 408 718 303 c 1,20,-1
 721 103 l 1,21,-1
 725 0 l 1,22,-1
 658 4 l 1,23,-1
 544 0 l 1,24,25
 544 36 544 36 548.5 99.5 c 128,-1,26
 553 163 553 163 553 171 c 2,27,-1
 552 290 l 1,28,-1
 457 468 l 2,0,1
114 687 m 1,29,30
 138 711 138 711 152.5 722 c 128,-1,31
 167 733 167 733 187 733 c 0,32,33
 210 733 210 733 225 717 c 128,-1,34
 240 701 240 701 240 680 c 0,35,36
 240 660 240 660 226.5 646.5 c 128,-1,37
 213 633 213 633 191 622 c 2,38,-1
 29 544 l 1,39,-1
 -20 544 l 1,40,-1
 114 687 l 1,29,30
EndSplineSet
EndChar
StartChar: uni038F
Encoding: 911 911 190
Width: 1072
Flags: W
LayerCount: 2
Fore
SplineSet
1045 93 m 1,0,1
 1043 85 1043 85 1043 75 c 128,-1,2
 1043 65 1043 65 1043 60 c 2,3,-1
 1043 51 l 2,4,5
 1043 38 1043 38 1043 26 c 128,-1,6
 1043 14 1043 14 1046 0 c 1,7,-1
 887 3 l 1,8,-1
 715 0 l 1,9,-1
 715 74 l 1,10,11
 786 117 786 117 811 181 c 128,-1,12
 836 245 836 245 836 341 c 0,13,14
 836 449 836 449 787 534 c 128,-1,15
 738 619 738 619 637 619 c 0,16,17
 532 619 532 619 485 531.5 c 128,-1,18
 438 444 438 444 438 329 c 0,19,20
 438 244 438 244 465.5 177 c 128,-1,21
 493 110 493 110 557 74 c 1,22,-1
 557 0 l 1,23,-1
 385 3 l 1,24,-1
 226 0 l 1,25,-1
 228 58 l 1,26,-1
 226 93 l 1,27,28
 309 81 309 81 390 81 c 1,29,30
 324 120 324 120 292.5 186 c 128,-1,31
 261 252 261 252 261 334 c 0,32,33
 261 499 261 499 369.5 591 c 128,-1,34
 478 683 478 683 648 683 c 0,35,36
 810 683 810 683 912 598 c 128,-1,37
 1014 513 1014 513 1014 354 c 0,38,39
 1014 262 1014 262 979.5 196 c 128,-1,40
 945 130 945 130 869 81 c 1,41,42
 956 81 956 81 1045 93 c 1,0,1
114 687 m 1,43,44
 138 711 138 711 152.5 722 c 128,-1,45
 167 733 167 733 187 733 c 0,46,47
 210 733 210 733 225 717 c 128,-1,48
 240 701 240 701 240 680 c 0,49,50
 240 660 240 660 226.5 646.5 c 128,-1,51
 213 633 213 633 191 622 c 2,52,-1
 29 544 l 1,53,-1
 -20 544 l 1,54,-1
 114 687 l 1,43,44
EndSplineSet
EndChar
StartChar: uni0390
Encoding: 912 912 216
Width: 285
Flags: W
HStem: 3 471<66.186 216.73> 460 20G<59.7978 64 221.333 225.333> 574 118<-92.2188 -2.87244 297.564 379.467>
VStem: -106 118<587.485 677.722> 66 152<3.77893 468.875> 279 118<591.533 673.436>
LayerCount: 2
Fore
SplineSet
66 91 m 2xbc
 66 391 l 1
 58 480 l 1x7c
 70 478.666666667 84.1666666667 477.333333333 100.5 476 c 0
 116.833333333 474.666666667 130.666666667 474 142 474 c 0xbc
 162 474 178.333333333 474.666666667 191 476 c 0
 203.666666667 477.333333333 215.666666667 478.666666667 227 480 c 1x7c
 223.666666667 456 221.166666667 437 219.5 423 c 0
 217.833333333 409 217 393.666666667 217 377 c 2
 218 82 l 2
 218 70 218.333333333 60.1666666667 219 52.5 c 0
 219.666666667 44.8333333333 222 27.3333333333 226 0 c 1
 141 3 l 1
 59 0 l 1
 60.3333333333 14.6666666667 61.8333333333 30.8333333333 63.5 48.5 c 0
 65.1666666667 66.1666666667 66 80.3333333333 66 91 c 2xbc
-47 692 m 0
 -31 692 -17.1666666667 685.833333333 -5.5 673.5 c 0
 6.16666666667 661.166666667 12 647.333333333 12 632 c 0
 12 616 6 602.333333333 -6 591 c 0
 -18 579.666666667 -31.6666666667 574 -47 574 c 256
 -62.3333333333 574 -76 579.666666667 -88 591 c 0
 -100 602.333333333 -106 616.333333333 -106 633 c 0
 -106 648.333333333 -100.333333333 662 -89 674 c 0
 -77.6666666667 686 -63.6666666667 692 -47 692 c 0
198 733 m 0
 209.333333333 733 219.333333333 728.666666667 228 720 c 0
 236.666666667 711.333333333 241 701.333333333 241 690 c 0
 241 679.333333333 237.666666667 670.166666667 231 662.5 c 0
 224.333333333 654.833333333 215.333333333 647 204 639 c 2
 68 544 l 1
 26 544 l 1
 131 685 l 2
 141.666666667 699.666666667 152.166666667 711.333333333 162.5 720 c 0
 172.833333333 728.666666667 184.666666667 733 198 733 c 0
338 692 m 0
 354.666666667 692 368.666666667 686 380 674 c 0
 391.333333333 662 397 648 397 632 c 256
 397 616 391.333333333 602.333333333 380 591 c 0
 368.666666667 579.666666667 355 574 339 574 c 256
 323 574 309 579.666666667 297 591 c 0
 285 602.333333333 279 616.333333333 279 633 c 0
 279 649 284.833333333 662.833333333 296.5 674.5 c 0
 308.166666667 686.166666667 322 692 338 692 c 0
EndSplineSet
EndChar
StartChar: Alpha
Encoding: 913 913 160
Width: 597
Flags: W
LayerCount: 2
Fore
SplineSet
79 232 m 2,0,1
 103 288 103 288 139.5 381.5 c 128,-1,2
 176 475 176 475 200.5 541 c 128,-1,3
 225 607 225 607 253 683 c 1,4,-1
 303 680 l 1,5,-1
 353 683 l 1,6,7
 421 493 421 493 484 324 c 128,-1,8
 547 155 547 155 612 0 c 1,9,-1
 516 3 l 1,10,-1
 418 0 l 1,11,-1
 397 66 l 1,12,-1
 358 187 l 1,13,14
 323 187 323 187 287 188 c 128,-1,15
 251 189 251 189 216 190 c 1,16,-1
 146 187 l 1,17,18
 117 97 117 97 81 0 c 1,19,-1
 16 3 l 1,20,-1
 -21 0 l 1,21,-1
 79 232 l 2,0,1
255 265 m 1,22,-1
 334 267 l 1,23,24
 317 323 317 323 300 368 c 128,-1,25
 283 413 283 413 256 477 c 1,26,27
 213 374 213 374 175 267 c 1,28,-1
 255 265 l 1,22,-1
EndSplineSet
EndChar
StartChar: Beta
Encoding: 914 914 161
Width: 587
Flags: W
LayerCount: 2
Fore
SplineSet
78 150 m 2,0,-1
 79 335 l 2,1,2
 79 436 79 436 76.5 514.5 c 128,-1,3
 74 593 74 593 66 671 c 1,4,-1
 181 669 l 1,5,-1
 301 671 l 1,6,7
 404 671 404 671 472.5 637 c 128,-1,8
 541 603 541 603 541 511 c 0,9,10
 541 447 541 447 499 409.5 c 128,-1,11
 457 372 457 372 391 364 c 1,12,-1
 391 355 l 1,13,14
 459 355 459 355 508 312 c 128,-1,15
 557 269 557 269 557 200 c 0,16,17
 557 100 557 100 489 50 c 128,-1,18
 421 0 421 0 316 0 c 1,19,-1
 181 3 l 2,20,21
 153 3 153 3 110 1.5 c 128,-1,22
 67 0 67 0 66 0 c 1,23,24
 70 37 70 37 74 75.5 c 128,-1,25
 78 114 78 114 78 150 c 2,0,-1
374 503 m 0,26,27
 374 550 374 550 346 579 c 128,-1,28
 318 608 318 608 271 608 c 1,29,-1
 243 605 l 1,30,31
 237 552 237 552 237 495 c 2,32,-1
 237 389 l 1,33,34
 297 389 297 389 335.5 417 c 128,-1,35
 374 445 374 445 374 503 c 0,26,27
275 63 m 1,36,37
 325 63 325 63 354 99 c 128,-1,38
 383 135 383 135 383 186 c 0,39,40
 383 244 383 244 349.5 282.5 c 128,-1,41
 316 321 316 321 260 321 c 1,42,-1
 239 320 l 1,43,-1
 239 199 l 1,44,-1
 242 66 l 1,45,-1
 275 63 l 1,36,37
EndSplineSet
EndChar
StartChar: Gamma
Encoding: 915 915 151
Width: 468
Flags: W
LayerCount: 2
Fore
SplineSet
168 667 m 2,0,-1
 324 668 l 1,1,-1
 461 671 l 1,2,-1
 458 624 l 1,3,-1
 461 578 l 1,4,5
 395 585 395 585 350 587.5 c 128,-1,6
 305 590 305 590 246 590 c 1,7,8
 245 580 245 580 244 554.5 c 128,-1,9
 243 529 243 529 243 491 c 2,10,-1
 243 458 l 1,11,-1
 243 225 l 2,12,13
 243 141 243 141 244.5 100 c 128,-1,14
 246 59 246 59 253 0 c 1,15,-1
 156 3 l 1,16,-1
 66 0 l 1,17,18
 66 51 66 51 72.5 172 c 128,-1,19
 79 293 79 293 79 335 c 0,20,21
 79 442 79 442 76.5 514 c 128,-1,22
 74 586 74 586 66 671 c 1,23,24
 83 671 83 671 117 669 c 128,-1,25
 151 667 151 667 168 667 c 2,0,-1
EndSplineSet
EndChar
StartChar: Delta
Encoding: 916 916 149
Width: 700
Flags: W
HStem: 3 89<306.974 458> 6 79<158.19 457.553> 651 20G<281.667 302.333 405 424>
LayerCount: 2
Fore
SplineSet
353 667 m 0xa0
 362.333333333 667 372.333333333 667.5 383 668.5 c 0
 393.666666667 669.5 402 670.333333333 408 671 c 1
 440 581.666666667 469.666666667 501.833333333 497 431.5 c 0
 524.333333333 361.166666667 554.5 288.5 587.5 213.5 c 0
 620.5 138.5 654.666666667 67.3333333333 690 0 c 1
 652 0 595 1 519 3 c 0xa0
 443 5 385.666666667 6 347 6 c 0x60
 309.666666667 6 253.333333333 5 178 3 c 0
 102.666666667 1 46 0 8 0 c 1
 63.3333333333 107.333333333 117 220.166666667 169 338.5 c 0
 221 456.833333333 264.333333333 567.666666667 299 671 c 1
 305.666666667 670.333333333 313.666666667 669.5 323 668.5 c 0
 332.333333333 667.5 342.333333333 667 353 667 c 0xa0
226 269 m 2
 201.333333333 214.333333333 178 155.333333333 156 92 c 1xa0
 202.666666667 87.3333333333 252.666666667 85 306 85 c 0x60
 326.666666667 85 354.833333333 86.1666666667 390.5 88.5 c 0
 426.166666667 90.8333333333 448.666666667 92 458 92 c 1
 448.666666667 119.333333333 439.666666667 144.5 431 167.5 c 0
 422.333333333 190.5 408 228.666666667 388 282 c 1
 312 465 l 1
 226 269 l 2
EndSplineSet
EndChar
StartChar: Epsilon
Encoding: 917 917 162
Width: 506
Flags: W
LayerCount: 2
Fore
SplineSet
78 160 m 2,0,-1
 79 335 l 2,1,2
 79 447 79 447 76.5 511.5 c 128,-1,3
 74 576 74 576 66 671 c 1,4,-1
 258 667 l 2,5,6
 293 667 293 667 375.5 669 c 128,-1,7
 458 671 458 671 465 671 c 1,8,9
 463 660 463 660 462 650.5 c 128,-1,10
 461 641 461 641 461 628 c 0,11,12
 461 617 461 617 461.5 611 c 128,-1,13
 462 605 462 605 465 583 c 1,14,15
 438 583 438 583 383 587 c 128,-1,16
 328 591 328 591 300 591 c 2,17,-1
 245 590 l 1,18,-1
 242 393 l 1,19,-1
 458 401 l 1,20,21
 456 390 456 390 455 380 c 128,-1,22
 454 370 454 370 454 356 c 2,23,-1
 457 310 l 1,24,25
 413 310 413 310 332.5 314.5 c 128,-1,26
 252 319 252 319 242 319 c 1,27,-1
 242 213 l 2,28,29
 242 190 242 190 244 136.5 c 128,-1,30
 246 83 246 83 246 81 c 1,31,32
 354 81 354 81 461 93 c 1,33,-1
 458 46 l 1,34,-1
 461 0 l 1,35,36
 406 0 406 0 313.5 2.5 c 128,-1,37
 221 5 221 5 202 5 c 0,38,39
 171 5 171 5 123 2.5 c 128,-1,40
 75 0 75 0 66 0 c 1,41,42
 70 39 70 39 74 82.5 c 128,-1,43
 78 126 78 126 78 160 c 2,0,-1
EndSplineSet
EndChar
StartChar: Eta
Encoding: 919 919 161
Width: 755
Flags: W
HStem: 0 21G<66 156 244 249 505.667 509.667 598 689> 320 86<242 513> 651 20G<67.1321 74.3333 242 249 506 511.333 681.667 689>
VStem: 76 166<4.82117 320 406 628.6> 513 171<4.26563 318.769 406.93 663.518> 513 166<165.734 320 406 493.269>
LayerCount: 2
Fore
SplineSet
76 206 m 2xf4
 77 331 l 2
 77 366.333333333 76.1666666667 412 74.5 468 c 0
 72.8333333333 524 72 556.333333333 72 565 c 2
 66 671 l 1
 82.6666666667 669.666666667 98.5 668.333333333 113.5 667 c 0
 128.5 665.666666667 142.666666667 665 156 665 c 0
 168.666666667 665 183.833333333 665.666666667 201.5 667 c 0
 219.166666667 668.333333333 235 669.666666667 249 671 c 1
 249 653 247.833333333 625.666666667 245.5 589 c 0
 243.166666667 552.333333333 242 527.333333333 242 514 c 2
 242 406 l 1
 372 404 l 1
 513 406 l 1xf4
 513 514 l 2
 513 545.333333333 512.5 569.166666667 511.5 585.5 c 0
 510.5 601.833333333 508 630.333333333 504 671 c 1
 518.666666667 669.666666667 534.666666667 668.333333333 552 667 c 0
 569.333333333 665.666666667 584.666666667 665 598 665 c 0
 610.666666667 665 625.333333333 665.666666667 642 667 c 0
 658.666666667 668.333333333 674.333333333 669.666666667 689 671 c 1
 689 635 687.333333333 577 684 497 c 0xf8
 680.666666667 417 679 363 679 335 c 0xf4
 679 299.666666667 680.666666667 242 684 162 c 0
 687.333333333 82 689 28 689 0 c 1
 598 4 l 2
 588 4 572.666666667 3.33333333333 552 2 c 0
 531.333333333 0.666666666667 515.333333333 0 504 0 c 1
 507.333333333 22.6666666667 509.666666667 46.6666666667 511 72 c 0
 512.333333333 97.3333333333 513 122 513 146 c 2xf8
 513 320 l 1
 491.666666667 320 464.166666667 320.833333333 430.5 322.5 c 0
 396.833333333 324.166666667 377.333333333 325 372 325 c 0
 353.333333333 325 328.5 324.166666667 297.5 322.5 c 0
 266.5 320.833333333 248 320 242 320 c 1
 242 146 l 2
 242 129.333333333 243.166666667 104 245.5 70 c 0
 247.833333333 36 249 12.6666666667 249 0 c 1
 239 0 221.5 0.666666666667 196.5 2 c 0
 171.5 3.33333333333 158 4 156 4 c 2
 66 0 l 1
 66 19.3333333333 67.6666666667 54.5 71 105.5 c 0
 74.3333333333 156.5 76 190 76 206 c 2xf4
EndSplineSet
EndChar
StartChar: Theta
Encoding: 920 920 153
Width: 813
Flags: W
LayerCount: 2
Fore
SplineSet
37 421 m 1,0,1
 62 548 62 548 170 615.5 c 128,-1,2
 278 683 278 683 416 683 c 0,3,4
 578 683 578 683 680.5 597 c 128,-1,5
 783 511 783 511 783 351 c 0,6,7
 783 178 783 178 678.5 83.5 c 128,-1,8
 574 -11 574 -11 398 -11 c 0,9,10
 226 -11 226 -11 127.5 77 c 128,-1,11
 29 165 29 165 29 335 c 0,12,13
 29 354 29 354 30 367 c 128,-1,14
 31 380 31 380 37 421 c 1,0,1
403 52 m 0,15,16
 507 52 507 52 556 139.5 c 128,-1,17
 605 227 605 227 605 340 c 0,18,19
 605 449 605 449 557 534 c 128,-1,20
 509 619 509 619 408 619 c 0,21,22
 303 619 303 619 255 534 c 128,-1,23
 207 449 207 449 207 335 c 0,24,25
 207 226 207 226 254.5 139 c 128,-1,26
 302 52 302 52 403 52 c 0,15,16
408 378 m 0,27,28
 440 378 440 378 488.5 380.5 c 128,-1,29
 537 383 537 383 544 383 c 1,30,-1
 543 388 l 1,31,-1
 541 340 l 1,32,-1
 543 290 l 1,33,-1
 544 293 l 1,34,-1
 406 298 l 1,35,-1
 269 293 l 1,36,-1
 271 338 l 1,37,-1
 269 383 l 1,38,39
 300 383 300 383 349.5 380.5 c 128,-1,40
 399 378 399 378 408 378 c 0,27,28
EndSplineSet
EndChar
StartChar: Iota
Encoding: 921 921 165
Width: 322
Flags: W
LayerCount: 2
Fore
SplineSet
80 290 m 0,0,1
 80 439 80 439 77.5 515.5 c 128,-1,2
 75 592 75 592 68 671 c 1,3,4
 90 669 90 669 116.5 666.5 c 128,-1,5
 143 664 143 664 159 664 c 0,6,7
 177 664 177 664 210.5 667.5 c 128,-1,8
 244 671 244 671 254 671 c 1,9,10
 247 590 247 590 244.5 516 c 128,-1,11
 242 442 242 442 242 335 c 0,12,13
 242 235 242 235 244.5 159.5 c 128,-1,14
 247 84 247 84 254 0 c 1,15,16
 237 0 237 0 196 2 c 128,-1,17
 155 4 155 4 154 4 c 2,18,-1
 68 0 l 1,19,20
 74 64 74 64 77 144 c 128,-1,21
 80 224 80 224 80 290 c 0,0,1
EndSplineSet
EndChar
StartChar: Kappa
Encoding: 922 922 163
Width: 616
Flags: W
HStem: 2 662<78.4009 239.452> 651 20G<66.3462 70.6667 239.667 247 483.667 553 607.667 622.333>
VStem: 78 163<4.84131 291 371 623>
LayerCount: 2
Fore
SplineSet
240 516 m 2x60
 240 371 l 1
 410 567 l 2
 434 595 449.833333333 613.833333333 457.5 623.5 c 0
 465.166666667 633.166666667 476.333333333 649 491 671 c 1
 553 667 l 2
 561 667 573 667.666666667 589 669 c 0
 605 670.333333333 617.666666667 671 627 671 c 1x60
 588.333333333 632.333333333 544.5 587.833333333 495.5 537.5 c 0
 446.5 487.166666667 402.333333333 441 363 399 c 1
 449 272 l 1
 511.666666667 176.666666667 576.333333333 86 643 0 c 1
 543 4 l 2
 530.333333333 4 508.833333333 3.33333333333 478.5 2 c 0
 448.166666667 0.666666666667 431.666666667 0 429 0 c 1
 405 47.3333333333 378.5 93 349.5 137 c 0
 320.5 181 284.333333333 232.333333333 241 291 c 1
 241 139 l 2
 241 91.6666666667 244 45.3333333333 250 0 c 1
 239.333333333 0 220.833333333 0.666666666667 194.5 2 c 0xa0
 168.166666667 3.33333333333 154.333333333 4 153 4 c 2
 65 0 l 1
 65 33.3333333333 67.1666666667 90 71.5 170 c 0
 75.8333333333 250 78 304 78 332 c 0
 78 358 77 397 75 449 c 0
 73 501 72 540.333333333 72 567 c 1
 65 671 l 1x60
 76.3333333333 671 92.5 669.833333333 113.5 667.5 c 0
 134.5 665.166666667 149.333333333 664 158 664 c 0xa0
 174 664 189.166666667 664.666666667 203.5 666 c 0
 217.833333333 667.333333333 232.333333333 669 247 671 c 1
 247 659 245.833333333 634.833333333 243.5 598.5 c 0
 241.166666667 562.166666667 240 534.666666667 240 516 c 2x60
EndSplineSet
EndChar
StartChar: Lambda
Encoding: 923 923 154
Width: 602
Flags: W
LayerCount: 2
Fore
SplineSet
420 504 m 2,0,-1
 617 0 l 1,1,2
 593 0 593 0 563 2.5 c 128,-1,3
 533 5 533 5 521 5 c 0,4,5
 496 5 496 5 465 2.5 c 128,-1,6
 434 0 434 0 423 0 c 1,7,8
 417 31 417 31 405.5 65 c 128,-1,9
 394 99 394 99 388 118 c 1,10,-1
 259 459 l 1,11,-1
 137 116 l 2,12,13
 118 63 118 63 103 0 c 1,14,-1
 52 4 l 1,15,16
 35 4 35 4 26 3.5 c 128,-1,17
 17 3 17 3 -14 0 c 1,18,19
 -2 24 -2 24 18 66.5 c 128,-1,20
 38 109 38 109 60 163 c 2,21,-1
 196 503 l 2,22,23
 209 538 209 538 224 583.5 c 128,-1,24
 239 629 239 629 251 671 c 1,25,26
 273 669 273 669 284 668 c 128,-1,27
 295 667 295 667 305 667 c 0,28,29
 329 667 329 667 341.5 669 c 128,-1,30
 354 671 354 671 361 671 c 1,31,32
 386 590 386 590 420 504 c 2,0,-1
EndSplineSet
EndChar
StartChar: Mu
Encoding: 924 924 167
Width: 876
Flags: W
LayerCount: 2
Fore
SplineSet
76 335 m 2,0,-1
 121 671 l 1,1,2
 137 669 137 669 152 668 c 128,-1,3
 167 667 167 667 188 667 c 0,4,5
 200 667 200 667 223 669 c 128,-1,6
 246 671 246 671 258 671 c 1,7,8
 295 569 295 569 318 511 c 128,-1,9
 341 453 341 453 362.5 402.5 c 128,-1,10
 384 352 384 352 438 228 c 1,11,-1
 561 497 l 1,12,13
 601 582 601 582 628 671 c 1,14,15
 639 671 639 671 662 669 c 128,-1,16
 685 667 685 667 696 667 c 0,17,18
 725 667 725 667 740 669 c 128,-1,19
 755 671 755 671 763 671 c 1,20,-1
 796 341 l 2,21,22
 805 255 805 255 814.5 173.5 c 128,-1,23
 824 92 824 92 839 0 c 1,24,25
 821 0 821 0 789 2.5 c 128,-1,26
 757 5 757 5 750 5 c 0,27,28
 731 5 731 5 698.5 2.5 c 128,-1,29
 666 0 666 0 659 0 c 1,30,31
 659 103 659 103 645 210 c 1,32,-1
 623 444 l 1,33,34
 578 346 578 346 527 228.5 c 128,-1,35
 476 111 476 111 430 0 c 1,36,-1
 397 1 l 1,37,-1
 360 0 l 1,38,39
 335 63 335 63 294.5 157.5 c 128,-1,40
 254 252 254 252 228.5 307.5 c 128,-1,41
 203 363 203 363 170 436 c 1,42,-1
 141 165 l 2,43,44
 137 125 137 125 133.5 78.5 c 128,-1,45
 130 32 130 32 130 0 c 1,46,47
 119 0 119 0 96.5 2.5 c 128,-1,48
 74 5 74 5 72 5 c 0,49,50
 56 5 56 5 43.5 3 c 128,-1,51
 31 1 31 1 23 0 c 1,52,53
 56 186 56 186 76 335 c 2,0,-1
EndSplineSet
EndChar
StartChar: Nu
Encoding: 925 925 170
Width: 727
Flags: W
HStem: 0 21G<64 66.3333 160.667 163.425 515 550 658.333 661.667> 651 20G<65.5769 128 128 224.333 563 570 663.667 668.333>
VStem: 70.5 88.5<7.12061 445> 570 88<234 666.973>
LayerCount: 2
Fore
SplineSet
73 320 m 0
 73 358 72.1666666667 406.333333333 70.5 465 c 0
 68.8333333333 523.666666667 68 557.666666667 68 567 c 2
 65 671 l 1
 128 667 l 1
 194 671 l 1
 254.666666667 595 316.333333333 520.333333333 379 447 c 0
 441.666666667 373.666666667 505.333333333 302.666666667 570 234 c 1
 570 419 l 2
 570 447.666666667 568.833333333 491.333333333 566.5 550 c 0
 564.166666667 608.666666667 563 649 563 671 c 1
 577 669.666666667 587.333333333 668.666666667 594 668 c 0
 600.666666667 667.333333333 607.666666667 667 615 667 c 0
 625.666666667 667 634.333333333 667.333333333 641 668 c 0
 647.666666667 668.666666667 657.333333333 670 670 672 c 1
 666.666666667 650.666666667 664 627.833333333 662 603.5 c 0
 660 579.166666667 659 555 659 531 c 0
 659 465 658.666666667 398.666666667 658 332 c 0
 657.333333333 265.333333333 656.666666667 199 656 133 c 0
 656 115 656.5 96.3333333333 657.5 77 c 0
 658.5 57.6666666667 660.333333333 32 663 0 c 1
 653.666666667 1.33333333333 643 2.5 631 3.5 c 0
 619 4.5 610 5 604 5 c 0
 591.333333333 5 580.833333333 4.5 572.5 3.5 c 0
 564.166666667 2.5 555 1.33333333333 545 0 c 1
 485 72.6666666667 422.333333333 146.833333333 357 222.5 c 0
 291.666666667 298.166666667 225.666666667 372.333333333 159 445 c 1
 159 174 l 1
 164 0 l 1
 157.333333333 0.666666666667 149.5 1.66666666667 140.5 3 c 0
 131.5 4.33333333333 123 5 115 5 c 0
 103 5 93.3333333333 4.5 86 3.5 c 0
 78.6666666667 2.5 70.6666666667 1.33333333333 62 0 c 1
 66 50.6666666667 68.8333333333 100.666666667 70.5 150 c 0
 72.1666666667 199.333333333 73 256 73 320 c 0
EndSplineSet
EndChar
StartChar: Xi
Encoding: 926 926 155
Width: 631
Flags: W
LayerCount: 2
Fore
SplineSet
316 137 m 0,0,1
 373 137 373 137 470.5 139.5 c 128,-1,2
 568 142 568 142 588 142 c 1,3,4
 585 116 585 116 585 90 c 2,5,-1
 585 72 l 2,6,7
 585 54 585 54 585 37 c 128,-1,8
 585 20 585 20 588 0 c 1,9,10
 543 0 543 0 453 3 c 128,-1,11
 363 6 363 6 316 6 c 0,12,13
 270 6 270 6 179 3 c 128,-1,14
 88 0 88 0 42 0 c 1,15,-1
 46 71 l 1,16,-1
 42 142 l 1,17,18
 105 142 105 142 203 139.5 c 128,-1,19
 301 137 301 137 316 137 c 0,0,1
316 538 m 0,20,21
 273 538 273 538 186 535 c 128,-1,22
 99 532 99 532 56 532 c 1,23,24
 60 565 60 565 60.5 579 c 128,-1,25
 61 593 61 593 61 601 c 0,26,27
 61 633 61 633 56 671 c 1,28,29
 101 671 101 671 192.5 667.5 c 128,-1,30
 284 664 284 664 316 664 c 0,31,32
 360 664 360 664 451 667.5 c 128,-1,33
 542 671 542 671 574 671 c 1,34,-1
 571 601 l 1,35,-1
 574 532 l 1,36,37
 532 532 532 532 446 535 c 128,-1,38
 360 538 360 538 316 538 c 0,20,21
510 337 m 1,39,-1
 514 270 l 1,40,41
 482 270 482 270 416 273 c 128,-1,42
 350 276 350 276 316 276 c 256,43,44
 282 276 282 276 216 273 c 128,-1,45
 150 270 150 270 117 270 c 1,46,47
 118 286 118 286 119.5 301.5 c 128,-1,48
 121 317 121 317 121 337 c 0,49,50
 121 349 121 349 119 377 c 128,-1,51
 117 405 117 405 117 408 c 1,52,53
 216 399 216 399 316 399 c 256,54,55
 416 399 416 399 514 408 c 1,56,-1
 510 337 l 1,39,-1
EndSplineSet
EndChar
StartChar: Omicron
Encoding: 927 927 174
Width: 813
Flags: W
LayerCount: 2
Fore
SplineSet
416 683 m 0,0,1
 579 683 579 683 680.5 597 c 128,-1,2
 782 511 782 511 782 350 c 0,3,4
 782 176 782 176 678.5 82.5 c 128,-1,5
 575 -11 575 -11 398 -11 c 0,6,7
 226 -11 226 -11 127.5 77 c 128,-1,8
 29 165 29 165 29 335 c 0,9,10
 29 502 29 502 136 592.5 c 128,-1,11
 243 683 243 683 416 683 c 0,0,1
405 52 m 0,12,13
 509 52 509 52 557 139.5 c 128,-1,14
 605 227 605 227 605 340 c 0,15,16
 605 449 605 449 557 534 c 128,-1,17
 509 619 509 619 408 619 c 0,18,19
 303 619 303 619 255 534 c 128,-1,20
 207 449 207 449 207 335 c 0,21,22
 207 225 207 225 255 138.5 c 128,-1,23
 303 52 303 52 405 52 c 0,12,13
EndSplineSet
EndChar
StartChar: Pi
Encoding: 928 928 153
Width: 755
Flags: HW
LayerCount: 2
Fore
SplineSet
76 205 m 2
 77 332 l 2
 77 367.333333333 76.1666666667 413 74.5 469 c 128
 72.8333333333 525 72 557 72 565 c 2
 66 671 l 1
 84.6666666667 671 113.333333333 669.666666667 152 667 c 128
 190.666666667 664.333333333 219.666666667 663 239 663 c 2
 513 663 l 2
 532.333333333 663 561.666666667 664.333333333 601 667 c 128
 640.333333333 669.666666667 670 671 690 671 c 1
 690 635 687.833333333 577.5 683.5 498.5 c 128
 679.166666667 419.5 677 365 677 335 c 0
 677 263 677.833333333 204.5 679.5 159.5 c 128
 681.166666667 114.5 684.666666667 61.3333333333 690 0 c 1
 598 4 l 2
 588 4 570.5 3.33333333333 545.5 2 c 128
 520.5 0.666666666667 506.666666667 0 504 0 c 1
 506.666666667 16 508.666666667 31.1666666667 510 45.5 c 128
 511.333333333 59.8333333333 512 76 512 94 c 2
 515 363 l 1
 511 585 l 1
 372 589 l 1
 244 585 l 1
 244 561 243.333333333 520.333333333 242 463 c 128
 240.666666667 405.666666667 240 375.333333333 240 372 c 2
 243 94 l 2
 243 60 245.333333333 28.6666666667 250 0 c 1
 239.333333333 0 223.333333333 0.666666666667 202 2 c 128
 180.666666667 3.33333333333 165.333333333 4 156 4 c 2
 66 0 l 1
 66 19.3333333333 67.6666666667 54.5 71 105.5 c 128
 74.3333333333 156.5 76 189.666666667 76 205 c 2
EndSplineSet
EndChar
StartChar: Rho
Encoding: 929 929 175
Width: 577
Flags: W
LayerCount: 2
Fore
SplineSet
242 145 m 2,0,1
 242 107 242 107 243 93.5 c 128,-1,2
 244 80 244 80 252 0 c 1,3,4
 230 0 230 0 197 2.5 c 128,-1,5
 164 5 164 5 159 5 c 0,6,7
 137 5 137 5 104 2.5 c 128,-1,8
 71 0 71 0 66 0 c 1,9,10
 73 81 73 81 75.5 153 c 128,-1,11
 78 225 78 225 78 332 c 0,12,13
 78 395 78 395 72 521 c 128,-1,14
 66 647 66 647 66 670 c 1,15,16
 81 670 81 670 116.5 668 c 128,-1,17
 152 666 152 666 155 666 c 2,18,-1
 285 671 l 1,19,-1
 321 672 l 1,20,21
 425 672 425 672 488 631 c 128,-1,22
 551 590 551 590 551 491 c 0,23,24
 551 407 551 407 498.5 350.5 c 128,-1,25
 446 294 446 294 393 288 c 128,-1,26
 340 282 340 282 306 281 c 128,-1,27
 272 280 272 280 242 280 c 1,28,-1
 242 145 l 2,0,1
386 482 m 0,29,30
 386 534 386 534 359.5 568 c 128,-1,31
 333 602 333 602 282 602 c 1,32,-1
 242 600 l 1,33,-1
 240 499 l 1,34,-1
 240 350 l 1,35,36
 313 350 313 350 349.5 381 c 128,-1,37
 386 412 386 412 386 482 c 0,29,30
EndSplineSet
EndChar
StartChar: Sigma
Encoding: 931 931 157
Width: 607
Flags: W
LayerCount: 2
Fore
SplineSet
538 625 m 1,0,-1
 541 579 l 1,1,2
 515 579 515 579 462 582 c 128,-1,3
 409 585 409 585 380 585 c 2,4,-1
 266 585 l 1,5,6
 308 528 308 528 346.5 478 c 128,-1,7
 385 428 385 428 428 374 c 1,8,9
 358 302 358 302 290 227 c 1,10,-1
 219 146 l 1,11,-1
 392 146 l 2,12,13
 422 146 422 146 484 150 c 128,-1,14
 546 154 546 154 577 154 c 1,15,-1
 572 81 l 1,16,17
 572 43 572 43 577 0 c 1,18,-1
 329 3 l 1,19,-1
 13 0 l 1,20,-1
 13 41 l 1,21,22
 100 131 100 131 188 238 c 1,23,-1
 263 332 l 1,24,25
 215 403 215 403 160.5 473.5 c 128,-1,26
 106 544 106 544 40 623 c 1,27,-1
 40 671 l 1,28,29
 85 671 85 671 175 668 c 128,-1,30
 265 665 265 665 311 665 c 0,31,32
 368 665 368 665 454 668 c 128,-1,33
 540 671 540 671 541 671 c 2,34,-1
 538 625 l 1,0,-1
EndSplineSet
EndChar
StartChar: Tau
Encoding: 932 932 176
Width: 539
Flags: W
LayerCount: 2
Fore
SplineSet
355 589 m 1,0,1
 355 569 355 569 353 521 c 128,-1,2
 351 473 351 473 351 470 c 0,3,4
 351 381 351 381 353.5 308 c 128,-1,5
 356 235 356 235 359 145.5 c 128,-1,6
 362 56 362 56 362 0 c 1,7,8
 347 0 347 0 316 2 c 128,-1,9
 285 4 285 4 270 4 c 0,10,11
 253 4 253 4 229 2.5 c 128,-1,12
 205 1 205 1 176 0 c 1,13,14
 176 64 176 64 182 192 c 128,-1,15
 188 320 188 320 188 343 c 0,16,17
 188 384 188 384 186 483 c 128,-1,18
 184 582 184 582 184 589 c 1,19,20
 136 589 136 589 114.5 587.5 c 128,-1,21
 93 586 93 586 6 577 c 1,22,-1
 9 628 l 1,23,-1
 6 671 l 1,24,25
 51 671 51 671 143.5 667.5 c 128,-1,26
 236 664 236 664 269 664 c 0,27,28
 321 664 321 664 413 667.5 c 128,-1,29
 505 671 505 671 532 671 c 1,30,-1
 529 627 l 1,31,-1
 532 577 l 1,32,33
 443 589 443 589 355 589 c 1,0,1
EndSplineSet
EndChar
StartChar: Upsilon
Encoding: 933 933 174
Width: 538
Flags: HW
LayerCount: 2
Fore
SplineSet
97 468 m 2
 88 484 88 484 47.5 556 c 128
 20.5 604 -2.66666666667 642.333333333 -22 671 c 1
 66 667 l 2
 79.3333333333 667 101.5 667.666666667 132.5 669 c 128
 163.5 670.333333333 180.666666667 671 184 671 c 1
 207.333333333 619.666666667 228.833333333 573.833333333 248.5 533.5 c 128
 268.166666667 493.166666667 291.333333333 448.333333333 318 399 c 1
 342 438.333333333 365.666666667 480.666666667 389 526 c 128
 412.333333333 571.333333333 435.333333333 619.666666667 458 671 c 1
 512 667 l 2
 518.666666667 667 528.666666667 667.666666667 542 669 c 128
 555.333333333 670.333333333 565.666666667 671 573 671 c 1
 533.666666667 613.666666667 497 555.5 463 496.5 c 128
 429 437.5 394 373 358 303 c 1
 361 103 l 1
 365 0 l 1
 298 4 l 1
 184 0 l 1
 184 24 185.5 57.1666666667 188.5 99.5 c 128
 191.5 141.833333333 193 165.666666667 193 171 c 2
 192 290 l 1
 97 468 l 2
EndSplineSet
EndChar
StartChar: Phi
Encoding: 934 934 168
Width: 813
Flags: W
LayerCount: 2
Fore
SplineSet
321 691 m 1,0,1
 349 688 349 688 370.5 686 c 128,-1,2
 392 684 392 684 408 684 c 0,3,4
 432 684 432 684 457 687 c 128,-1,5
 482 690 482 690 492 691 c 1,6,7
 490 679 490 679 487 655 c 128,-1,8
 484 631 484 631 484 618 c 1,9,-1
 541 613 l 1,10,11
 651 597 651 597 719 527 c 128,-1,12
 787 457 787 457 787 349 c 0,13,14
 787 217 787 217 706 149 c 128,-1,15
 625 81 625 81 484 52 c 1,16,17
 484 32 484 32 485 23 c 128,-1,18
 486 14 486 14 492 -19 c 1,19,20
 471 -17 471 -17 446.5 -14.5 c 128,-1,21
 422 -12 422 -12 408 -12 c 0,22,23
 386 -12 386 -12 360.5 -15 c 128,-1,24
 335 -18 335 -18 321 -19 c 1,25,26
 324 -4 324 -4 327 12.5 c 128,-1,27
 330 29 330 29 330 52 c 1,28,-1
 274 59 l 1,29,30
 167 74 167 74 96.5 147.5 c 128,-1,31
 26 221 26 221 26 327 c 0,32,33
 26 458 26 458 108.5 527 c 128,-1,34
 191 596 191 596 330 618 c 1,35,36
 330 633 330 633 326.5 656 c 128,-1,37
 323 679 323 679 321 691 c 1,0,1
481 504 m 1,38,-1
 480 336 l 1,39,-1
 481 168 l 1,40,-1
 482 123 l 1,41,42
 557 131 557 131 588.5 192 c 128,-1,43
 620 253 620 253 620 337 c 0,44,45
 620 420 620 420 588.5 480 c 128,-1,46
 557 540 557 540 482 550 c 1,47,-1
 481 504 l 1,38,-1
302 544 m 2,48,49
 242 532 242 532 217 471.5 c 128,-1,50
 192 411 192 411 192 338 c 0,51,52
 192 253 192 253 223 192.5 c 128,-1,53
 254 132 254 132 330 123 c 1,54,-1
 332 168 l 1,55,-1
 333 305 l 1,56,-1
 332 504 l 1,57,-1
 330 550 l 1,58,-1
 302 544 l 2,48,49
EndSplineSet
EndChar
StartChar: Chi
Encoding: 935 935 178
Width: 563
Flags: W
LayerCount: 2
Fore
SplineSet
122 174 m 1,0,-1
 217 314 l 1,1,-1
 11 671 l 1,2,3
 28 671 28 671 68 669 c 128,-1,4
 108 667 108 667 112 667 c 0,5,6
 129 667 129 667 169.5 669 c 128,-1,7
 210 671 210 671 215 671 c 1,8,9
 222 653 222 653 226.5 643.5 c 128,-1,10
 231 634 231 634 258 578 c 1,11,-1
 321 460 l 1,12,13
 370 539 370 539 394.5 580 c 128,-1,14
 419 621 419 621 442 671 c 1,15,16
 452 671 452 671 472 669 c 128,-1,17
 492 667 492 667 503 667 c 0,18,19
 513 667 513 667 533 669 c 128,-1,20
 553 671 553 671 564 671 c 1,21,22
 511 600 511 600 493.5 576 c 128,-1,23
 476 552 476 552 444 505 c 2,24,-1
 362 383 l 1,25,-1
 577 0 l 1,26,27
 559 0 559 0 514 2 c 128,-1,28
 469 4 469 4 466 4 c 2,29,-1
 372 0 l 1,30,-1
 339 78 l 1,31,-1
 257 235 l 1,32,33
 228 190 228 190 191.5 125.5 c 128,-1,34
 155 61 155 61 123 0 c 1,35,36
 111 0 111 0 85 2.5 c 128,-1,37
 59 5 59 5 56 5 c 0,38,39
 38 5 38 5 23 3 c 128,-1,40
 8 1 8 1 -1 0 c 1,41,-1
 122 174 l 1,0,-1
EndSplineSet
EndChar
StartChar: Psi
Encoding: 936 936 170
Width: 853
Flags: W
LayerCount: 2
Fore
SplineSet
221 510 m 0,0,1
 221 494 221 494 222 460.5 c 128,-1,2
 223 427 223 427 223 410 c 0,3,4
 223 333 223 333 248 293.5 c 128,-1,5
 273 254 273 254 345 254 c 1,6,-1
 346 349 l 2,7,8
 346 409 346 409 340 529.5 c 128,-1,9
 334 650 334 650 334 671 c 1,10,11
 356 669 356 669 382 666.5 c 128,-1,12
 408 664 408 664 423 664 c 0,13,14
 441 664 441 664 474.5 667.5 c 128,-1,15
 508 671 508 671 518 671 c 1,16,17
 518 632 518 632 513.5 560 c 128,-1,18
 509 488 509 488 509 480 c 2,19,-1
 506 254 l 1,20,21
 549 254 549 254 577 272.5 c 128,-1,22
 605 291 605 291 615.5 329.5 c 128,-1,23
 626 368 626 368 628.5 419 c 128,-1,24
 631 470 631 470 631 483 c 0,25,26
 631 519 631 519 625.5 584 c 128,-1,27
 620 649 620 649 620 671 c 1,28,29
 635 671 635 671 667 667.5 c 128,-1,30
 699 664 699 664 709 664 c 0,31,32
 722 664 722 664 749 667 c 128,-1,33
 776 670 776 670 791 670 c 1,34,35
 789 651 789 651 788 626 c 128,-1,36
 787 601 787 601 787 577 c 2,37,-1
 788 531 l 1,38,-1
 789 494 l 1,39,-1
 788 439 l 1,40,41
 788 311 788 311 716.5 255.5 c 128,-1,42
 645 200 645 200 508 188 c 1,43,44
 508 158 508 158 513 91 c 128,-1,45
 518 24 518 24 518 0 c 1,46,47
 498 0 498 0 465.5 2.5 c 128,-1,48
 433 5 433 5 426 5 c 0,49,50
 405 5 405 5 372 2.5 c 128,-1,51
 339 0 339 0 334 0 c 1,52,53
 334 29 334 29 339 97 c 128,-1,54
 344 165 344 165 344 188 c 1,55,56
 205 188 205 188 134 258 c 128,-1,57
 63 328 63 328 63 469 c 1,58,-1
 65 579 l 1,59,-1
 65 591 l 2,60,61
 65 635 65 635 61 670 c 1,62,63
 74 670 74 670 101 667 c 128,-1,64
 128 664 128 664 142 664 c 0,65,66
 158 664 158 664 185.5 667.5 c 128,-1,67
 213 671 213 671 232 671 c 1,68,69
 228 631 228 631 224.5 585.5 c 128,-1,70
 221 540 221 540 221 510 c 0,0,1
EndSplineSet
EndChar
StartChar: Omega
Encoding: 937 937 171
Width: 872
Flags: W
LayerCount: 2
Fore
SplineSet
845 93 m 1,0,1
 843 84 843 84 843 74.5 c 128,-1,2
 843 65 843 65 843 60 c 2,3,-1
 843 51 l 2,4,5
 843 38 843 38 843 26 c 128,-1,6
 843 14 843 14 846 0 c 1,7,-1
 687 3 l 1,8,-1
 515 0 l 1,9,-1
 515 74 l 1,10,11
 586 117 586 117 611 181 c 128,-1,12
 636 245 636 245 636 341 c 0,13,14
 636 449 636 449 587 534 c 128,-1,15
 538 619 538 619 437 619 c 0,16,17
 332 619 332 619 285 531.5 c 128,-1,18
 238 444 238 444 238 329 c 0,19,20
 238 244 238 244 265.5 177 c 128,-1,21
 293 110 293 110 357 74 c 1,22,-1
 357 0 l 1,23,-1
 185 3 l 1,24,-1
 26 0 l 1,25,-1
 28 58 l 1,26,-1
 26 93 l 1,27,28
 109 81 109 81 190 81 c 1,29,30
 124 120 124 120 92.5 186 c 128,-1,31
 61 252 61 252 61 334 c 0,32,33
 61 499 61 499 169.5 591 c 128,-1,34
 278 683 278 683 448 683 c 0,35,36
 610 683 610 683 712 598 c 128,-1,37
 814 513 814 513 814 354 c 0,38,39
 814 262 814 262 779.5 196 c 128,-1,40
 745 130 745 130 669 81 c 1,41,42
 756 81 756 81 845 93 c 1,0,1
EndSplineSet
EndChar
StartChar: Iotadieresis
Encoding: 938 938 155
Width: 323
Flags: W
HStem: 0 21G<70 153 248 253> 651 20G<70 78 248.333 253> 756 138<20.6582 114.373 207.174 302.857>
VStem: -1 136<777.658 874.404> 79 163<5.73047 664.221> 185 139<777.658 873.889>
LayerCount: 2
Fore
SplineSet
79 290 m 0xe8
 79 342 77.5 415.666666667 74.5 511 c 0
 71.5 606.333333333 70 659.666666667 70 671 c 1
 86 669.666666667 101.5 668.333333333 116.5 667 c 0
 131.5 665.666666667 145.666666667 665 159 665 c 0
 169.666666667 665 185.666666667 666 207 668 c 0
 228.333333333 670 243.666666667 671 253 671 c 1
 253 636.333333333 251.166666667 577.833333333 247.5 495.5 c 0
 243.833333333 413.166666667 242 359.666666667 242 335 c 0
 242 299.666666667 243.833333333 241.166666667 247.5 159.5 c 0
 251.166666667 77.8333333333 253 24.6666666667 253 0 c 1
 243 0 226.666666667 0.666666666667 204 2 c 0
 181.333333333 3.33333333333 164.333333333 4 153 4 c 2
 70 0 l 1
 70 40 71.5 96 74.5 168 c 0
 77.5 240 79 280.666666667 79 290 c 0xe8
67 894 m 256
 85.6666666667 894 101.666666667 887.666666667 115 875 c 0
 128.333333333 862.333333333 135 846.333333333 135 827 c 0
 135 807 128.833333333 790.166666667 116.5 776.5 c 0
 104.166666667 762.833333333 88.6666666667 756 70 756 c 0
 50.6666666667 756 34 763 20 777 c 0
 6 791 -1 807.666666667 -1 827 c 0xf0
 -1 845 5.66666666667 860.666666667 19 874 c 0
 32.3333333333 887.333333333 48.3333333333 894 67 894 c 256
254 894 m 0
 273.333333333 894 289.833333333 887.5 303.5 874.5 c 0
 317.166666667 861.5 324 845.666666667 324 827 c 0
 324 807.666666667 317.666666667 791 305 777 c 0
 292.333333333 763 276.333333333 756 257 756 c 256
 237.666666667 756 220.833333333 762.833333333 206.5 776.5 c 0
 192.166666667 790.166666667 185 807 185 827 c 0xe4
 185 845 192 860.666666667 206 874 c 0
 220 887.333333333 236 894 254 894 c 0
EndSplineSet
EndChar
StartChar: Upsilondieresis
Encoding: 939 939 169
Width: 538
Flags: W
LayerCount: 2
Fore
SplineSet
96 468 m 2,0,1
 68 519 68 519 38 572.5 c 128,-1,2
 8 626 8 626 -23 671 c 1,3,-1
 66 668 l 1,4,-1
 184 671 l 1,5,6
 237 557 237 557 263 504.5 c 128,-1,7
 289 452 289 452 318 399 c 1,8,9
 354 457 354 457 389.5 526.5 c 128,-1,10
 425 596 425 596 458 671 c 1,11,-1
 512 668 l 1,12,-1
 573 671 l 1,13,14
 514 585 514 585 463 496.5 c 128,-1,15
 412 408 412 408 358 303 c 1,16,-1
 361 103 l 1,17,-1
 366 0 l 1,18,-1
 298 4 l 1,19,-1
 184 0 l 1,20,21
 184 28 184 28 188 85 c 128,-1,22
 192 142 192 142 192 170 c 2,23,-1
 192 290 l 1,24,-1
 96 468 l 2,0,1
175 894 m 0,25,26
 203 894 203 894 223 875 c 128,-1,27
 243 856 243 856 243 827 c 0,28,29
 243 797 243 797 224.5 776.5 c 128,-1,30
 206 756 206 756 176 756 c 0,31,32
 147 756 147 756 125.5 776.5 c 128,-1,33
 104 797 104 797 104 827 c 0,34,35
 104 854 104 854 125 874 c 128,-1,36
 146 894 146 894 175 894 c 0,25,26
362 894 m 0,37,38
 391 894 391 894 411.5 874.5 c 128,-1,39
 432 855 432 855 432 827 c 0,40,41
 432 797 432 797 412.5 776.5 c 128,-1,42
 393 756 393 756 364 756 c 0,43,44
 334 756 334 756 314 776 c 128,-1,45
 294 796 294 796 294 827 c 0,46,47
 294 854 294 854 314 874 c 128,-1,48
 334 894 334 894 362 894 c 0,37,38
EndSplineSet
EndChar
StartChar: uni03AC
Encoding: 940 940 172
Width: 632
Flags: W
LayerCount: 2
Fore
SplineSet
483 479 m 1,0,-1
 540 477 l 1,1,-1
 596 479 l 1,2,3
 564 397 564 397 550 359.5 c 128,-1,4
 536 322 536 322 519 272 c 1,5,-1
 590 0 l 1,6,7
 571 2 571 2 550 4.5 c 128,-1,8
 529 7 529 7 517 7 c 0,9,10
 499 7 499 7 477.5 4 c 128,-1,11
 456 1 456 1 444 0 c 1,12,-1
 429 73 l 1,13,14
 362 -11 362 -11 261 -11 c 0,15,16
 152 -11 152 -11 87 60 c 128,-1,17
 22 131 22 131 22 241 c 0,18,19
 22 349 22 349 89.5 420.5 c 128,-1,20
 157 492 157 492 266 492 c 0,21,22
 324 492 324 492 372 466.5 c 128,-1,23
 420 441 420 441 457 394 c 1,24,25
 462 406 462 406 470 433 c 128,-1,26
 478 460 478 460 483 479 c 1,0,-1
377 686 m 1,27,28
 401 710 401 710 415.5 721 c 128,-1,29
 430 732 430 732 451 732 c 0,30,31
 473 732 473 732 488 716 c 128,-1,32
 503 700 503 700 503 679 c 0,33,34
 503 659 503 659 489.5 645.5 c 128,-1,35
 476 632 476 632 454 621 c 2,36,-1
 293 543 l 1,37,-1
 243 543 l 1,38,-1
 377 686 l 1,27,28
277 442 m 0,39,40
 248 442 248 442 226.5 423.5 c 128,-1,41
 205 405 205 405 200 377 c 1,42,43
 192 349 192 349 188.5 313 c 128,-1,44
 185 277 185 277 185 240 c 0,45,46
 185 179 185 179 195 125 c 1,47,48
 199 88 199 88 220.5 62.5 c 128,-1,49
 242 37 242 37 278 37 c 0,50,51
 342 37 342 37 368 103.5 c 128,-1,52
 394 170 394 170 394 245 c 0,53,54
 394 308 394 308 377 363 c 128,-1,55
 360 418 360 418 328.5 430 c 128,-1,56
 297 442 297 442 277 442 c 0,39,40
EndSplineSet
EndChar
StartChar: uni03AD
Encoding: 941 941 186
Width: 473
Flags: W
LayerCount: 2
Fore
SplineSet
369 361 m 1,0,1
 362 395 362 395 340.5 417.5 c 128,-1,2
 319 440 319 440 286 440 c 0,3,4
 254 440 254 440 233.5 416.5 c 128,-1,5
 213 393 213 393 213 360 c 0,6,7
 213 332 213 332 229 311 c 128,-1,8
 245 290 245 290 273 286 c 1,9,-1
 325 284 l 1,10,-1
 324 269 l 1,11,12
 324 252 324 252 324 242.5 c 128,-1,13
 324 233 324 233 325 228 c 1,14,15
 317 230 317 230 299 230 c 0,16,17
 261 230 261 230 232.5 202.5 c 128,-1,18
 204 175 204 175 204 140 c 0,19,20
 204 104 204 104 233 73 c 128,-1,21
 262 42 262 42 298 42 c 0,22,23
 333 42 333 42 360 63 c 128,-1,24
 387 84 387 84 413 120 c 1,25,-1
 433 112 l 1,26,27
 431 104 431 104 430 93.5 c 128,-1,28
 429 83 429 83 429 75 c 0,29,30
 429 65 429 65 429 59 c 128,-1,31
 429 53 429 53 433 38 c 1,32,33
 351 -11 351 -11 254 -11 c 0,34,35
 171 -11 171 -11 105.5 21.5 c 128,-1,36
 40 54 40 54 40 127 c 0,37,38
 40 176 40 176 76.5 209 c 128,-1,39
 113 242 113 242 168 260 c 1,40,41
 121 278 121 278 92.5 303.5 c 128,-1,42
 64 329 64 329 64 372 c 0,43,44
 64 435 64 435 120 463.5 c 128,-1,45
 176 492 176 492 246 492 c 0,46,47
 347 492 347 492 428 441 c 1,48,49
 416 420 416 420 408 401 c 128,-1,50
 400 382 400 382 397 361 c 1,51,-1
 369 361 l 1,0,1
355 688 m 1,52,53
 379 712 379 712 393.5 723 c 128,-1,54
 408 734 408 734 429 734 c 0,55,56
 451 734 451 734 466 718 c 128,-1,57
 481 702 481 702 481 681 c 0,58,59
 481 661 481 661 467.5 647.5 c 128,-1,60
 454 634 454 634 432 623 c 2,61,-1
 271 545 l 1,62,-1
 221 545 l 1,63,-1
 355 688 l 1,52,53
EndSplineSet
EndChar
StartChar: uni03AE
Encoding: 942 942 187
Width: 582
Flags: W
LayerCount: 2
Fore
SplineSet
66 244 m 0,0,1
 66 282 66 282 62 368.5 c 128,-1,2
 58 455 58 455 58 480 c 1,3,4
 91 477 91 477 99.5 476.5 c 128,-1,5
 108 476 108 476 130 476 c 0,6,7
 144 476 144 476 176.5 478 c 128,-1,8
 209 480 209 480 211 480 c 1,9,-1
 211 409 l 1,10,11
 244 448 244 448 282 469 c 128,-1,12
 320 490 320 490 369 490 c 0,13,14
 435 490 435 490 477 448 c 128,-1,15
 519 406 519 406 519 339 c 2,16,-1
 518 236 l 1,17,-1
 518 -36 l 2,18,19
 518 -77 518 -77 521.5 -158 c 128,-1,20
 525 -239 525 -239 525 -269 c 1,21,22
 484 -263 484 -263 446 -263 c 0,23,24
 406 -263 406 -263 362 -269 c 1,25,-1
 369 12 l 1,26,-1
 369 181 l 1,27,-1
 369 265 l 2,28,29
 369 321 369 321 354.5 359 c 128,-1,30
 340 397 340 397 295 397 c 0,31,32
 247 397 247 397 231 351 c 1,33,34
 221 329 221 329 218.5 302 c 128,-1,35
 216 275 216 275 216 238 c 0,36,37
 216 190 216 190 219.5 107 c 128,-1,38
 223 24 223 24 223 0 c 1,39,40
 201 0 201 0 175.5 2.5 c 128,-1,41
 150 5 150 5 141 5 c 0,42,43
 118 5 118 5 92.5 2.5 c 128,-1,44
 67 0 67 0 58 0 c 1,45,46
 58 47 58 47 62 135.5 c 128,-1,47
 66 224 66 224 66 244 c 0,0,1
398 687 m 1,48,49
 422 711 422 711 436.5 722 c 128,-1,50
 451 733 451 733 472 733 c 0,51,52
 494 733 494 733 509 717 c 128,-1,53
 524 701 524 701 524 680 c 0,54,55
 524 660 524 660 510.5 646.5 c 128,-1,56
 497 633 497 633 475 622 c 2,57,-1
 314 544 l 1,58,-1
 264 544 l 1,59,-1
 398 687 l 1,48,49
EndSplineSet
EndChar
StartChar: uni03AF
Encoding: 943 943 188
Width: 285
Flags: W
LayerCount: 2
Fore
SplineSet
66 91 m 2,0,-1
 66 391 l 1,1,-1
 58 480 l 1,2,3
 76 478 76 478 100.5 476 c 128,-1,4
 125 474 125 474 142 474 c 0,5,6
 172 474 172 474 191 476 c 128,-1,7
 210 478 210 478 227 480 c 1,8,9
 222 444 222 444 219.5 423 c 128,-1,10
 217 402 217 402 217 377 c 2,11,-1
 218 82 l 2,12,13
 218 64 218 64 219 52.5 c 128,-1,14
 220 41 220 41 226 0 c 1,15,-1
 141 3 l 1,16,-1
 59 0 l 1,17,18
 61 22 61 22 63.5 48.5 c 128,-1,19
 66 75 66 75 66 91 c 2,0,-1
219 687 m 1,20,21
 243 711 243 711 257.5 722 c 128,-1,22
 272 733 272 733 293 733 c 0,23,24
 315 733 315 733 330 717 c 128,-1,25
 345 701 345 701 345 680 c 0,26,27
 345 660 345 660 331.5 646.5 c 128,-1,28
 318 633 318 633 296 622 c 2,29,-1
 135 544 l 1,30,-1
 85 544 l 1,31,-1
 219 687 l 1,20,21
EndSplineSet
EndChar
StartChar: uni03B0
Encoding: 944 944 219
Width: 607
Flags: HW
LayerCount: 2
Fore
SplineSet
553 299 m 0
 553 217 528.666666667 144.833333333 480 82.5 c 128
 431.333333333 20.1666666667 368.333333333 -11 291 -11 c 0
 215 -11 157.666666667 6.16666666667 119 40.5 c 128
 80.3333333333 74.8333333333 61 129.666666667 61 205 c 1
 64 345 l 2
 64 366.333333333 63.1666666667 393 61.5 425 c 128
 59.8333333333 457 59 475.333333333 59 480 c 1
 67.6666666667 480 83.1666666667 479.333333333 105.5 478 c 128
 127.833333333 476.666666667 140 476 142 476 c 0
 152 476 168.333333333 476.666666667 191 478 c 128
 213.666666667 479.333333333 225.333333333 480 226 480 c 1
 221.333333333 432 217.666666667 386.5 215 343.5 c 128
 212.333333333 300.5 211 256.666666667 211 212 c 0
 211 163.333333333 215.833333333 122 225.5 88 c 128
 235.166666667 54 257.333333333 37 292 37 c 0
 332.666666667 37 359.833333333 59.6666666667 373.5 105 c 128
 387.166666667 150.333333333 394 199.666666667 394 253 c 0
 394 292.333333333 389.666666667 328.5 381 361.5 c 128
 372.333333333 394.5 358.666666667 431.666666667 340 473 c 1
 368.666666667 473 395.5 473.666666667 420.5 475 c 128
 445.5 476.333333333 470.333333333 479.333333333 495 484 c 1
 513 456 527.166666667 426.166666667 537.5 394.5 c 128
 547.833333333 362.833333333 553 331 553 299 c 0
87 692 m 256
 103.666666667 692 117.666666667 686 129 674 c 128
 140.333333333 662 146 648 146 632 c 256
 146 616 140.333333333 602.333333333 129 591 c 128
 117.666666667 579.666666667 103.666666667 574 87 574 c 0
 71.6666666667 574 58 579.666666667 46 591 c 128
 34 602.333333333 28 616.333333333 28 633 c 0
 28 648.333333333 33.6666666667 662 45 674 c 128
 56.3333333333 686 70.3333333333 692 87 692 c 256
333 733 m 0
 344.333333333 733 354.333333333 728.666666667 363 720 c 128
 371.666666667 711.333333333 376 701.333333333 376 690 c 0
 376 679.333333333 372.666666667 670.166666667 366 662.5 c 128
 359.333333333 654.833333333 350.333333333 647 339 639 c 2
 203 544 l 1
 161 544 l 1
 265 685 l 1
 276.333333333 699 287.166666667 710.5 297.5 719.5 c 128
 307.833333333 728.5 319.666666667 733 333 733 c 0
473 692 m 0
 488.333333333 692 502 686 514 674 c 128
 526 662 532 648 532 632 c 256
 532 616 526.333333333 602.333333333 515 591 c 128
 503.666666667 579.666666667 490 574 474 574 c 256
 458 574 444 579.666666667 432 591 c 128
 420 602.333333333 414 616.333333333 414 633 c 0
 414 649 419.833333333 662.833333333 431.5 674.5 c 128
 443.166666667 686.166666667 457 692 473 692 c 0
EndSplineSet
EndChar
StartChar: alpha
Encoding: 945 945 189
Width: 632
Flags: HW
LayerCount: 2
Fore
SplineSet
483 479 m 1
 540 477 l 1
 596 479 l 1
 574.666666667 424.333333333 559.333333333 384.5 550 359.5 c 128
 540.666666667 334.5 530.333333333 305.333333333 519 272 c 1
 590 0 l 1
 577.333333333 1.33333333333 564 2.83333333333 550 4.5 c 128
 536 6.16666666667 525 7 517 7 c 0
 505 7 491.833333333 6 477.5 4 c 128
 463.166666667 2 452 0.666666666667 444 0 c 1
 429 73 l 1
 384.333333333 17 328.333333333 -11 261 -11 c 0
 188.333333333 -11 130.333333333 12.6666666667 87 60 c 128
 43.6666666667 107.333333333 22 167.666666667 22 241 c 0
 22 313 44.5 372.833333333 89.5 420.5 c 128
 134.5 468.166666667 193.333333333 492 266 492 c 0
 304.666666667 492 340 483.5 372 466.5 c 128
 404 449.5 432.333333333 425.333333333 457 394 c 1
 460.333333333 402 464.666666667 415 470 433 c 128
 475.333333333 451 479.666666667 466.333333333 483 479 c 1
277 442 m 0
 257.666666667 442 240.833333333 435.833333333 226.5 423.5 c 128
 212.166666667 411.166666667 203.333333333 395.666666667 200 377 c 1
 194.666666667 358.333333333 190.833333333 337 188.5 313 c 128
 186.166666667 289 185 264.666666667 185 240 c 0
 185 199.333333333 188.333333333 161 195 125 c 1
 197.666666667 100.333333333 206.166666667 79.5 220.5 62.5 c 128
 234.833333333 45.5 254 37 278 37 c 0
 320.666666667 37 350.666666667 59.1666666667 368 103.5 c 128
 385.333333333 147.833333333 394 195 394 245 c 0
 394 287 388.333333333 326.333333333 377 363 c 128
 365.666666667 399.666666667 349.5 422 328.5 430 c 128
 307.5 438 290.333333333 442 277 442 c 0
EndSplineSet
EndChar
StartChar: beta
Encoding: 946 946 193
Width: 596
Flags: W
LayerCount: 2
Fore
SplineSet
66 -83 m 0,0,1
 66 -14 66 -14 63 136 c 128,-1,2
 60 286 60 286 60 355 c 0,3,4
 60 430 60 430 62.5 471 c 128,-1,5
 65 512 65 512 74.5 573.5 c 128,-1,6
 84 635 84 635 148.5 685 c 128,-1,7
 213 735 213 735 304 735 c 0,8,9
 390 735 390 735 452 686.5 c 128,-1,10
 514 638 514 638 514 555 c 0,11,12
 514 497 514 497 484 457 c 128,-1,13
 454 417 454 417 399 391 c 1,14,15
 467 365 467 365 505 315.5 c 128,-1,16
 543 266 543 266 543 197 c 0,17,18
 543 110 543 110 491 49.5 c 128,-1,19
 439 -11 439 -11 354 -11 c 0,20,21
 314 -11 314 -11 281.5 0.5 c 128,-1,22
 249 12 249 12 215 36 c 1,23,-1
 215 -76 l 1,24,-1
 221 -267 l 1,25,26
 201 -265 201 -265 178 -263 c 128,-1,27
 155 -261 155 -261 139 -261 c 0,28,29
 122 -261 122 -261 100 -263 c 128,-1,30
 78 -265 78 -265 59 -267 c 1,31,32
 59 -236 59 -236 62.5 -171.5 c 128,-1,33
 66 -107 66 -107 66 -83 c 0,0,1
269 412 m 1,34,35
 322 412 322 412 342.5 449 c 128,-1,36
 363 486 363 486 363 545 c 256,37,38
 363 604 363 604 349.5 646 c 128,-1,39
 336 688 336 688 290 688 c 0,40,41
 254 688 254 688 238 654 c 128,-1,42
 222 620 222 620 218.5 581 c 128,-1,43
 215 542 215 542 214 492 c 128,-1,44
 213 442 213 442 213 397 c 2,45,-1
 215 194 l 2,46,47
 215 136 215 136 231.5 95 c 128,-1,48
 248 54 248 54 298 54 c 0,49,50
 345 54 345 54 362 97.5 c 128,-1,51
 379 141 379 141 379 197 c 0,52,53
 379 272 379 272 358.5 311 c 128,-1,54
 338 350 338 350 269 350 c 1,55,-1
 269 412 l 1,34,35
EndSplineSet
EndChar
StartChar: gamma
Encoding: 947 947 198
Width: 504
Flags: W
LayerCount: 2
Fore
SplineSet
377 144 m 0,0,1
 359 93 359 93 350 63.5 c 128,-1,2
 341 34 341 34 341 -45 c 0,3,4
 341 -97 341 -97 343.5 -177 c 128,-1,5
 346 -257 346 -257 346 -269 c 1,6,7
 318 -265 318 -265 293.5 -264 c 128,-1,8
 269 -263 269 -263 235 -263 c 1,9,-1
 180 -267 l 1,10,11
 180 -227 180 -227 186 -147 c 128,-1,12
 192 -67 192 -67 192 -52 c 0,13,14
 192 38 192 38 177 100 c 128,-1,15
 162 162 162 162 136.5 248 c 128,-1,16
 111 334 111 334 93.5 369 c 128,-1,17
 76 404 76 404 36 404 c 0,18,19
 28 404 28 404 18 402 c 128,-1,20
 8 400 8 400 0 398 c 1,21,-1
 0 457 l 1,22,23
 28 473 28 473 57 482.5 c 128,-1,24
 86 492 86 492 115 492 c 0,25,26
 211 492 211 492 237 427.5 c 128,-1,27
 263 363 263 363 312 168 c 1,28,29
 347 252 347 252 373.5 328.5 c 128,-1,30
 400 405 400 405 415 480 c 1,31,-1
 464 478 l 1,32,-1
 514 480 l 1,33,34
 479 412 479 412 456 353 c 128,-1,35
 433 294 433 294 377 144 c 0,0,1
EndSplineSet
EndChar
StartChar: delta
Encoding: 948 948 195
Width: 518
Flags: W
LayerCount: 2
Fore
SplineSet
392 572 m 1,0,1
 383 615 383 615 359.5 640 c 128,-1,2
 336 665 336 665 294 665 c 0,3,4
 262 665 262 665 238 644.5 c 128,-1,5
 214 624 214 624 214 592 c 0,6,7
 214 532 214 532 284 483 c 128,-1,8
 354 434 354 434 422 388 c 1,9,10
 496 320 496 320 496 222 c 0,11,12
 496 113 496 113 433 51 c 128,-1,13
 370 -11 370 -11 259 -11 c 0,14,15
 151 -11 151 -11 86.5 50.5 c 128,-1,16
 22 112 22 112 22 220 c 0,17,18
 22 302 22 302 64.5 362 c 128,-1,19
 107 422 107 422 185 442 c 1,20,21
 129 468 129 468 94.5 501.5 c 128,-1,22
 60 535 60 535 60 585 c 0,23,24
 60 660 60 660 125 697.5 c 128,-1,25
 190 735 190 735 270 735 c 0,26,27
 368 735 368 735 454 681 c 1,28,29
 445 657 445 657 437.5 630.5 c 128,-1,30
 430 604 430 604 420 568 c 1,31,-1
 392 572 l 1,0,1
194 117 m 0,32,33
 199 82 199 82 213.5 59.5 c 128,-1,34
 228 37 228 37 259 37 c 0,35,36
 297 37 297 37 312 68.5 c 128,-1,37
 327 100 327 100 331 147 c 1,38,-1
 333 220 l 1,39,-1
 331 293 l 1,40,41
 331 334 331 334 314.5 369 c 128,-1,42
 298 404 298 404 261 404 c 0,43,44
 231 404 231 404 214.5 380.5 c 128,-1,45
 198 357 198 357 194 323 c 1,46,47
 190 303 190 303 188 275 c 128,-1,48
 186 247 186 247 186 220 c 0,49,50
 186 179 186 179 187.5 163.5 c 128,-1,51
 189 148 189 148 194 117 c 0,32,33
EndSplineSet
EndChar
StartChar: epsilon
Encoding: 949 949 196
Width: 473
Flags: W
LayerCount: 2
Fore
SplineSet
369 362 m 1,0,1
 362 395 362 395 340.5 417.5 c 128,-1,2
 319 440 319 440 286 440 c 0,3,4
 254 440 254 440 233.5 416.5 c 128,-1,5
 213 393 213 393 213 361 c 0,6,7
 213 333 213 333 229.5 311.5 c 128,-1,8
 246 290 246 290 273 286 c 1,9,-1
 325 284 l 1,10,-1
 324 269 l 1,11,12
 324 252 324 252 324 242.5 c 128,-1,13
 324 233 324 233 325 228 c 1,14,15
 317 230 317 230 299 230 c 0,16,17
 262 230 262 230 233 203 c 128,-1,18
 204 176 204 176 204 141 c 0,19,20
 204 104 204 104 233 73 c 128,-1,21
 262 42 262 42 298 42 c 0,22,23
 333 42 333 42 360 63 c 128,-1,24
 387 84 387 84 413 120 c 1,25,-1
 433 112 l 1,26,27
 431 104 431 104 430 93.5 c 128,-1,28
 429 83 429 83 429 75 c 0,29,30
 429 65 429 65 429 59 c 128,-1,31
 429 53 429 53 433 38 c 1,32,33
 351 -11 351 -11 254 -11 c 0,34,35
 171 -11 171 -11 105.5 21.5 c 128,-1,36
 40 54 40 54 40 127 c 0,37,38
 40 176 40 176 76.5 209 c 128,-1,39
 113 242 113 242 168 260 c 1,40,41
 121 278 121 278 92.5 303.5 c 128,-1,42
 64 329 64 329 64 372 c 0,43,44
 64 435 64 435 120 463.5 c 128,-1,45
 176 492 176 492 246 492 c 0,46,47
 347 492 347 492 428 441 c 1,48,49
 416 420 416 420 408 401 c 128,-1,50
 400 382 400 382 397 362 c 1,51,-1
 369 362 l 1,0,1
EndSplineSet
EndChar
StartChar: zeta
Encoding: 950 950 213
Width: 472
Flags: W
HStem: 652 82<91.6821 336>
VStem: 46 121<167.638 307.95> 375 105<-64.1699 43.3333>
LayerCount: 2
Fore
SplineSet
167 259 m 1
 166 245 l 1
 167 226 l 1
 167 179.333333333 194 150 248 138 c 1
 298 130.666666667 348.333333333 123.666666667 399 117 c 1
 453 103 480 69.6666666667 480 17 c 0
 480 -15 470.666666667 -45.6666666667 452 -75 c 0
 433.333333333 -104.333333333 408.666666667 -132.666666667 378 -160 c 1
 330 -131 l 1
 346.666666667 -108.333333333 357.833333333 -92.3333333333 363.5 -83 c 0
 369.166666667 -73.6666666667 373 -61.3333333333 375 -46 c 1
 375 -18.6666666667 340 -0.166666666667 270 9.5 c 0
 200 19.1666666667 145.166666667 33.1666666667 105.5 51.5 c 0
 65.8333333333 69.8333333333 46 115 46 187 c 0
 46 245.666666667 60.1666666667 302.166666667 88.5 356.5 c 0
 116.833333333 410.833333333 149.166666667 458.166666667 185.5 498.5 c 0
 221.833333333 538.833333333 272 590 336 652 c 1
 281.333333333 652 236.166666667 651.5 200.5 650.5 c 0
 164.833333333 649.5 127.333333333 647 88 643 c 1
 91 690 l 1
 88 737 l 1
 109.333333333 737 141.333333333 736 184 734 c 0
 226.666666667 732 258.666666667 731 280 731 c 0
 299.333333333 731 328.666666667 732 368 734 c 0
 407.333333333 736 437 737 457 737 c 1
 454 704 l 1
 457 673 l 1
 402.333333333 631.666666667 354.166666667 590.833333333 312.5 550.5 c 0
 270.833333333 510.166666667 236.166666667 465.5 208.5 416.5 c 0
 180.833333333 367.5 167 315 167 259 c 1
EndSplineSet
EndChar
StartChar: eta
Encoding: 951 951 196
Width: 582
Flags: W
HStem: 0 21G<58 61 215.667 223> 397 93<280.797 391> 460 20G<58 69 210.333 211>
VStem: 62 157.5<6.03711 236.491> 66 150<6.03711 365.454 409 475.718> 362 159.5<-268.05 12> 369 149<-268.05 372.83>
LayerCount: 2
Fore
SplineSet
66 244 m 0xc8
 66 269.333333333 64.6666666667 310.833333333 62 368.5 c 0
 59.3333333333 426.166666667 58 463.333333333 58 480 c 1
 80 478 93.8333333333 476.833333333 99.5 476.5 c 0
 105.166666667 476.166666667 115.333333333 476 130 476 c 0
 139.333333333 476 154.833333333 476.666666667 176.5 478 c 0
 198.166666667 479.333333333 209.666666667 480 211 480 c 1xb0
 211 409 l 1
 233 435 256.666666667 455 282 469 c 0
 307.333333333 483 336.333333333 490 369 490 c 0
 413 490 449 476 477 448 c 0
 505 420 519 383.666666667 519 339 c 2
 518 236 l 1
 518 -36 l 2xd2
 518 -63.3333333333 519.166666667 -104 521.5 -158 c 0
 523.833333333 -212 525 -249 525 -269 c 1
 497.666666667 -265 471.333333333 -263 446 -263 c 0
 419.333333333 -263 391.333333333 -265 362 -269 c 1xc4
 369 12 l 1
 369 181 l 1
 369 265 l 2
 369 302.333333333 364.166666667 333.666666667 354.5 359 c 0
 344.833333333 384.333333333 325 397 295 397 c 0
 263 397 241.666666667 381.666666667 231 351 c 1
 224.333333333 336.333333333 220.166666667 320 218.5 302 c 0
 216.833333333 284 216 262.666666667 216 238 c 0xca
 216 206 217.166666667 162.333333333 219.5 107 c 0
 221.833333333 51.6666666667 223 16 223 0 c 1
 208.333333333 0 192.5 0.833333333333 175.5 2.5 c 0
 158.5 4.16666666667 147 5 141 5 c 0
 125.666666667 5 109.5 4.16666666667 92.5 2.5 c 0
 75.5 0.833333333333 64 0 58 0 c 1
 58 31.3333333333 59.3333333333 76.5 62 135.5 c 0xd0
 64.6666666667 194.5 66 230.666666667 66 244 c 0xc8
EndSplineSet
EndChar
StartChar: theta
Encoding: 952 952 211
Width: 539
Flags: W
LayerCount: 2
Fore
SplineSet
512 324 m 0,0,1
 512 173 512 173 459 79.5 c 128,-1,2
 406 -14 406 -14 265 -14 c 0,3,4
 127 -14 127 -14 76 74.5 c 128,-1,5
 25 163 25 163 25 313 c 0,6,7
 25 462 25 462 77 558 c 128,-1,8
 129 654 129 654 266 654 c 0,9,10
 408 654 408 654 460 565.5 c 128,-1,11
 512 477 512 477 512 324 c 0,0,1
269 299 m 0,12,13
 255 299 255 299 221.5 297 c 128,-1,14
 188 295 188 295 185 295 c 1,15,16
 185 267 185 267 186.5 232 c 128,-1,17
 188 197 188 197 193 150 c 128,-1,18
 198 103 198 103 212.5 69 c 128,-1,19
 227 35 227 35 269 35 c 0,20,21
 295 35 295 35 311.5 52 c 128,-1,22
 328 69 328 69 336 97 c 1,23,24
 344 138 344 138 347.5 189.5 c 128,-1,25
 351 241 351 241 351 295 c 1,26,27
 337 295 337 295 303.5 297 c 128,-1,28
 270 299 270 299 269 299 c 0,12,13
349 433 m 1,29,30
 349 503 349 503 335 554 c 128,-1,31
 321 605 321 605 269 605 c 256,32,33
 217 605 217 605 200.5 547 c 128,-1,34
 184 489 184 489 184 403 c 2,35,-1
 184 354 l 1,36,-1
 269 351 l 1,37,-1
 352 354 l 1,38,-1
 349 433 l 1,29,30
EndSplineSet
EndChar
StartChar: iota
Encoding: 953 953 197
Width: 285
Flags: W
HStem: 3 471<66.186 216.73> 460 20G<59.7978 64 221.333 225.333>
VStem: 66 152<3.77893 468.875>
LayerCount: 2
Fore
SplineSet
66 91 m 2xa0
 66 391 l 1
 58 480 l 1x60
 70 478.666666667 84.1666666667 477.333333333 100.5 476 c 0
 116.833333333 474.666666667 130.666666667 474 142 474 c 0xa0
 162 474 178.333333333 474.666666667 191 476 c 0
 203.666666667 477.333333333 215.666666667 478.666666667 227 480 c 1x60
 223.666666667 456 221.166666667 437 219.5 423 c 0
 217.833333333 409 217 393.666666667 217 377 c 2
 218 82 l 2
 218 70 218.333333333 60.1666666667 219 52.5 c 0
 219.666666667 44.8333333333 222 27.3333333333 226 0 c 1
 141 3 l 1
 59 0 l 1
 60.3333333333 14.6666666667 61.8333333333 30.8333333333 63.5 48.5 c 0
 65.1666666667 66.1666666667 66 80.3333333333 66 91 c 2xa0
EndSplineSet
EndChar
StartChar: kappa
Encoding: 954 954 201
Width: 544
Flags: HW
LayerCount: 2
Fore
SplineSet
133 475 m 1
 159.666666667 475 189 476.666666667 221 480 c 1
 215 367 l 1
 213 332 l 1
 213 280 l 1
 247.666666667 308 278.333333333 337.166666667 305 367.5 c 128
 331.666666667 397.833333333 361 435.333333333 393 480 c 1
 446 478 l 1
 511 480 l 1
 515 473 l 1
 453 415 l 1
 343 306 l 1
 359.666666667 276.666666667 378.166666667 244.833333333 398.5 210.5 c 128
 418.833333333 176.166666667 439 143 459 111 c 2
 528 0 l 1
 515.333333333 0 498.166666667 0.833333333333 476.5 2.5 c 128
 454.833333333 4.16666666667 442 5 438 5 c 0
 424.666666667 5 407.666666667 4.16666666667 387 2.5 c 128
 366.333333333 0.833333333333 354.333333333 0 351 0 c 1
 329 40 304.833333333 82 278.5 126 c 128
 252.166666667 170 230.333333333 207 213 237 c 1
 213 180 l 2
 213 159.333333333 213.666666667 125 215 77 c 128
 216.333333333 29 217 3.33333333333 217 0 c 1
 138 3 l 1
 58 0 l 1
 58 20.6666666667 59.3333333333 51.3333333333 62 92 c 128
 64.6666666667 132.666666667 66 163.333333333 66 184 c 0
 66 216.666666667 64.6666666667 266 62 332 c 128
 59.3333333333 398 58 447.333333333 58 480 c 1
 133 475 l 1
EndSplineSet
EndChar
StartChar: lambda
Encoding: 955 955 203
Width: 494
Flags: W
LayerCount: 2
Fore
SplineSet
397 2 m 1,0,-1
 313 0 l 1,1,2
 301 57 301 57 285 127.5 c 128,-1,3
 269 198 269 198 260.5 233 c 128,-1,4
 252 268 252 268 230 353 c 1,5,6
 195 259 195 259 169.5 171.5 c 128,-1,7
 144 84 144 84 130 0 c 1,8,-1
 75 2 l 1,9,-1
 17 0 l 1,10,11
 51 79 51 79 79.5 154 c 128,-1,12
 108 229 108 229 132 299.5 c 128,-1,13
 156 370 156 370 191 477 c 1,14,15
 179 547 179 547 155 600.5 c 128,-1,16
 131 654 131 654 81 654 c 0,17,18
 72 654 72 654 58.5 650.5 c 128,-1,19
 45 647 45 647 38 645 c 1,20,-1
 24 694 l 1,21,22
 56 715 56 715 88.5 726 c 128,-1,23
 121 737 121 737 156 737 c 0,24,25
 247 737 247 737 277.5 666 c 128,-1,26
 308 595 308 595 331 517 c 1,27,-1
 382 331 l 1,28,-1
 478 0 l 1,29,-1
 397 2 l 1,0,-1
EndSplineSet
EndChar
